<svg width="29" height="28" viewBox="0 0 29 28" fill="none" xmlns="http://www.w3.org/2000/svg">
    <g clip-path="url(#clip0_20_1290)">
    <path d="M26.8533 0H2.14102C0.957227 0 0 0.902344 0 2.01797V25.9766C0 27.0922 0.957227 28 2.14102 28H26.8533C28.0371 28 29 27.0922 29 25.982V2.01797C29 0.902344 28.0371 0 26.8533 0ZM8.60371 23.8602H4.29902V10.4945H8.60371V23.8602ZM6.45137 8.67344C5.06934 8.67344 3.95352 7.59609 3.95352 6.26719C3.95352 4.93828 5.06934 3.86094 6.45137 3.86094C7.82773 3.86094 8.94355 4.93828 8.94355 6.26719C8.94355 7.59062 7.82773 8.67344 6.45137 8.67344ZM24.7123 23.8602H20.4133V17.3633C20.4133 15.8156 20.385 13.8195 18.176 13.8195C15.9387 13.8195 15.5988 15.5094 15.5988 17.2539V23.8602H11.3055V10.4945H15.4289V12.3211H15.4855C16.0576 11.2711 17.4623 10.1609 19.5523 10.1609C23.908 10.1609 24.7123 12.9281 24.7123 16.5266V23.8602Z" fill="black"/>
    </g>
    <defs>
    <clipPath id="clip0_20_1290">
    <rect width="29" height="28" fill="white"/>
    </clipPath>
    </defs>
</svg>
