<svg width="262" height="34" viewBox="0 0 262 34" fill="none" xmlns="http://www.w3.org/2000/svg">
<path d="M261.511 33.1489C261.511 33.4631 261.249 33.7203 260.93 33.7203H0.749001C0.429433 33.7203 0.167969 33.4631 0.167969 33.1489V22.799C0.167969 22.4847 0.429433 22.2276 0.749001 22.2276H260.93C261.249 22.2276 261.511 22.4847 261.511 22.799V33.1489Z" fill="#FFCB05"/>
<path d="M47.2619 24.7164H45.5969C45.4766 24.7164 45.3792 24.8122 45.3792 24.9306V27.287H42.9285V24.9306C42.9285 24.8122 42.8311 24.7164 42.7106 24.7164H41.046C40.9257 24.7164 40.8282 24.8122 40.8282 24.9306V31.2204C40.8282 31.3389 40.9257 31.4346 41.046 31.4346H42.7106C42.8311 31.4346 42.9285 31.3389 42.9285 31.2204V28.8022H45.3792V31.2204C45.3792 31.3389 45.4766 31.4346 45.5969 31.4346H47.2619C47.3821 31.4346 47.4796 31.3389 47.4796 31.2204V24.9306C47.4796 24.8122 47.3821 24.7164 47.2619 24.7164Z" fill="#2062AF"/>
<path d="M53.2439 24.8369C53.2073 24.7633 53.1313 24.7164 53.0481 24.7164H51.7425C51.6591 24.7164 51.5831 24.7633 51.5467 24.8372L48.4447 31.1269C48.412 31.1933 48.4162 31.2717 48.4559 31.3342C48.4958 31.3966 48.5654 31.4346 48.6406 31.4346H50.3772C50.4625 31.4346 50.54 31.3854 50.5753 31.309L51.0325 30.3214H53.7808L54.2263 31.3074C54.2613 31.3849 54.3391 31.4346 54.4253 31.4346H56.1618C56.2369 31.4346 56.3066 31.3966 56.3464 31.334C56.3862 31.2714 56.3905 31.193 56.3578 31.1267L53.2439 24.8369ZM53.1428 28.8596H51.7002L52.4338 27.3024L53.1428 28.8596Z" fill="#2062AF"/>
<path d="M64.75 29.9107H63.9736V24.9306C63.9736 24.812 63.8763 24.7164 63.7559 24.7164H62.0912C61.971 24.7164 61.8735 24.812 61.8735 24.9306V29.9107H59.4227V24.9306C59.4227 24.812 59.3254 24.7164 59.205 24.7164H57.54C57.4197 24.7164 57.3223 24.812 57.3223 24.9306V31.2204C57.3223 31.3387 57.4197 31.4346 57.54 31.4346H62.9273V32.616C62.9273 32.7346 63.0247 32.8303 63.1451 32.8303H64.75C64.8703 32.8303 64.9678 32.7346 64.9678 32.616V30.125C64.9678 30.0067 64.8703 29.9107 64.75 29.9107Z" fill="#2062AF"/>
<path d="M68.0565 24.7164H66.3915C66.2712 24.7164 66.1738 24.8122 66.1738 24.9306V31.2204C66.1738 31.3389 66.2712 31.4346 66.3915 31.4346H68.0565C68.1767 31.4346 68.2742 31.3389 68.2742 31.2204V24.9306C68.2741 24.8122 68.1766 24.7164 68.0565 24.7164Z" fill="#2062AF"/>
<path d="M75.6626 25.3966C75.025 24.917 74.1841 24.6634 73.2307 24.6634C72.2692 24.6634 71.4241 24.917 70.7871 25.3964C70.0789 25.928 69.8632 26.494 69.8632 27.8193V28.3406C69.8632 29.0226 69.8632 30.0532 70.787 30.7543C71.4241 31.234 72.2692 31.4874 73.2307 31.4874C74.2102 31.4874 75.029 31.2404 75.6632 30.7539C76.5982 30.0444 76.5982 29.1206 76.5982 28.3053V27.6339C76.5982 26.5592 76.3184 25.89 75.6626 25.3966ZM74.1555 29.6793C73.9334 29.8654 73.6134 29.9637 73.2307 29.9637C72.8655 29.9637 72.5468 29.8653 72.2834 29.6709C71.9862 29.4519 71.9633 28.9667 71.9633 28.3053V27.987C71.9633 27.256 71.9867 26.7197 72.2941 26.4717C72.5128 26.2883 72.8455 26.1873 73.2307 26.1873C73.6134 26.1873 73.9334 26.2856 74.1555 26.4717C74.1561 26.4723 74.1567 26.473 74.1576 26.4736C74.4087 26.6787 74.498 26.9343 74.498 27.9607C74.498 29.2136 74.425 29.4529 74.1555 29.6793Z" fill="#2062AF"/>
<path d="M84.4033 24.7164H82.7384C82.6181 24.7164 82.5207 24.8122 82.5207 24.9306V27.287H80.0699V24.9306C80.0699 24.8122 79.9725 24.7164 79.8521 24.7164H78.1875C78.0672 24.7164 77.9697 24.8122 77.9697 24.9306V31.2204C77.9697 31.3389 78.0672 31.4346 78.1875 31.4346H79.8521C79.9725 31.4346 80.0699 31.3389 80.0699 31.2204V28.8022H82.5207V31.2204C82.5207 31.3389 82.6181 31.4346 82.7384 31.4346H84.4033C84.5236 31.4346 84.6211 31.3389 84.6211 31.2204V24.9306C84.6209 24.8122 84.5235 24.7164 84.4033 24.7164Z" fill="#2062AF"/>
<path d="M90.3854 24.8369C90.3488 24.7633 90.2729 24.7164 90.1896 24.7164H88.884C88.8006 24.7164 88.7246 24.7633 88.6882 24.8372L85.5862 31.1269C85.5535 31.1933 85.5577 31.2717 85.5974 31.3342C85.6373 31.3966 85.7069 31.4346 85.7821 31.4346H87.5187C87.604 31.4346 87.6815 31.3854 87.7168 31.309L88.174 30.3214H90.9222L91.3677 31.3074C91.4027 31.3849 91.4806 31.4346 91.5667 31.4346H93.3033C93.3784 31.4346 93.4481 31.3966 93.4879 31.334C93.5277 31.2714 93.5319 31.193 93.4993 31.1267L90.3854 24.8369ZM90.2843 28.8596H88.8417L89.5753 27.3024L90.2843 28.8596Z" fill="#2062AF"/>
<path d="M100.898 24.7164H95.5923C95.4717 24.7164 95.3744 24.8122 95.3744 24.9306V27.784C95.3744 29.7466 94.7601 29.9107 94.131 29.9107H93.8916C93.7713 29.9107 93.6738 30.0066 93.6738 30.125V31.2204C93.6738 31.3389 93.7713 31.4346 93.8916 31.4346H94.5503C96.6117 31.4346 97.415 30.4309 97.415 27.8547V26.2402H99.0153V31.2204C99.0153 31.3389 99.1127 31.4346 99.233 31.4346H100.898C101.018 31.4346 101.115 31.3389 101.115 31.2204V24.9306C101.115 24.8122 101.018 24.7164 100.898 24.7164Z" fill="#2062AF"/>
<path d="M106.358 27.0839H104.887V24.9306C104.887 24.8122 104.789 24.7164 104.669 24.7164H103.004C102.884 24.7164 102.786 24.8122 102.786 24.9306V31.2204C102.786 31.3387 102.884 31.4346 103.004 31.4346H106.358C108.115 31.4346 109.342 30.5399 109.342 29.2592C109.342 27.9786 108.115 27.0839 106.358 27.0839ZM104.887 28.6077H106.226C106.843 28.6077 107.242 28.8634 107.242 29.2592C107.242 29.7397 106.717 29.9107 106.226 29.9107H104.887V28.6077Z" fill="#2062AF"/>
<path d="M117.066 24.7164H115.401C115.281 24.7164 115.183 24.8122 115.183 24.9306V27.287H112.732V24.9306C112.732 24.8122 112.635 24.7164 112.515 24.7164H110.85C110.729 24.7164 110.632 24.8122 110.632 24.9306V31.2204C110.632 31.3389 110.729 31.4346 110.85 31.4346H112.515C112.635 31.4346 112.732 31.3389 112.732 31.2204V28.8022H115.183V31.2204C115.183 31.3389 115.281 31.4346 115.401 31.4346H117.066C117.186 31.4346 117.283 31.3389 117.283 31.2204V24.9306C117.283 24.8122 117.186 24.7164 117.066 24.7164Z" fill="#2062AF"/>
<path d="M125.627 24.7164H124.142C124.077 24.7164 124.015 24.7454 123.973 24.7957L121.043 28.3543V24.9306C121.043 24.8122 120.945 24.7164 120.825 24.7164H119.16C119.04 24.7164 118.942 24.8122 118.942 24.9306V31.2204C118.942 31.3389 119.04 31.4346 119.16 31.4346H120.645C120.711 31.4346 120.773 31.4053 120.814 31.3552L123.745 27.789V31.2204C123.745 31.3389 123.843 31.4346 123.963 31.4346H125.627C125.748 31.4346 125.845 31.3389 125.845 31.2204V24.9306C125.845 24.8122 125.748 24.7164 125.627 24.7164Z" fill="#2062AF"/>
<path d="M130.968 24.8092C132.273 24.8092 133.08 24.2607 133.126 23.3422C133.129 23.2836 133.107 23.2266 133.066 23.1842C133.025 23.1417 132.968 23.1176 132.909 23.1176H131.735C131.622 23.1176 131.528 23.2022 131.518 23.3123C131.508 23.418 131.486 23.6652 130.968 23.6652C130.452 23.6652 130.429 23.418 130.419 23.3123C130.409 23.2022 130.315 23.1176 130.202 23.1176H129.028C128.969 23.1176 128.912 23.1417 128.871 23.1842C128.83 23.2266 128.808 23.2836 128.811 23.3422C128.857 24.2607 129.663 24.8092 130.968 24.8092Z" fill="#2062AF"/>
<path d="M134.19 24.7164H132.705C132.639 24.7164 132.577 24.7454 132.535 24.7959L129.605 28.3543V24.9306C129.605 24.8122 129.508 24.7164 129.387 24.7164H127.723C127.602 24.7164 127.505 24.8122 127.505 24.9306V31.2204C127.505 31.3389 127.602 31.4346 127.723 31.4346H129.208C129.273 31.4346 129.336 31.4053 129.377 31.3552L132.307 27.789V31.2204C132.307 31.3389 132.405 31.4346 132.525 31.4346H134.19C134.31 31.4346 134.408 31.3389 134.408 31.2204V24.9306C134.408 24.8122 134.31 24.7164 134.19 24.7164Z" fill="#2062AF"/>
<path d="M146.392 24.7164H144.668C144.586 24.7164 144.512 24.7606 144.475 24.831L143.041 27.5174L141.455 24.8233C141.416 24.7572 141.344 24.7164 141.266 24.7164H139.529C139.45 24.7164 139.378 24.7584 139.339 24.8263C139.301 24.8937 139.302 24.9767 139.344 25.0429L142.007 29.2986L141.822 29.6176C141.745 29.7434 141.589 29.9107 141.122 29.9107H140.452C140.331 29.9107 140.234 30.0066 140.234 30.125V31.2204C140.234 31.3389 140.331 31.4346 140.452 31.4346H141.47C142.647 31.4346 143.258 30.7992 143.563 30.266L146.582 25.0362C146.62 24.9699 146.619 24.8887 146.58 24.8229C146.541 24.757 146.47 24.7164 146.392 24.7164Z" fill="#2062AF"/>
<path d="M153.975 24.7164H152.31C152.19 24.7164 152.092 24.8122 152.092 24.9306V27.287H149.642V24.9306C149.642 24.8122 149.544 24.7164 149.424 24.7164H147.759C147.638 24.7164 147.541 24.8122 147.541 24.9306V31.2204C147.541 31.3389 147.638 31.4346 147.759 31.4346H149.424C149.544 31.4346 149.642 31.3389 149.642 31.2204V28.8022H152.092V31.2204C152.092 31.3389 152.19 31.4346 152.31 31.4346H153.975C154.095 31.4346 154.193 31.3389 154.193 31.2204V24.9306C154.193 24.8122 154.095 24.7164 153.975 24.7164Z" fill="#2062AF"/>
<path d="M157.952 24.7164H156.287C156.167 24.7164 156.069 24.8122 156.069 24.9306V31.2204C156.069 31.3389 156.167 31.4346 156.287 31.4346H157.952C158.072 31.4346 158.17 31.3389 158.17 31.2204V24.9306C158.17 24.8122 158.072 24.7164 157.952 24.7164Z" fill="#2062AF"/>
<path d="M166.053 28.1643C166.051 28.1629 166.049 28.1617 166.048 28.1602C165.952 28.0897 165.868 28.0352 165.769 27.9829C166.282 27.6617 166.542 27.2192 166.542 26.6622C166.542 25.4802 165.422 24.7164 163.689 24.7164H160.264C160.143 24.7164 160.046 24.8122 160.046 24.9306V31.2206C160.046 31.3389 160.143 31.4347 160.264 31.4347H163.833C165.551 31.4347 166.661 30.6432 166.661 29.4182C166.661 28.8962 166.462 28.486 166.053 28.1643ZM164.561 29.3476C164.561 29.763 164.098 29.9109 163.665 29.9109H162.146V28.7934H163.665C163.876 28.7934 164.561 28.8333 164.561 29.3476ZM163.557 27.2607H162.147V26.2402H163.557C163.765 26.2402 164.442 26.277 164.442 26.7504C164.442 27.2239 163.765 27.2607 163.557 27.2607Z" fill="#2062AF"/>
<path d="M174.086 24.7164H168.469C168.348 24.7164 168.251 24.8122 168.251 24.9306V31.2204C168.251 31.3389 168.348 31.4346 168.469 31.4346H174.086C174.206 31.4346 174.303 31.3389 174.303 31.2204V30.125C174.303 30.0066 174.206 29.9107 174.086 29.9107H170.351V28.8109H173.499C173.619 28.8109 173.717 28.715 173.717 28.5966V27.5012C173.717 27.3829 173.619 27.287 173.499 27.287H170.351V26.2402H174.086C174.206 26.2402 174.303 26.1444 174.303 26.026V24.9306C174.303 24.8122 174.206 24.7164 174.086 24.7164Z" fill="#2062AF"/>
<path d="M179.345 24.7164H176.039C175.919 24.7164 175.821 24.8122 175.821 24.9306V31.2206C175.821 31.3389 175.919 31.4347 176.039 31.4347H177.704C177.824 31.4347 177.921 31.3389 177.921 31.2206V29.0672H179.345C181.13 29.0672 182.377 28.1726 182.377 26.8917C182.377 25.6314 181.101 24.7164 179.345 24.7164ZM180.276 26.8917C180.276 27.2823 179.878 27.5346 179.261 27.5346H177.921V26.2402H179.261C179.878 26.2402 180.276 26.496 180.276 26.8917Z" fill="#2062AF"/>
<path d="M185.823 26.4619C186.032 26.2847 186.36 26.1873 186.746 26.1873C187.398 26.1873 187.812 26.4379 187.977 26.9319C188.006 27.02 188.09 27.0793 188.184 27.0793H189.873C189.939 27.0793 190.001 27.0499 190.043 26.9991C190.084 26.9484 190.099 26.8819 190.085 26.8183C189.778 25.469 188.526 24.6634 186.735 24.6634C185.78 24.6634 184.963 24.9097 184.305 25.3953C183.378 26.0789 183.378 26.9226 183.379 27.9904V28.1609C183.378 29.2287 183.378 30.072 184.305 30.7557C184.963 31.2413 185.78 31.4876 186.735 31.4876C188.526 31.4876 189.778 30.682 190.085 29.3327C190.099 29.2692 190.084 29.2027 190.043 29.152C190.001 29.1013 189.939 29.0716 189.873 29.0716H188.184C188.09 29.0716 188.006 29.1311 187.977 29.2191C187.812 29.7133 187.398 29.9639 186.746 29.9639C186.36 29.9639 186.032 29.8663 185.82 29.6866C185.578 29.4884 185.479 29.287 185.479 28.0757C185.479 26.8641 185.578 26.6627 185.823 26.4619Z" fill="#2062AF"/>
<path d="M198.102 24.7164H196.617C196.551 24.7164 196.489 24.7454 196.448 24.7959L193.517 28.3543V24.9306C193.517 24.8122 193.42 24.7164 193.299 24.7164H191.635C191.514 24.7164 191.417 24.8122 191.417 24.9306V31.2204C191.417 31.3389 191.514 31.4346 191.635 31.4346H193.12C193.186 31.4346 193.248 31.4053 193.289 31.3552L196.219 27.789V31.2204C196.219 31.3389 196.317 31.4346 196.437 31.4346H198.102C198.222 31.4346 198.32 31.3389 198.32 31.2204V24.9306C198.32 24.8122 198.222 24.7164 198.102 24.7164Z" fill="#2062AF"/>
<path d="M205.899 24.7164H199.779C199.659 24.7164 199.562 24.8122 199.562 24.9306V26.026C199.562 26.1444 199.659 26.2402 199.779 26.2402H201.789V31.2204C201.789 31.3389 201.887 31.4346 202.007 31.4346H203.672C203.792 31.4346 203.89 31.3389 203.89 31.2204V26.2402H205.899C206.02 26.2402 206.117 26.1444 206.117 26.026V24.9306C206.117 24.8122 206.02 24.7164 205.899 24.7164Z" fill="#2062AF"/>
<path d="M213.194 24.7164H207.577C207.457 24.7164 207.359 24.8122 207.359 24.9306V31.2204C207.359 31.3389 207.457 31.4346 207.577 31.4346H213.194C213.315 31.4346 213.412 31.3389 213.412 31.2204V30.125C213.412 30.0066 213.315 29.9107 213.194 29.9107H209.46V28.8109H212.607C212.728 28.8109 212.825 28.715 212.825 28.5966V27.5012C212.825 27.3829 212.728 27.287 212.607 27.287H209.46V26.2402H213.194C213.315 26.2402 213.412 26.1444 213.412 26.026V24.9306C213.412 24.8122 213.315 24.7164 213.194 24.7164Z" fill="#2062AF"/>
<path d="M220.633 24.7164H214.513C214.392 24.7164 214.295 24.8122 214.295 24.9306V26.026C214.295 26.1444 214.392 26.2402 214.513 26.2402H216.523V31.2204C216.523 31.3389 216.62 31.4346 216.741 31.4346H218.405C218.526 31.4346 218.623 31.3389 218.623 31.2204V26.2402H220.633C220.753 26.2402 220.851 26.1444 220.851 26.026V24.9306C220.851 24.8122 220.753 24.7164 220.633 24.7164Z" fill="#2062AF"/>
<path d="M10.1855 10.9016C11.2742 9.91058 11.9168 8.36644 11.9168 6.71101C11.9168 3.20459 9.58133 0.755585 6.23735 0.755585C2.97165 0.755585 0.711295 3.24844 0.19127 7.42401C0.183717 7.48487 0.20289 7.54601 0.244288 7.59187C0.285687 7.63787 0.345104 7.66416 0.40742 7.66416H4.17847C4.28029 7.66416 4.36846 7.59473 4.39069 7.49715C4.71084 6.09858 5.2907 5.44716 6.21571 5.44716C7.12357 5.44716 7.71027 6.0883 7.71027 7.08044C7.71027 8.15673 7.15974 8.79915 6.23735 8.79915H4.20011C4.07969 8.79915 3.98236 8.89501 3.98236 9.0133V13.0492C3.98236 13.1674 4.07969 13.2633 4.20011 13.2633H6.23735C7.59798 13.2633 7.88342 14.306 7.88342 15.1809C7.88342 16.3282 7.25198 17.0133 6.19392 17.0133C5.2602 17.0133 4.68033 16.3799 4.36919 15.0203C4.34682 14.9226 4.2585 14.8532 4.15667 14.8532H0.385628C0.323457 14.8532 0.263903 14.8793 0.222505 14.9253C0.181252 14.9713 0.16193 15.0323 0.169629 15.0933C0.689798 19.2687 2.95016 21.7614 6.21571 21.7614C9.69987 21.7614 12.1334 19.1256 12.1334 15.3514C12.1334 13.4724 11.4103 11.8327 10.1855 10.9016Z" fill="#2062AF"/>
<path d="M20.8587 1.08402C20.8328 0.990876 20.747 0.926163 20.6486 0.926163H17.7228C17.6245 0.926163 17.5388 0.990876 17.5128 1.08402L11.8993 21.3204C11.8814 21.3849 11.8951 21.4539 11.9363 21.507C11.9776 21.5599 12.0416 21.5912 12.1095 21.5912H16.0756C16.1758 21.5912 16.263 21.524 16.287 21.4284L17.0045 18.5783H21.4079L22.0841 21.4257C22.107 21.5225 22.1948 21.5912 22.296 21.5912H26.262C26.3298 21.5912 26.394 21.5599 26.4351 21.507C26.4764 21.4539 26.49 21.3849 26.4722 21.3204L20.8587 1.08402ZM20.3084 14.0004H18.1757L19.2765 9.71516L20.3084 14.0004Z" fill="#2062AF"/>
<path d="M39.0076 0.9263H27.3907C27.2704 0.9263 27.173 1.02216 27.173 1.14044V21.377C27.173 21.4953 27.2704 21.5912 27.3907 21.5912H31.1835C31.304 21.5912 31.4013 21.4953 31.4013 21.377V5.78844H34.9972V21.377C34.9972 21.4953 35.0946 21.5912 35.2149 21.5912H39.0076C39.128 21.5912 39.2253 21.4953 39.2253 21.377V1.14044C39.2253 1.02216 39.128 0.9263 39.0076 0.9263Z" fill="#2062AF"/>
<path d="M46.3968 0.755585C44.5611 0.755585 43.0576 1.55101 41.9292 3.11801C40.7015 4.7853 40.3271 6.52144 40.3271 10.5482V12.026C40.3271 14.4559 40.3272 17.2099 41.9291 19.3992C43.0962 20.9887 44.5719 21.7614 46.4402 21.7614C48.2758 21.7614 49.7795 20.9663 50.9083 19.3987C52.3916 17.3686 52.5097 14.9864 52.5097 12.083V9.46801C52.5097 6.5483 52.0307 4.64944 50.908 3.1183C49.7405 1.52844 48.2649 0.755585 46.3968 0.755585ZM44.5556 11.7987V10.4059C44.5556 8.35401 44.7354 7.00316 45.088 6.39487C45.3938 5.89387 45.8661 5.61787 46.4184 5.61787C46.9707 5.61787 47.4432 5.89387 47.7464 6.39087C48.1015 7.00344 48.2813 8.3543 48.2813 10.4059V11.7987C48.2813 14.3186 48.1417 15.4427 47.7488 16.0939C47.4412 16.5983 46.9438 16.8994 46.4184 16.8994C45.8929 16.8994 45.3958 16.5983 45.0886 16.0947C44.6951 15.443 44.5556 14.3189 44.5556 11.7987Z" fill="#2062AF"/>
<path d="M59.94 0.9263H53.8281C53.7077 0.9263 53.6104 1.02216 53.6104 1.14044V21.377C53.6104 21.4954 53.7077 21.5912 53.8281 21.5912H57.6208C57.7411 21.5912 57.8385 21.4954 57.8385 21.377V14.3719H59.94C63.1176 14.3719 65.4243 11.5446 65.4243 7.64901C65.4243 3.75373 63.1176 0.9263 59.94 0.9263ZM57.8385 5.81687H59.7665C60.5949 5.81687 61.196 6.5873 61.196 7.64901C61.196 8.71087 60.5949 9.48144 59.7665 9.48144H57.8385V5.81687Z" fill="#2062AF"/>
<path d="M70.3425 0.9263H66.5498C66.4294 0.9263 66.332 1.02216 66.332 1.14044V21.377C66.332 21.4953 66.4294 21.5912 66.5498 21.5912H70.3425C70.4627 21.5912 70.5602 21.4953 70.5602 21.377V1.14044C70.5602 1.02216 70.4627 0.9263 70.3425 0.9263Z" fill="#2062AF"/>
<path d="M81.6824 10.9016C82.7711 9.91058 83.4137 8.36644 83.4137 6.71101C83.4137 3.20459 81.0783 0.755585 77.7344 0.755585C74.4686 0.755585 72.2084 3.24844 71.6882 7.42401C71.6806 7.48487 71.7 7.54601 71.7412 7.59187C71.7827 7.63787 71.842 7.66416 71.9043 7.66416H75.6754C75.7772 7.66416 75.8654 7.59473 75.8879 7.49715C76.2079 6.09858 76.7878 5.44716 77.7128 5.44716C78.6205 5.44716 79.2072 6.0883 79.2072 7.08044C79.2072 8.15673 78.6567 8.79915 77.7344 8.79915H75.697C75.5767 8.79915 75.4793 8.89501 75.4793 9.0133V13.0492C75.4793 13.1674 75.5767 13.2633 75.697 13.2633H77.7344C79.0949 13.2633 79.3805 14.306 79.3805 15.1809C79.3805 16.3282 78.749 17.0133 77.691 17.0133C76.7571 17.0133 76.1772 16.3799 75.8661 15.0203C75.8439 14.9226 75.7556 14.8532 75.6536 14.8532H71.8825C71.8202 14.8532 71.761 14.8793 71.7196 14.9253C71.6783 14.9713 71.6589 15.0323 71.6666 15.0933C72.1867 19.2687 74.4471 21.7614 77.7128 21.7614C81.1969 21.7614 83.6304 19.1256 83.6304 15.3514C83.6304 13.4724 82.9073 11.8327 81.6824 10.9016Z" fill="#2062AF"/>
<path d="M91.3872 8.14559H89.1775V1.14044C89.1775 1.0223 89.0801 0.9263 88.9598 0.9263H85.167C85.0465 0.9263 84.9492 1.0223 84.9492 1.14044V21.377C84.9492 21.4954 85.0465 21.5913 85.167 21.5913H91.3872C94.5525 21.5913 96.7631 18.8266 96.7631 14.8683C96.7631 10.9102 94.5525 8.14559 91.3872 8.14559ZM92.5347 14.8683C92.5347 15.9292 91.9203 16.729 91.1054 16.729H89.1775V13.036H91.1054C91.9335 13.036 92.5347 13.8066 92.5347 14.8683Z" fill="#2062AF"/>
<path d="M106.106 10.5499L110.614 1.23244C110.646 1.16602 110.641 1.08816 110.601 1.02602C110.561 0.963873 110.492 0.9263 110.417 0.9263H106.06C105.973 0.9263 105.894 0.977443 105.86 1.0563L102.117 9.6723V1.14044C102.117 1.02216 102.02 0.9263 101.899 0.9263H98.1066C97.986 0.9263 97.8888 1.02216 97.8888 1.14044V21.377C97.8888 21.4953 97.986 21.5912 98.1066 21.5912H101.899C102.02 21.5912 102.117 21.4953 102.117 21.377V11.8333L106.25 21.4602C106.284 21.5397 106.363 21.5912 106.451 21.5912H110.915C110.99 21.5912 111.059 21.5539 111.099 21.4927C111.139 21.4312 111.144 21.354 111.113 21.2877L106.106 10.5499Z" fill="#2062AF"/>
<path d="M120.54 1.08401C120.514 0.990869 120.428 0.926155 120.33 0.926155H117.404C117.306 0.926155 117.22 0.990869 117.194 1.08401L111.581 21.3204C111.563 21.3849 111.576 21.4539 111.618 21.507C111.659 21.5599 111.723 21.5912 111.791 21.5912H115.757C115.857 21.5912 115.944 21.524 115.969 21.4284L116.686 18.5783H121.089L121.765 21.4257C121.788 21.5224 121.876 21.5912 121.978 21.5912H125.944C126.011 21.5912 126.075 21.5599 126.117 21.507C126.158 21.4539 126.172 21.3849 126.154 21.3204L120.54 1.08401ZM119.99 14.0004H117.857L118.958 9.71515L119.99 14.0004Z" fill="#2062AF"/>
<path d="M142.415 0.9263H130.798C130.678 0.9263 130.58 1.02216 130.58 1.14044V21.377C130.58 21.4953 130.678 21.5912 130.798 21.5912H134.591C134.711 21.5912 134.809 21.4953 134.809 21.377V5.78844H138.404V21.377C138.404 21.4953 138.502 21.5912 138.622 21.5912H142.415C142.535 21.5912 142.632 21.4953 142.632 21.377V1.14044C142.632 1.02216 142.535 0.9263 142.415 0.9263Z" fill="#2062AF"/>
<path d="M149.803 0.755585C147.967 0.755585 146.463 1.55101 145.335 3.11801C144.107 4.7853 143.733 6.52144 143.733 10.5482V12.026C143.733 14.4559 143.733 17.2099 145.335 19.399C146.502 20.9887 147.978 21.7614 149.846 21.7614C151.682 21.7614 153.185 20.9663 154.314 19.3987C155.798 17.3686 155.916 14.9864 155.916 12.083V9.46801C155.916 6.5483 155.437 4.6493 154.314 3.1183C153.147 1.52844 151.671 0.755585 149.803 0.755585ZM147.961 11.7987V10.4059C147.961 8.3543 148.141 7.00344 148.494 6.39501C148.8 5.89387 149.272 5.61787 149.824 5.61787C150.377 5.61787 150.849 5.89387 151.152 6.39087C151.507 7.00344 151.687 8.3543 151.687 10.4059V11.7987C151.687 14.3186 151.548 15.4427 151.155 16.0939C150.847 16.5983 150.35 16.8994 149.824 16.8994C149.299 16.8994 148.801 16.5983 148.495 16.0947C148.101 15.4427 147.961 14.3186 147.961 11.7987Z" fill="#2062AF"/>
<path d="M169.203 0.9263H159.06C158.94 0.9263 158.842 1.02216 158.842 1.14044V10.8609C158.842 16.2756 157.78 16.729 156.784 16.729H156.329C156.209 16.729 156.111 16.825 156.111 16.9432V21.377C156.111 21.4953 156.209 21.5912 156.329 21.5912H157.781C161.049 21.5912 162.941 19.8353 162.941 10.8609V5.78844H165.193V21.377C165.193 21.4953 165.29 21.5912 165.41 21.5912H169.203C169.324 21.5912 169.421 21.4953 169.421 21.377V1.14044C169.421 1.02216 169.324 0.9263 169.203 0.9263Z" fill="#2062AF"/>
<path d="M174.596 0.9263H170.803C170.682 0.9263 170.585 1.02216 170.585 1.14044V21.377C170.585 21.4953 170.682 21.5912 170.803 21.5912H174.596C174.716 21.5912 174.813 21.4953 174.813 21.377V1.14044C174.813 1.02216 174.716 0.9263 174.596 0.9263Z" fill="#2062AF"/>
<path d="M187.535 0.9263H176.156C176.036 0.9263 175.938 1.02216 175.938 1.14044V5.5743C175.938 5.69244 176.036 5.78844 176.156 5.78844H179.731V21.377C179.731 21.4953 179.829 21.5912 179.949 21.5912H183.742C183.862 21.5912 183.959 21.4953 183.959 21.377V5.78844H187.535C187.655 5.78844 187.752 5.69244 187.752 5.5743V1.14044C187.752 1.02216 187.655 0.9263 187.535 0.9263Z" fill="#2062AF"/>
<path d="M199.585 0.9263H189.095C188.974 0.9263 188.877 1.02216 188.877 1.14044V21.377C188.877 21.4953 188.974 21.5912 189.095 21.5912H199.585C199.705 21.5912 199.802 21.4953 199.802 21.377V16.9432C199.802 16.825 199.705 16.729 199.585 16.729H193.106V13.6044H198.609C198.73 13.6044 198.827 13.5086 198.827 13.3903V8.95644C198.827 8.8383 198.73 8.7423 198.609 8.7423H193.106V5.78844H199.585C199.705 5.78844 199.802 5.69244 199.802 5.5743V1.14044C199.802 1.02216 199.705 0.9263 199.585 0.9263Z" fill="#2062AF"/>
<path d="M209.448 11.0023L213.916 1.22844C213.946 1.16202 213.94 1.08516 213.9 1.02416C213.86 0.963159 213.791 0.9263 213.717 0.9263H209.404C209.314 0.9263 209.233 0.980586 209.201 1.06301L207.15 6.26144L205.099 1.06301C205.066 0.980586 204.986 0.9263 204.896 0.9263H200.583C200.509 0.9263 200.44 0.963159 200.4 1.02416C200.36 1.08516 200.354 1.16202 200.384 1.22844L204.852 11.0023L200.081 21.2883C200.051 21.3544 200.056 21.4316 200.096 21.4929C200.136 21.5542 200.205 21.5913 200.279 21.5913H204.614C204.703 21.5913 204.783 21.5379 204.816 21.4567L207.15 15.7284L209.483 21.4567C209.517 21.5379 209.596 21.5913 209.686 21.5913H214.02C214.094 21.5913 214.163 21.5542 214.203 21.4929C214.243 21.4316 214.249 21.3544 214.218 21.2883L209.448 11.0023Z" fill="#2062AF"/>
<path d="M226.548 0.9263H222.755C222.634 0.9263 222.537 1.02216 222.537 1.14044V8.71402H218.941V1.14044C218.941 1.02216 218.844 0.9263 218.724 0.9263H214.931C214.81 0.9263 214.713 1.02216 214.713 1.14044V21.377C214.713 21.4953 214.81 21.5912 214.931 21.5912H218.724C218.844 21.5912 218.941 21.4953 218.941 21.377V13.576H222.537V21.377C222.537 21.4953 222.634 21.5912 222.755 21.5912H226.548C226.668 21.5912 226.765 21.4953 226.765 21.377V1.14044C226.765 1.02216 226.668 0.9263 226.548 0.9263Z" fill="#2062AF"/>
<path d="M231.893 0.972584H228.101C227.98 0.972584 227.883 1.06844 227.883 1.18673V21.4233C227.883 21.5416 227.98 21.6374 228.101 21.6374H231.893C232.014 21.6374 232.111 21.5416 232.111 21.4233V1.18673C232.111 1.06844 232.013 0.972584 231.893 0.972584Z" fill="#2062AF"/>
<path d="M241.417 10.5962L245.925 1.27872C245.957 1.21229 245.952 1.13444 245.912 1.07229C245.873 1.01015 245.803 0.97258 245.728 0.97258H241.372C241.285 0.97258 241.206 1.02372 241.172 1.10244L237.429 9.71858V1.18672C237.429 1.06844 237.331 0.97258 237.211 0.97258H233.418C233.298 0.97258 233.2 1.06844 233.2 1.18672V21.4233C233.2 21.5416 233.298 21.6374 233.418 21.6374H237.211C237.331 21.6374 237.429 21.5416 237.429 21.4233V11.8796L241.562 21.5066C241.596 21.5859 241.674 21.6374 241.762 21.6374H246.227C246.301 21.6374 246.37 21.6002 246.41 21.5389C246.45 21.4773 246.456 21.4002 246.425 21.334L241.417 10.5962Z" fill="#2062AF"/>
<path d="M261.503 21.3204L255.89 1.08401C255.864 0.990869 255.778 0.926155 255.68 0.926155H252.754C252.656 0.926155 252.57 0.990869 252.544 1.08401L246.93 21.3204C246.912 21.3849 246.926 21.4539 246.967 21.507C247.008 21.5599 247.073 21.5912 247.14 21.5912H251.107C251.207 21.5912 251.294 21.524 251.318 21.4284L252.036 18.5783H256.439L257.115 21.4257C257.138 21.5224 257.225 21.5912 257.327 21.5912H261.293C261.361 21.5912 261.425 21.5599 261.466 21.507C261.507 21.4539 261.521 21.3849 261.503 21.3204ZM255.339 14.0004H253.207L254.307 9.71515L255.339 14.0004Z" fill="#2062AF"/>
</svg>
