<svg width="30" height="30" viewBox="0 0 30 30" fill="none" xmlns="http://www.w3.org/2000/svg">
<g clip-path="url(#clip0_169_164)">
<path d="M20.3755 20.2854C19.8835 20.2559 18.7004 20.3259 17.5156 20.5511C16.8302 19.8574 16.2367 18.9835 15.7964 18.2628C17.2072 14.2062 16.3138 13.0532 15.1111 13.0532C14.1666 13.0532 13.695 14.05 13.8 15.1512C13.853 15.7055 14.3225 16.8703 14.9004 17.9767C14.5459 18.9091 13.9132 20.4849 13.2853 21.6253C12.5502 21.8487 11.9197 22.0969 11.4673 22.3063C9.21348 23.3544 9.03237 24.7539 9.50135 25.347C10.3918 26.4735 12.289 25.5015 14.1927 22.0969C15.496 21.7263 17.2108 21.2325 17.3653 21.2325C17.3831 21.2325 17.4076 21.2382 17.4359 21.2473C18.386 22.0851 19.5081 23.0444 20.4317 23.1707C21.7681 23.3544 22.5288 22.3852 22.4761 21.7825C22.4238 21.1794 22.0715 20.3873 20.3755 20.2854ZM11.9389 23.9579C11.3881 24.6128 10.4972 25.2411 10.1827 25.0321C9.86791 24.8227 9.81565 24.22 10.5237 23.5382C11.2313 22.8571 12.4157 22.5036 12.5938 22.4374C12.8041 22.359 12.8564 22.4374 12.8564 22.5423C12.8564 22.6472 12.4893 23.3021 11.9389 23.9579ZM14.3507 15.1507C14.2981 14.4949 14.4287 13.8662 14.9795 13.7878C15.5295 13.7086 15.7921 14.3378 15.5826 15.3598C15.3727 16.383 15.2673 17.0637 15.1628 17.1434C15.0579 17.2218 14.9538 16.9591 14.9538 16.9591C14.7436 16.5393 14.403 15.8056 14.3507 15.1507ZM14.5606 21.3104C14.8484 20.8379 15.5826 18.9255 15.5826 18.9255C15.7398 19.2142 16.9712 20.6808 16.9712 20.6808C16.9712 20.6808 15.084 21.101 14.5606 21.3104ZM20.2732 22.1482C19.4872 22.0446 18.1508 21.0997 18.1508 21.0997C17.9676 21.0213 19.6152 20.7975 20.2479 20.838C21.0609 20.8907 21.3491 21.2316 21.3491 21.5722C21.3491 21.9131 21.0609 22.2532 20.2732 22.1482Z" fill="#16295B"/>
<path d="M27.0312 6.3082L21.2691 0.545625L20.7234 0H19.951H8.19978C5.4252 0 3.16793 2.25773 3.16793 5.03326V5.41822H2.42285V11.4377H3.16793V24.9673C3.16793 27.7423 5.42525 30.0001 8.19984 30.0001H22.5441C25.3195 30.0001 27.5769 27.7423 27.5769 24.9673V7.62627V6.85424L27.0312 6.3082ZM22.544 28.1363H8.19978C6.4493 28.1363 5.03068 26.7176 5.03068 24.9672V11.4377H14.2481V5.41816H5.03068V5.0332C5.03068 3.2823 6.4493 1.86316 8.19978 1.86316H19.5051V5.43117C19.5051 6.88945 20.6882 8.0717 22.1464 8.0717H25.714V24.9671C25.714 26.7177 24.2949 28.1363 22.544 28.1363ZM5.16135 9.7316V6.94523C5.16135 6.89607 5.20137 6.85594 5.25064 6.85594H6.13588C6.28178 6.85594 6.41631 6.8799 6.53648 6.92695C6.65537 6.97354 6.75984 7.03887 6.84697 7.1216C6.93492 7.20475 7.00242 7.30582 7.04812 7.42166C7.09383 7.53527 7.11738 7.65943 7.11738 7.79045C7.11738 7.92416 7.09383 8.04908 7.04766 8.16146C7.00195 8.27385 6.93445 8.37352 6.84738 8.4576C6.76072 8.54121 6.65578 8.60695 6.5356 8.65266C6.41631 8.69836 6.28178 8.72144 6.13588 8.72144H5.76228V9.73166C5.76228 9.78088 5.72227 9.8209 5.67305 9.8209H5.2507C5.20137 9.8209 5.16135 9.78082 5.16135 9.7316ZM7.89152 9.7316V6.94523C7.89152 6.89607 7.9316 6.85594 7.98082 6.85594H8.95922C9.14514 6.85594 9.30891 6.88687 9.44695 6.94781C9.58676 7.01004 9.71168 7.10895 9.81885 7.24131C9.87416 7.31098 9.9181 7.38803 9.94986 7.47076C9.9808 7.55133 10.0043 7.63846 10.0195 7.72898C10.0344 7.81869 10.043 7.91537 10.0461 8.01943C10.0487 8.11869 10.05 8.22539 10.05 8.33859C10.05 8.45133 10.0487 8.55809 10.0461 8.65734C10.043 8.761 10.0344 8.85809 10.0195 8.9482C10.0043 9.03879 9.9808 9.12545 9.94986 9.20596C9.91764 9.28957 9.87369 9.36668 9.8192 9.435C9.71127 9.56871 9.58623 9.66756 9.44689 9.72891C9.31014 9.78984 9.14602 9.82078 8.95916 9.82078H7.98076C7.93154 9.8209 7.89152 9.78082 7.89152 9.7316ZM12.5546 8.08482C12.6039 8.08482 12.6439 8.1249 12.6439 8.17412V8.55381C12.6439 8.60303 12.6039 8.64311 12.5546 8.64311H11.4857V9.73172C11.4857 9.78094 11.4456 9.82096 11.3964 9.82096H10.974C10.9247 9.82096 10.8847 9.78094 10.8847 9.73172V6.94535C10.8847 6.89619 10.9247 6.85605 10.974 6.85605H12.5943C12.6434 6.85605 12.6836 6.89613 12.6836 6.94535V7.32504C12.6836 7.37426 12.6435 7.41434 12.5943 7.41434H11.4857V8.08488L12.5546 8.08482Z" fill="#16295B"/>
<path d="M6.41102 8.06868C6.48203 8.00469 6.51637 7.9137 6.51637 7.79041C6.51637 7.6676 6.48197 7.57661 6.41102 7.51262C6.33701 7.44641 6.23945 7.41418 6.1123 7.41418H5.76221V8.167H6.1123C6.23939 8.16706 6.33701 8.13489 6.41102 8.06868Z" fill="#16295B"/>
<path d="M9.14881 9.22739C9.21502 9.20254 9.27203 9.16252 9.32301 9.10504C9.37832 9.04323 9.41313 8.9544 9.42666 8.84073C9.44189 8.71135 9.44928 8.54243 9.44928 8.33864C9.44928 8.13444 9.44189 7.96545 9.42666 7.83655C9.41313 7.72252 9.37832 7.6337 9.32342 7.57229C9.2725 7.51475 9.21367 7.47391 9.14928 7.44989C9.08002 7.42334 9.0008 7.41028 8.91244 7.41028H8.49268V9.26653H8.91244C9.00033 9.26659 9.08002 9.25352 9.14881 9.22739Z" fill="#16295B"/>
</g>
<defs>
<clipPath id="clip0_169_164">
<rect width="30" height="30" fill="white"/>
</clipPath>
</defs>
</svg>
