<svg width="655" height="781" viewBox="0 0 655 781" fill="none" xmlns="http://www.w3.org/2000/svg">
<g opacity="0.1">
<path fill-rule="evenodd" clip-rule="evenodd" d="M370.17 617.212C346.667 578.897 244.321 586.521 214.486 505.163C266.591 460.837 277.954 400.992 236.512 349.09C245.263 333.318 258.209 319.274 275.274 306.968C297.601 326.674 346.987 329.219 370.17 316.535C393.314 329.219 442.719 326.674 465.008 306.968C482.102 319.274 495.038 333.318 503.798 349.09C462.357 400.992 473.72 460.837 525.825 505.163C495.989 586.521 393.644 578.897 370.17 617.212" fill="white"/>
<path fill-rule="evenodd" clip-rule="evenodd" d="M394.016 630.153L409.507 640.905C407.283 641.303 405.079 641.663 402.844 641.993C399.893 642.411 396.959 642.76 394.016 643.061V630.153Z" fill="white"/>
<path fill-rule="evenodd" clip-rule="evenodd" d="M346.517 628.444L331.214 640.878C336.42 641.364 341.467 641.79 346.692 642.139L346.537 628.454C346.517 628.454 346.517 628.444 346.517 628.444" fill="white"/>
<path fill-rule="evenodd" clip-rule="evenodd" d="M331.214 640.88L323.366 685.206L322.58 690.46C323.726 690.692 324.853 690.905 325.969 691.11C357.34 695.733 386.514 695.558 417.817 690.585L416.709 683.399L409.415 640.886C389.137 644.558 368.421 643.56 347.87 642.23V642.19C342.393 641.86 336.866 641.403 331.214 640.88" fill="white"/>
<path fill-rule="evenodd" clip-rule="evenodd" d="M394.016 630.153C468.886 617.712 519.232 580.518 547.085 520.186L566.753 543.952L602.61 534.96C581.418 611.151 489.443 666.071 415.67 677.337L409.553 640.936C409.427 640.975 395.143 631.008 394.016 630.153Z" fill="white"/>
<path fill-rule="evenodd" clip-rule="evenodd" d="M346.537 628.454C271.317 616.13 221.856 578.839 193.954 518.341L174.257 542.106L138.42 533.114C159.621 609.352 251.303 664.265 325.086 675.464L331.214 640.878C331.409 640.897 345.332 629.475 346.537 628.454" fill="white"/>
<path fill-rule="evenodd" clip-rule="evenodd" d="M479.021 179.517C473.339 179.517 468.707 183.742 468.707 188.918C468.707 194.085 473.339 198.31 479.021 198.31C484.703 198.31 489.326 194.085 489.326 188.918C489.326 183.742 484.703 179.517 479.021 179.517Z" fill="white"/>
<path fill-rule="evenodd" clip-rule="evenodd" d="M435.531 165.58C429.849 165.58 425.217 169.814 425.217 174.981C425.217 180.158 429.849 184.373 435.531 184.373C441.213 184.373 445.846 180.158 445.846 174.981C445.846 169.814 441.213 165.58 435.531 165.58Z" fill="white"/>
<path fill-rule="evenodd" clip-rule="evenodd" d="M391.691 158.743C386 158.743 381.347 162.968 381.347 168.135C381.347 173.31 386 177.525 391.691 177.525C397.343 177.525 401.996 173.31 401.996 168.135C401.996 162.968 397.343 158.743 391.691 158.743Z" fill="white"/>
<path fill-rule="evenodd" clip-rule="evenodd" d="M348.793 158.743C354.474 158.743 359.107 162.968 359.107 168.135C359.107 173.31 354.474 177.525 348.793 177.525C343.111 177.525 338.488 173.31 338.488 168.135C338.487 162.968 343.111 158.743 348.793 158.743Z" fill="white"/>
<path fill-rule="evenodd" clip-rule="evenodd" d="M261.461 179.517C267.113 179.517 271.766 183.742 271.766 188.918C271.766 194.085 267.113 198.31 261.461 198.31C255.779 198.31 251.118 194.085 251.118 188.918C251.118 183.742 255.779 179.517 261.461 179.517Z" fill="white"/>
<path fill-rule="evenodd" clip-rule="evenodd" d="M304.923 165.58C310.605 165.58 315.266 169.814 315.266 174.981C315.266 180.158 310.605 184.373 304.923 184.373C299.251 184.373 294.619 180.158 294.619 174.981C294.619 169.814 299.251 165.58 304.923 165.58Z" fill="white"/>
<path fill-rule="evenodd" clip-rule="evenodd" d="M370.236 190.774C411.998 190.774 448.943 202.195 481.43 217.074L488.898 204.759C454.77 187.355 415.232 176.905 370.236 176.905C325.221 176.905 285.683 187.355 251.545 204.759L259.033 217.074C291.529 202.195 328.465 190.774 370.236 190.774Z" fill="white"/>
<path fill-rule="evenodd" clip-rule="evenodd" d="M370.236 157.83C324.667 157.558 281.633 167.648 240.862 187.17L212.988 141.241C215.183 140.135 217.417 139.057 219.641 138.008C239.007 176.448 276.602 167.396 259.082 122.595C261.762 121.759 264.433 120.953 267.113 120.166C275.495 153.712 318.16 163.2 312.003 110.348C314.508 109.969 317.014 109.6 319.539 109.26C327.474 153.926 366.788 149.059 364.555 105.676C366.439 105.628 368.342 105.579 370.236 105.55C372.12 105.579 374.014 105.628 375.899 105.676C373.664 149.059 412.979 153.926 420.933 109.26C423.448 109.6 425.964 109.969 428.441 110.348C422.321 163.2 464.958 153.712 473.339 120.166C476.039 120.953 478.72 121.759 481.371 122.595C463.861 167.396 501.437 176.448 520.841 138.008C523.066 139.057 525.289 140.135 527.493 141.241L499.591 187.17C458.849 167.648 415.815 157.558 370.236 157.83" fill="white"/>
<path fill-rule="evenodd" clip-rule="evenodd" d="M120.17 316.786H220.319L184.788 357.29C247.883 402.959 215.9 462.471 163.439 487.309C211.63 445.46 210.882 400.457 155.144 369.79L200.168 324.776H180.613C164.607 324.776 155.674 333.117 150.412 349.275L120.17 316.786Z" fill="white"/>
<path fill-rule="evenodd" clip-rule="evenodd" d="M556.841 328.437C549.495 328.437 548.515 329.761 548.515 335.021V450.391C548.515 455.65 549.495 456.975 556.841 456.975H559.54V459.672V464.082V466.875L513.528 466.869V464.082V459.672V456.975H516.226C523.573 456.975 524.554 455.65 524.554 450.391V338.817L506.734 317.43H513.528H560.814H565.749H613.034H619.829L602.009 338.817V450.391C602.009 455.65 602.989 456.975 610.335 456.975H613.034V459.672V464.082V466.869L567.023 466.875V464.082V459.672V456.975H569.722C577.068 456.975 578.048 455.65 578.048 450.391V335.021C578.048 329.761 577.068 328.437 569.722 328.437H556.841Z" fill="white"/>
<path d="M359.916 296.523V294.05V290.138V287.745H357.522C351.008 287.745 350.139 286.57 350.139 281.904V236.612C350.139 231.944 351.008 230.77 357.522 230.77H359.916V228.377V224.464V221.991L319.102 221.987V224.464V228.377V230.77H321.495C328.011 230.77 328.881 231.944 328.881 236.612V253.364H302.684V236.612C302.684 231.944 303.554 230.77 310.069 230.77H312.463V228.377V224.464V221.987L271.648 221.991V224.464V228.377V230.77H274.042C280.557 230.77 281.427 231.944 281.427 236.612V281.904C281.427 286.57 280.557 287.745 274.042 287.745H271.648V290.138V294.05V296.523L312.463 296.528V294.05V290.138V287.745H310.069C303.554 287.745 302.684 286.57 302.684 281.904V263.092H328.881V281.904C328.881 286.57 328.011 287.745 321.495 287.745H319.102V290.138V294.05V296.528L359.916 296.523Z" fill="white"/>
<path d="M433.004 221.949V224.465V228.377V230.77H435.782C438.493 230.77 441.726 231.14 441.726 232.906C441.726 233.762 440.944 236.272 435.698 243.471L428.681 252.96L417.814 235.612C416.969 234.149 416.582 232.906 416.571 232.594C416.571 230.947 421.147 230.77 423.114 230.77H425.893V228.377V224.465V221.988L379.108 221.983V224.465V228.377V230.77H381.886C384.375 230.77 387.209 231.223 389.376 234.584L413.941 272.91C404.921 285.944 401.396 286.098 401.245 286.098C400.737 286.098 400.089 285.322 399.159 284.137C397.52 282.051 395.041 278.893 389.655 278.893C383.878 278.893 380.303 283.074 380.303 286.948C380.303 292.3 385.925 297.987 396.348 297.987C407.808 297.987 414.958 290.347 420.444 282.874L457.487 232.542C458.115 231.676 460.139 230.77 462.669 230.77H465.448V228.377V224.465V221.93L433.004 221.949Z" fill="white"/>
<path d="M370.171 618.211C369.823 618.211 369.5 618.031 369.318 617.734C360.25 602.95 339.127 595.113 314.67 586.035C277.75 572.333 231.8 555.281 213.547 505.507C213.403 505.114 213.519 504.672 213.838 504.401C267.248 458.964 275.637 399.692 235.731 349.714C235.478 349.397 235.441 348.959 235.638 348.604C244.406 332.802 257.544 318.52 274.689 306.157C275.068 305.883 275.586 305.908 275.936 306.218C298.415 326.058 347.09 328.023 369.69 315.657C369.99 315.493 370.353 315.493 370.651 315.657C381.751 321.741 399.387 324.449 417.826 322.901C437.243 321.27 454.199 315.19 464.346 306.219C464.695 305.908 465.214 305.883 465.592 306.156C482.735 318.496 495.883 332.778 504.672 348.604C504.87 348.959 504.833 349.397 504.58 349.714C464.674 399.692 473.063 458.964 526.474 504.401C526.792 504.672 526.909 505.114 526.764 505.507C508.512 555.278 462.571 572.33 425.656 586.033C401.201 595.11 380.081 602.95 371.023 617.734C370.841 618.031 370.518 618.211 370.171 618.211M215.666 505.47C233.749 553.87 277.099 569.959 315.366 584.16C339.45 593.099 360.345 600.852 370.17 615.366C379.986 600.852 400.879 593.096 424.959 584.158C463.22 569.955 506.564 553.867 524.646 505.47C470.989 459.477 462.553 399.627 502.598 348.992C494.066 333.855 481.443 320.15 465.065 308.243C441.949 327.965 393.302 329.955 370.17 317.67C347.028 329.939 298.351 327.947 275.218 308.243C258.838 320.172 246.224 333.877 237.713 348.992C277.758 399.627 269.322 459.477 215.666 505.47" fill="#2062AF"/>
<path d="M163.439 488.309C163.111 488.309 162.792 488.147 162.601 487.856C162.329 487.438 162.406 486.881 162.783 486.554C187.431 465.151 199.29 442.855 197.078 422.079C195.001 402.569 180.334 384.791 154.663 370.666C154.387 370.515 154.199 370.242 154.154 369.931C154.11 369.619 154.215 369.305 154.437 369.083L197.753 325.776H180.614C165.747 325.776 156.726 333.119 151.363 349.584C151.254 349.921 150.974 350.174 150.628 350.251C150.283 350.327 149.922 350.215 149.681 349.956L119.438 317.467C119.167 317.176 119.095 316.751 119.253 316.387C119.413 316.021 119.772 315.786 120.17 315.786H220.32C220.712 315.786 221.069 316.016 221.231 316.373C221.393 316.73 221.331 317.15 221.072 317.445L186.261 357.127C210.727 375.141 222.53 396.749 220.411 419.674C217.92 446.617 196.254 472.879 163.867 488.213C163.729 488.278 163.583 488.309 163.439 488.309M156.789 369.56C182.34 383.912 196.95 401.978 199.067 421.867C201.176 441.68 191.023 462.718 169.641 483.031C197.693 467.712 216.166 443.86 218.419 419.491C220.495 397.033 208.663 375.805 184.202 358.1C183.974 357.935 183.826 357.681 183.794 357.401C183.763 357.121 183.851 356.842 184.036 356.63L218.112 317.786H122.467L150.003 347.367C155.739 331.069 165.236 323.776 180.614 323.776H200.168C200.572 323.776 200.937 324.02 201.092 324.393C201.247 324.767 201.161 325.197 200.875 325.483L156.789 369.56Z" fill="#2062AF"/>
<path d="M567.022 467.874C566.757 467.874 566.502 467.769 566.315 467.581C566.127 467.394 566.022 467.14 566.022 466.874V456.974C566.022 456.421 566.469 455.974 567.022 455.974H569.721C576.779 455.974 577.047 454.908 577.047 450.39V335.02C577.047 330.503 576.779 329.436 569.721 329.436H556.84C549.783 329.436 549.514 330.503 549.514 335.02V450.39C549.514 454.908 549.783 455.974 556.84 455.974H559.54C560.092 455.974 560.54 456.421 560.54 456.974V466.874C560.54 467.14 560.434 467.394 560.247 467.581C560.059 467.769 559.805 467.874 559.54 467.874L513.528 467.869C512.975 467.869 512.528 467.42 512.528 466.869V456.974C512.528 456.421 512.975 455.974 513.528 455.974H516.225C523.285 455.974 523.553 454.908 523.553 450.39V339.178L505.964 318.07C505.716 317.772 505.663 317.357 505.828 317.005C505.992 316.654 506.345 316.43 506.733 316.43H619.829C620.216 316.43 620.57 316.654 620.734 317.005C620.899 317.357 620.845 317.772 620.597 318.07L603.008 339.178V450.39C603.008 454.908 603.277 455.974 610.335 455.974H613.034C613.586 455.974 614.034 456.421 614.034 456.974V466.869C614.034 467.42 613.586 467.869 613.034 467.869L567.022 467.874ZM568.022 457.974V465.874L612.034 465.869V457.974H610.335C602.294 457.974 601.008 456.173 601.008 450.39V338.816C601.008 338.582 601.09 338.356 601.24 338.176L617.694 318.43H508.868L525.322 338.176C525.471 338.356 525.553 338.582 525.553 338.816V450.39C525.553 456.928 523.338 457.974 516.225 457.974H514.528V465.869L558.54 465.874V457.974H556.84C548.8 457.974 547.514 456.173 547.514 450.39V335.02C547.514 328.482 549.729 327.436 556.84 327.436H569.721C577.761 327.436 579.047 329.237 579.047 335.02V450.39C579.047 456.928 576.832 457.974 569.721 457.974H568.022Z" fill="#2062AF"/>
<path d="M318.002 297.628V286.645H321.495C327.78 286.645 327.78 285.64 327.78 281.904V264.192H303.783V281.904C303.783 285.64 303.783 286.645 310.069 286.645H313.562V297.628L270.548 297.623V286.645H274.041C280.326 286.645 280.326 285.64 280.326 281.904V236.612C280.326 232.698 280.115 231.87 274.041 231.87H270.548V220.891L313.562 220.887V231.87H310.069C303.783 231.87 303.783 232.875 303.783 236.612V252.264H327.78V236.612C327.78 232.875 327.78 231.87 321.495 231.87H318.002V220.887L361.016 220.891V231.87H357.522C351.238 231.87 351.238 232.875 351.238 236.612V281.904C351.238 285.64 351.238 286.645 357.522 286.645H361.016V297.623L318.002 297.628ZM272.748 295.423L311.362 295.428V288.845H310.069C303.248 288.845 301.583 287.483 301.583 281.904V261.992H329.98V281.904C329.98 287.483 328.315 288.845 321.495 288.845H320.202V295.428L358.815 295.423V288.845H357.522C350.703 288.845 349.038 287.483 349.038 281.904V236.612C349.038 231.032 350.703 229.67 357.522 229.67H358.815V223.091L320.202 223.087V229.67H321.495C328.315 229.67 329.98 231.032 329.98 236.612V254.464H301.583V236.612C301.583 231.032 303.248 229.67 310.069 229.67H311.362V223.087L272.748 223.091V229.67H274.041C280.861 229.67 282.526 231.032 282.526 236.612V281.904C282.526 287.483 280.861 288.845 274.041 288.845H272.748V295.423Z" fill="#2062AF"/>
<path d="M396.347 299.087C385.212 299.087 379.203 292.832 379.203 286.948C379.203 282.545 383.199 277.793 389.655 277.793C395.573 277.793 398.358 281.337 400.022 283.455C400.354 283.878 401.008 284.71 401.338 284.97C401.925 284.773 405.342 283.271 412.618 272.884L388.45 235.177C386.576 232.271 384.187 231.87 381.886 231.87H378.008V220.883L426.992 220.888V231.87H423.114C419.803 231.87 418.089 232.338 417.69 232.668C417.773 232.96 418.106 233.919 418.765 235.061L428.756 251.008L434.813 242.817C440.345 235.226 440.626 233.229 440.626 232.906C440.626 232.687 439.804 231.87 435.782 231.87H431.904V220.85L466.548 220.829V231.87H462.669C460.311 231.87 458.711 232.728 458.378 233.187L421.33 283.525C415.681 291.22 408.296 299.087 396.347 299.087M389.655 279.993C384.557 279.993 381.402 283.603 381.402 286.948C381.402 291.766 386.64 296.887 396.347 296.887C407.314 296.887 414.234 289.474 419.557 282.223L456.601 231.89C457.547 230.585 460.044 229.67 462.669 229.67H464.348V223.03L434.103 223.048V229.67H435.782C440.456 229.67 442.825 230.759 442.825 232.906C442.825 234.665 440.726 238.438 436.587 244.119L428.605 254.911L416.881 236.196C415.985 234.646 415.492 233.211 415.471 232.631C415.471 230.626 417.971 229.67 423.114 229.67H424.793V223.088L380.207 223.083V229.67H381.886C384.507 229.67 387.833 230.161 390.301 233.987L415.262 272.933L414.845 273.536C406.072 286.213 402.218 287.198 401.245 287.198C400.216 287.198 399.453 286.293 398.294 284.816C396.693 282.78 394.504 279.993 389.655 279.993" fill="#2062AF"/>
<path d="M394.016 644.061C393.77 644.061 393.531 643.97 393.346 643.803C393.136 643.614 393.016 643.344 393.016 643.061V630.153C393.016 629.781 393.223 629.439 393.552 629.267C393.884 629.095 394.281 629.121 394.586 629.332L410.077 640.084C410.409 640.314 410.571 640.722 410.484 641.118C410.398 641.513 410.082 641.818 409.684 641.889C407.457 642.288 405.269 642.645 402.991 642.982C400.135 643.386 397.235 643.737 394.118 644.056C394.083 644.059 394.05 644.061 394.016 644.061M395.016 632.064V641.952C397.694 641.667 400.219 641.355 402.703 641.003C404.137 640.791 405.537 640.571 406.934 640.337L395.016 632.064Z" fill="#2062AF"/>
<path d="M346.692 643.139C346.67 643.139 346.647 643.138 346.625 643.137C341.875 642.819 336.949 642.418 331.121 641.874C330.716 641.836 330.375 641.556 330.257 641.168C330.139 640.779 330.268 640.358 330.583 640.101L345.887 627.668C346.187 627.424 346.599 627.377 346.947 627.541C346.953 627.544 346.959 627.546 346.965 627.55C347.299 627.709 347.532 628.047 347.537 628.442L347.692 642.128C347.695 642.407 347.582 642.674 347.379 642.866C347.193 643.042 346.947 643.139 346.692 643.139M333.749 640.106C338.097 640.5 341.959 640.81 345.68 641.068L345.56 630.51L333.749 640.106Z" fill="#2062AF"/>
<path d="M370.258 695.45C355.626 695.45 340.977 694.333 325.823 692.1C324.666 691.888 323.532 691.674 322.38 691.44C321.859 691.334 321.511 690.838 321.59 690.311L322.377 685.058L330.229 640.705C330.319 640.193 330.781 639.83 331.306 639.884C337.767 640.482 343.049 640.898 347.93 641.192C348.027 641.198 348.121 641.218 348.209 641.249C369.06 642.595 389.416 643.491 409.237 639.901C409.496 639.854 409.769 639.914 409.988 640.066C410.207 640.22 410.355 640.454 410.4 640.717L417.694 683.23L418.804 690.433C418.888 690.976 418.516 691.486 417.973 691.572C401.692 694.159 385.985 695.45 370.258 695.45M323.709 689.665C324.53 689.826 325.342 689.978 326.149 690.127C357.02 694.676 385.824 694.56 416.675 689.752L415.72 683.552L408.599 642.046C388.791 645.484 368.533 644.568 347.805 643.227C347.71 643.222 347.62 643.202 347.535 643.172C342.942 642.892 337.988 642.505 332.038 641.96L324.351 685.381L323.709 689.665Z" fill="#2062AF"/>
<path d="M415.669 678.337C415.189 678.337 414.766 677.99 414.684 677.503L408.637 641.516C407.67 640.932 405.756 639.601 401.589 636.701C398.046 634.236 394.019 631.411 393.411 630.95C393.093 630.708 392.95 630.301 393.045 629.913C393.141 629.525 393.458 629.232 393.852 629.167C430.729 623.039 462.269 610.641 487.596 592.318C512.59 574.236 532.3 549.827 546.177 519.767C546.322 519.455 546.616 519.239 546.956 519.195C547.294 519.148 547.636 519.283 547.856 519.549L567.121 542.829L602.367 533.99C602.71 533.902 603.076 534.007 603.325 534.261C603.575 534.516 603.668 534.884 603.574 535.227C591.083 580.133 556.363 612.263 529.435 631.311C495.448 655.353 454.037 672.489 415.822 678.325C415.77 678.333 415.719 678.337 415.669 678.337M409.971 640.028C410.007 640.045 410.043 640.063 410.078 640.085C410.323 640.236 410.492 640.486 410.539 640.77L416.493 676.197C454.141 670.266 494.826 653.343 528.281 629.679C554.61 611.054 588.455 579.824 601.173 536.351L566.996 544.922C566.621 545.016 566.228 544.885 565.983 544.59L547.324 522.043C533.338 551.759 513.644 575.942 488.768 593.939C463.735 612.049 432.719 624.424 396.553 630.735C400.527 633.537 409.122 639.517 409.971 640.028" fill="#2062AF"/>
<path d="M325.086 676.464C325.036 676.464 324.986 676.46 324.935 676.452C286.748 670.656 245.386 653.541 211.456 629.494C184.597 610.46 149.957 578.335 137.456 533.382C137.36 533.039 137.454 532.671 137.703 532.416C137.952 532.161 138.317 532.057 138.662 532.145L173.889 540.984L193.183 517.703C193.402 517.439 193.744 517.305 194.082 517.35C194.423 517.394 194.717 517.61 194.861 517.922C223.286 579.552 272.952 615.385 346.698 627.467C347.083 627.53 347.395 627.812 347.5 628.187C347.604 628.563 347.48 628.965 347.183 629.217C346.547 629.756 342.627 632.978 339.128 635.831C334.837 639.329 333.009 640.82 332.128 641.445L326.07 675.639C325.984 676.121 325.564 676.464 325.086 676.464M139.857 534.505C152.584 578.025 186.352 609.251 212.613 627.862C246.012 651.531 286.652 668.435 324.272 674.325L330.229 640.702C330.286 640.385 330.487 640.128 330.755 639.988C331.667 639.359 340.396 632.226 344.216 629.078C307.91 622.852 276.863 610.473 251.912 592.27C227.342 574.344 207.767 550.099 193.714 520.195L175.027 542.743C174.781 543.039 174.386 543.17 174.014 543.075L139.857 534.505Z" fill="#2062AF"/>
<path fill-rule="evenodd" clip-rule="evenodd" d="M372.122 682.913C369.499 683.011 367.489 682.233 366.042 680.583C366.091 682.292 365.615 683.155 364.595 683.194C363.614 683.243 363.119 682.563 363.07 681.175C363.041 680.718 363.07 680.019 363.119 679.077C363.167 678.126 363.187 677.435 363.187 676.989C363.167 676.532 363.09 675.853 362.992 674.958C362.886 674.046 362.818 673.376 362.818 672.919C362.788 672.435 362.915 671.987 363.216 671.579C363.517 671.171 363.886 670.958 364.343 670.929C365.061 670.899 365.547 671.657 365.741 673.171C366.023 675.261 366.391 676.649 366.867 677.368C367.819 678.862 369.596 679.562 372.2 679.466C375.229 679.349 376.706 677.737 376.599 674.647C376.531 672.87 375.376 671.716 373.103 671.181C368.966 670.23 366.867 669.714 366.77 669.646C364.469 668.55 363.264 666.433 363.167 663.304C363.09 660.866 363.74 658.944 365.119 657.536C366.47 656.128 368.325 655.38 370.596 655.292C372.695 655.214 374.471 655.845 375.929 657.187C375.9 655.788 376.279 655.079 377.075 655.05C377.881 655.021 378.299 655.942 378.387 657.827C378.405 658.517 378.387 659.575 378.357 661.003C378.328 662.44 378.299 663.489 378.328 664.198C378.387 665.374 377.959 665.985 377.026 666.024C376.327 666.044 375.871 665.401 375.677 664.081C375.424 662.179 375.123 660.935 374.821 660.353C374.103 659.05 372.724 658.448 370.694 658.526C367.741 658.634 366.314 660.157 366.391 663.081C366.47 664.888 367.644 666.044 369.946 666.548C372.054 666.995 374.18 667.433 376.327 667.868C378.658 668.86 379.852 670.86 379.96 673.843C380.105 678.378 377.551 682.71 372.122 682.913M388.409 647.999C387.341 648.075 386.864 648.679 386.942 649.776L387.262 654.796C387.282 655.341 386.962 655.651 386.233 655.69C386.165 655.71 386.011 655.73 385.805 655.73C385.583 655.749 385.408 655.769 385.292 655.769C384.165 655.855 383.631 656.507 383.718 657.73C383.757 658.661 384.136 659.187 384.835 659.313C385.019 659.37 385.68 659.353 386.913 659.255L387.311 659.438C387.535 660.333 387.71 661.771 387.836 663.741C387.962 665.052 388.069 666.888 388.137 669.21C388.244 671.716 388.311 673.259 388.341 673.853C388.515 676.562 388.991 678.532 389.739 679.767C390.711 681.397 392.343 682.136 394.644 681.962C398.849 681.642 400.753 678.251 400.325 671.792C400.18 669.364 399.5 668.2 398.276 668.296C397.276 668.364 396.819 669.23 396.917 670.899C396.946 671.112 396.975 671.472 397.005 672.007C397.023 672.55 397.053 672.987 397.072 673.298C397.305 676.532 396.499 678.212 394.702 678.339C393.47 678.437 392.643 677.853 392.186 676.591C391.993 675.98 391.846 674.765 391.721 672.958L390.915 660.429C390.866 659.517 390.944 659.003 391.196 658.886C391.371 658.876 391.799 658.876 392.469 658.886C393.148 658.915 393.673 658.905 394.071 658.876C396.13 658.72 397.092 657.972 397.023 656.632C396.946 655.681 396.47 655.136 395.577 655.001C395.071 654.933 394.169 655.001 392.867 655.194C391.74 655.399 391.012 655.399 390.711 655.204C390.672 654.894 390.642 654.302 390.614 653.456C390.546 652.329 390.497 651.581 390.458 651.165C390.312 648.97 389.642 647.911 388.409 647.999M177.133 581.179C178.007 582.306 179.532 582.384 181.707 581.403L205.035 570.894C206.055 570.429 206.803 570.194 207.308 570.194C208.114 570.136 208.813 570.485 209.387 571.233C209.512 571.37 209.639 571.583 209.784 571.903C209.94 572.206 210.086 572.438 210.193 572.575C210.445 572.915 210.814 573.079 211.261 573.069C211.746 573.069 212.135 572.915 212.465 572.603C212.863 572.233 213.087 571.778 213.116 571.214C213.116 570.651 212.961 570.155 212.64 569.72C212.164 569.106 211.387 568.263 210.338 567.175C209.289 566.087 208.512 565.231 208.036 564.63C207.687 564.163 207.211 563.415 206.609 562.386C206.007 561.327 205.54 560.579 205.181 560.124C204.414 559.114 203.511 559.056 202.53 559.958C201.685 560.716 201.685 561.628 202.511 562.687C202.685 562.901 202.937 563.183 203.278 563.522C203.637 563.862 203.88 564.144 204.054 564.358C204.579 565.048 204.54 565.688 203.909 566.261C203.511 566.62 202.899 566.989 202.151 567.368L181.833 577.188L194.304 557.259C194.624 556.733 194.973 556.288 195.401 555.909C196.226 555.171 196.877 555.122 197.373 555.763C197.548 555.966 197.751 556.296 198.004 556.724C198.247 557.151 198.45 557.482 198.625 557.696C199.451 558.765 200.277 558.909 201.131 558.142C202.102 557.259 202.238 556.335 201.481 555.374C201.102 554.888 200.51 554.247 199.655 553.423C198.8 552.607 198.208 551.946 197.829 551.47C197.373 550.878 196.722 549.935 195.926 548.624C195.129 547.304 194.478 546.372 194.022 545.778C193.701 545.341 193.245 545.089 192.721 544.982C192.167 544.886 191.72 545.011 191.322 545.37C190.419 546.177 190.419 547.157 191.322 548.294C191.4 548.401 191.545 548.546 191.749 548.692C191.944 548.849 192.099 548.974 192.147 549.042C192.701 549.761 192.895 550.538 192.672 551.362C192.546 551.839 192.167 552.577 191.575 553.587L177.929 576.226C177.278 577.323 176.861 578.13 176.734 578.634C176.433 579.616 176.559 580.47 177.133 581.179M207.541 585.997L199.849 595.524C199.082 596.495 198.548 597.077 198.247 597.272C197.625 597.69 196.974 597.573 196.304 596.942C196.198 596.845 196.052 596.688 195.896 596.437C195.731 596.185 195.605 596.019 195.498 595.933C194.575 595.058 193.75 595.077 193.051 595.962C192.371 596.776 192.497 597.603 193.4 598.446C193.818 598.835 194.498 599.39 195.479 600.108C196.43 600.827 197.12 601.38 197.548 601.808C197.926 602.138 198.422 602.72 199.101 603.517C199.752 604.323 200.257 604.896 200.636 605.235C201.529 606.071 202.306 606.091 202.957 605.284C203.685 604.382 203.559 603.487 202.578 602.565C202.481 602.468 202.326 602.38 202.102 602.274C201.908 602.167 201.753 602.069 201.656 601.974C200.976 601.341 200.81 600.622 201.131 599.837C201.277 599.478 201.753 598.806 202.53 597.835L212.941 584.909C213.446 584.315 213.718 583.821 213.796 583.442C213.845 583.073 213.621 582.636 213.116 582.169L209.212 578.499C208.891 578.198 208.512 578.071 208.056 578.091C207.638 578.11 207.269 578.294 206.988 578.634C206.386 579.392 206.356 580.042 206.929 580.597C207.055 580.704 207.289 580.878 207.59 581.091C207.891 581.296 208.114 581.47 208.26 581.606C209.318 582.606 209.085 584.073 207.541 585.997M213.922 576.071C213.466 576.653 213.222 577.313 213.194 578.062C213.164 578.79 213.417 579.411 213.971 579.917C214.475 580.401 215.068 580.558 215.738 580.411C216.418 580.257 216.971 579.917 217.418 579.372C217.875 578.78 218.147 578.13 218.166 577.401C218.195 576.673 217.952 576.062 217.448 575.585C216.923 575.089 216.321 574.886 215.651 575.013C214.942 575.138 214.388 575.487 213.922 576.071M214.32 617.298C215.272 618.017 216.243 617.987 217.224 617.192L231.908 605.284C233.385 604.081 234.482 603.741 235.191 604.255C235.318 604.362 235.483 604.536 235.716 604.8C235.939 605.042 236.114 605.226 236.24 605.323C237.318 606.12 238.115 606.081 238.688 605.196C239.319 604.255 239.066 603.372 237.94 602.526C237.464 602.167 236.716 601.7 235.667 601.108C234.589 600.526 233.842 600.05 233.356 599.7C233.006 599.438 232.54 598.981 231.967 598.321C231.365 597.651 230.879 597.204 230.578 596.962C229.762 596.349 229.063 596.476 228.48 597.36C227.878 598.302 228.005 599.089 228.859 599.73C229.005 599.856 229.238 599.981 229.558 600.138C229.879 600.292 230.083 600.409 230.18 600.487C230.462 600.905 230.413 601.419 230.005 602.021C229.684 602.526 227.655 604.353 223.906 607.46C221.604 609.374 219.293 611.267 217.02 613.151C217.875 610.188 218.749 607.208 219.623 604.226C221.051 599.351 221.925 596.661 222.245 596.146C222.653 595.554 223.1 595.339 223.605 595.515C223.731 595.593 223.906 595.767 224.129 596.038C224.372 596.302 224.556 596.485 224.673 596.593C225.528 597.233 226.256 597.077 226.887 596.136C227.451 595.253 227.334 594.505 226.509 593.882C226.179 593.64 225.635 593.329 224.848 592.96C224.081 592.571 223.527 592.271 223.178 591.999C222.701 591.64 222.022 591.026 221.148 590.153C220.274 589.288 219.623 588.677 219.147 588.308C218.04 587.491 217.195 587.55 216.593 588.493C216.02 589.376 216.272 590.212 217.292 590.989C217.418 591.085 217.641 591.212 217.952 591.366C218.273 591.522 218.496 591.649 218.623 591.745C219.273 592.241 219.341 593.456 218.798 595.378L213.466 614.347C213.116 615.618 213.387 616.608 214.32 617.298M260.919 636.286L262.939 631.38C264.192 628.36 265.211 626.253 266.066 625.058C267.775 622.601 269.523 621.815 271.379 622.698C272.049 623.028 272.554 623.601 272.874 624.417C273.204 625.233 273.204 626.011 272.903 626.739C272.719 627.175 272.175 627.448 271.291 627.505C270.417 627.593 269.825 628.011 269.523 628.769C268.873 630.36 269.271 631.507 270.747 632.216C272.806 633.206 274.448 632.206 275.681 629.226C276.448 627.38 276.603 625.603 276.177 623.913C275.7 622.058 274.651 620.728 273 619.94C270.951 618.94 268.902 619.271 266.872 620.931C267.3 619.94 267.494 619.329 267.513 619.075C267.6 618.454 267.241 617.968 266.542 617.628L262.317 615.599C261.21 615.065 260.462 615.337 260.015 616.386C259.734 617.046 259.889 617.608 260.491 618.085C260.647 618.202 261.21 618.493 262.191 618.97C262.987 619.347 263.318 619.97 263.211 620.833C263.191 621.241 262.939 621.999 262.492 623.106L257.665 634.79C257.209 635.937 256.859 636.626 256.655 636.868C256.189 637.411 255.528 637.48 254.703 637.081C253.605 636.548 252.974 636.267 252.887 636.257C252.226 636.13 251.731 636.48 251.401 637.315C250.983 638.296 251.304 639.044 252.333 639.528C252.8 639.763 253.509 640.024 254.46 640.335C255.402 640.636 256.131 640.89 256.587 641.132C257.16 641.394 257.956 641.86 259.005 642.521C260.064 643.181 260.86 643.638 261.443 643.909C262.512 644.435 263.269 644.19 263.667 643.22C264.124 642.132 263.745 641.306 262.512 640.724C261.094 640.034 260.287 639.521 260.141 639.179C260.015 638.839 260.268 637.888 260.919 636.286M418.565 647.114C419.342 650.786 420.673 653.642 422.547 655.71C424.77 658.226 427.5 659.079 430.676 658.284C433.134 657.671 435.036 656.243 436.416 654.001C437.785 651.737 438.164 649.28 437.61 646.601C437.484 646.085 437.241 645.696 436.862 645.415C436.464 645.144 436.037 645.065 435.561 645.183C434.862 645.347 434.454 646.192 434.308 647.677C434.065 649.931 433.833 651.339 433.58 651.94C433.007 653.544 431.85 654.573 430.132 655.001C428.054 655.515 426.227 654.767 424.674 652.757C423.499 651.204 422.624 649.183 422.1 646.706C421.498 643.899 421.421 641.452 421.867 639.374C422.45 636.665 423.897 635.022 426.276 634.431C427.199 634.188 428.102 634.198 428.957 634.45C430.006 634.722 430.637 635.333 430.831 636.286C430.909 636.655 430.705 637.257 430.229 638.073C429.733 638.888 429.55 639.636 429.705 640.315C430.035 641.812 430.85 642.384 432.21 642.044C433.307 641.772 434.114 641.054 434.638 639.897C435.114 638.849 435.212 637.714 434.939 636.489C434.454 634.226 433.24 632.624 431.229 631.683C429.462 630.808 427.48 630.644 425.325 631.177C422.022 631.993 419.846 634.052 418.739 637.315C417.817 640.083 417.768 643.347 418.565 647.114M490.114 613.249L495.591 624.407C496.145 625.544 496.466 626.302 496.553 626.651C496.669 627.438 496.339 628.05 495.553 628.517C495.427 628.583 495.251 628.651 494.97 628.73C494.698 628.808 494.494 628.886 494.397 628.952C493.319 629.565 493.017 630.399 493.542 631.448C493.999 632.401 494.765 632.575 495.824 631.974C496.3 631.683 497.018 631.196 498 630.487C498.942 629.769 499.7 629.263 500.204 628.981C500.622 628.73 501.302 628.419 502.224 628.05C503.157 627.671 503.846 627.36 504.274 627.118C505.333 626.515 505.604 625.728 505.147 624.786C504.634 623.737 503.807 623.544 502.671 624.194C502.546 624.263 502.399 624.378 502.254 624.554C502.079 624.728 501.924 624.855 501.827 624.913C501.03 625.368 500.35 625.292 499.777 624.659C499.524 624.378 499.126 623.659 498.554 622.532L491.114 607.411C490.764 606.702 490.434 606.255 490.134 606.052C489.842 605.858 489.386 605.915 488.812 606.255L484.228 608.888C483.859 609.101 483.606 609.431 483.461 609.888C483.335 610.335 483.354 610.772 483.557 611.161C483.985 612.054 484.558 612.315 485.228 611.917C485.384 611.831 485.588 611.685 485.889 611.452C486.19 611.228 486.413 611.073 486.559 610.976C487.811 610.257 489.016 611.015 490.114 613.249M483.81 603.265C484.16 603.944 484.636 604.431 485.287 604.712C485.908 605.003 486.53 604.954 487.161 604.605C487.763 604.255 488.113 603.722 488.239 602.983C488.337 602.255 488.239 601.556 487.919 600.923C487.589 600.243 487.112 599.749 486.491 599.468C485.889 599.165 485.258 599.194 484.655 599.534C484.034 599.894 483.655 600.438 483.529 601.167C483.384 601.896 483.48 602.595 483.81 603.265M496.572 592.62C495.679 593.251 495.523 594.019 496.067 594.95L498.602 599.165C498.903 599.622 498.728 600.079 498.126 600.487C498.049 600.546 497.923 600.632 497.766 600.739C497.573 600.876 497.427 600.981 497.32 601.05C496.368 601.72 496.222 602.565 496.825 603.585C497.301 604.372 497.874 604.644 498.524 604.382C498.699 604.353 499.302 603.974 500.302 603.255L500.749 603.196C501.331 603.856 502.128 605.032 503.128 606.683C503.827 607.78 504.73 609.315 505.856 611.315C507.061 613.462 507.809 614.763 508.11 615.269C509.479 617.542 510.781 619.026 512.014 619.706C513.588 620.63 515.336 620.415 517.268 619.065C520.794 616.579 520.95 612.616 517.667 607.198C516.443 605.159 515.316 604.487 514.316 605.196C513.462 605.8 513.462 606.8 514.287 608.198C514.413 608.372 514.589 608.685 514.831 609.11C515.141 609.587 515.336 609.946 515.511 610.208C517.142 612.919 517.22 614.812 515.685 615.87C514.666 616.589 513.655 616.511 512.714 615.638C512.266 615.21 511.587 614.23 510.684 612.704L504.332 602.167C503.876 601.409 503.721 600.923 503.905 600.681C504.031 600.583 504.4 600.36 505.003 600.021C505.604 599.69 506.052 599.409 506.382 599.175C508.13 597.962 508.664 596.796 507.983 595.669C507.479 594.874 506.828 594.63 505.983 594.989C505.507 595.194 504.73 595.728 503.701 596.583C502.798 597.341 502.177 597.72 501.827 597.71C501.632 597.466 501.35 596.981 500.952 596.233C500.37 595.3 500.001 594.669 499.777 594.319C498.67 592.464 497.601 591.901 496.572 592.62M548.016 581.179L544.22 577.722C541.869 575.595 540.286 573.925 539.461 572.73C537.713 570.292 537.518 568.243 538.819 566.563C539.286 565.95 539.936 565.591 540.762 565.485C541.568 565.388 542.267 565.601 542.841 566.106C543.19 566.417 543.268 567.048 543.093 567.972C542.919 568.903 543.112 569.642 543.715 570.175C544.938 571.292 546.075 571.194 547.124 569.855C548.571 567.989 548.124 566.009 545.822 563.892C544.365 562.601 542.841 561.94 541.209 561.931C539.441 561.901 537.966 562.63 536.809 564.124C535.362 565.989 535.091 568.204 536.012 570.759C535.236 570.06 534.731 569.661 534.537 569.563C533.983 569.341 533.459 569.554 532.954 570.194L529.981 574.03C529.224 575.013 529.253 575.876 530.059 576.614C530.584 577.081 531.128 577.081 531.701 576.605C531.856 576.47 532.274 575.964 532.954 575.079C533.507 574.36 534.158 574.177 534.915 574.526C535.255 574.663 535.857 575.128 536.731 575.915L545.793 584.122C546.696 584.938 547.22 585.481 547.376 585.763C547.716 586.396 547.629 587.085 547.016 587.831C546.239 588.853 545.822 589.396 545.793 589.503C545.492 590.153 545.667 590.755 546.317 591.339C547.075 592.028 547.823 591.911 548.551 590.989C548.872 590.562 549.328 589.901 549.852 588.987C550.377 588.095 550.824 587.425 551.144 586.997C551.551 586.491 552.174 585.782 553.048 584.87C553.922 583.966 554.554 583.247 554.952 582.743C555.728 581.763 555.728 580.917 554.952 580.218C554.106 579.46 553.281 579.626 552.426 580.724C551.397 582.034 550.726 582.714 550.396 582.763C550.047 582.821 549.27 582.296 548.016 581.179ZM357.728 666.782C357.66 667.714 357.486 668.364 357.214 668.724C356.932 669.093 356.359 669.23 355.485 669.171L342.519 668.2L342.49 668.403C342.345 670.899 342.626 673.046 343.345 674.853C344.267 677.153 345.773 678.378 347.851 678.532C349.551 678.669 350.95 678.116 352.028 676.862C352.523 676.319 353.183 675.134 354.009 673.347C354.611 672.075 355.184 671.452 355.738 671.491C356.184 671.53 356.534 671.735 356.806 672.151C357.058 672.55 357.184 673.007 357.126 673.483C357.058 674.872 356.359 676.532 355.038 678.456C353.251 681.038 350.726 682.214 347.502 681.962C344.248 681.718 341.869 680.038 340.392 676.931C339.169 674.327 338.693 671.171 338.916 667.452C339.169 663.741 340.062 660.683 341.596 658.284C343.471 655.429 346.015 654.116 349.279 654.37C352.251 654.593 354.504 655.942 355.98 658.429C357.359 660.663 357.932 663.44 357.728 666.782M353.154 660.304C352.251 658.778 350.92 657.942 349.153 657.808C347.375 657.671 345.929 658.37 344.802 659.886C343.84 661.11 343.219 662.751 342.918 664.829L354.106 665.665L354.135 665.306C354.252 663.323 353.931 661.653 353.154 660.304ZM251.906 622.649C251.478 623.485 251.08 623.999 250.711 624.204C250.304 624.417 249.73 624.3 248.953 623.855L237.464 617.269L237.387 617.444C236.289 619.669 235.735 621.757 235.716 623.708C235.687 626.214 236.619 628.001 238.445 629.06C239.97 629.935 241.446 630.021 242.893 629.37C243.544 629.069 244.593 628.292 246.02 627.021C247.05 626.116 247.807 625.806 248.303 626.077C248.701 626.302 248.924 626.661 249.031 627.155C249.128 627.632 249.051 628.089 248.827 628.526C248.225 629.749 246.972 630.964 245.049 632.138C242.446 633.712 239.688 633.683 236.813 632.022C233.968 630.38 232.414 627.808 232.239 624.319C232.113 621.397 232.861 618.298 234.463 615.017C236.085 611.733 238.066 609.325 240.368 607.819C243.145 606.022 245.971 605.954 248.856 607.606C251.498 609.13 253.033 611.345 253.46 614.269C253.887 616.909 253.353 619.696 251.906 622.649M250.158 614.733C249.905 612.948 249.002 611.587 247.448 610.694C245.875 609.79 244.292 609.79 242.689 610.685C241.368 611.374 240.174 612.608 239.115 614.376L249.031 620.056L249.177 619.726C250.051 617.978 250.352 616.308 250.158 614.733M295.999 640.2C295.746 641.103 295.474 641.694 295.125 641.987C294.775 642.278 294.173 642.298 293.347 642.034L280.828 638.169L280.78 638.374C280.158 640.772 280.012 642.948 280.382 644.86C280.828 647.317 282.062 648.862 284.062 649.483C285.714 649.989 287.19 649.767 288.491 648.784C289.064 648.349 289.948 647.347 291.094 645.794C291.92 644.677 292.59 644.19 293.124 644.366C293.571 644.491 293.872 644.784 294.047 645.239C294.221 645.706 294.25 646.153 294.124 646.628C293.765 647.97 292.764 649.427 291.123 651.009C288.86 653.146 286.189 653.718 283.062 652.757C279.925 651.786 277.934 649.61 277.079 646.241C276.409 643.415 276.535 640.22 277.478 636.636C278.429 633.052 279.887 630.265 281.858 628.272C284.237 625.903 286.986 625.194 290.123 626.165C292.998 627.06 294.921 628.876 295.901 631.653C296.824 634.14 296.853 636.985 295.999 640.2M292.764 632.847C292.172 631.147 291.046 630.021 289.336 629.507C287.646 628.972 286.063 629.331 284.684 630.565C283.509 631.536 282.586 633.003 281.907 634.964L292.677 638.306L292.764 637.956C293.269 636.052 293.269 634.343 292.764 632.847M461.92 643.735C461.036 646.892 458.909 649.124 455.587 650.446C452.324 651.728 449.382 651.427 446.798 649.562C444.515 647.901 442.767 645.249 441.544 641.618C440.32 637.956 440.087 634.663 440.845 631.739C441.66 628.419 443.72 626.106 446.992 624.815C450.274 623.534 453.227 623.874 455.879 625.825C458.21 627.505 459.987 630.196 461.211 633.896C462.493 637.626 462.716 640.89 461.92 643.735M457.86 635.218C456.957 632.536 455.782 630.497 454.305 629.108C452.45 627.39 450.401 626.991 448.099 627.894C445.798 628.808 444.448 630.546 444.05 633.149C443.72 635.228 444.02 637.626 444.924 640.296C447.079 646.677 450.304 649.019 454.626 647.317C456.908 646.415 458.259 644.726 458.685 642.23C459.035 640.2 458.762 637.868 457.86 635.218M540.82 598.534C539.159 600.079 537.606 600.177 536.159 598.806C536.304 601.38 535.158 603.827 532.681 606.159C529.127 609.499 525.874 609.345 522.95 605.683C520.969 603.245 520.522 600.769 521.571 598.263C522.844 596.282 524.126 594.31 525.446 592.329C526.796 590.192 526.874 588.376 525.65 586.87C524.796 585.792 523.804 585.22 522.718 585.122C521.591 585.024 520.542 585.452 519.57 586.376C518.949 586.948 518.473 587.716 518.065 588.677C517.589 589.813 517.559 590.687 518.046 591.261C518.142 591.339 518.521 591.493 519.201 591.716C519.648 591.872 519.988 592.095 520.251 592.388C520.648 592.882 520.823 593.466 520.774 594.136C520.717 594.786 520.464 595.339 520.016 595.776C518.686 597.001 517.317 596.728 515.889 594.94C514.511 593.241 514.171 591.271 514.792 589.056C515.336 587.161 516.443 585.442 518.114 583.86C520.163 581.927 522.143 581.149 523.979 581.538C525.573 581.878 527.331 583.218 529.205 585.55L536.538 594.659C537.761 596.175 538.665 596.661 539.266 596.116C539.936 595.476 539.636 594.358 538.363 592.774C537.091 591.192 536.761 590.085 537.411 589.464C538.159 588.784 539.062 589.134 540.189 590.532C540.393 590.765 540.616 591.075 540.888 591.464C541.17 591.862 541.335 592.105 541.423 592.212C543.19 594.388 542.967 596.495 540.82 598.534M531.729 594.175L529.38 591.261C529.176 592.261 528.399 593.552 527.078 595.155C525.698 596.884 524.854 598.146 524.572 598.962C524.077 600.458 524.397 601.954 525.621 603.448C526.349 604.362 527.204 604.876 528.175 604.974C529.176 605.071 530.059 604.741 530.886 603.954C532.4 602.536 533.235 600.952 533.41 599.204C533.575 597.456 533.031 595.786 531.729 594.175M569.471 563.718C567.587 566.591 565.032 567.933 561.807 567.679C559.108 567.466 556.35 566.3 553.524 564.163C550.698 562.026 548.745 559.628 547.647 556.968C546.317 553.772 546.598 550.732 548.473 547.847C550.202 545.196 552.426 543.827 555.155 543.73C557.632 543.603 560.128 544.507 562.682 546.419C563.391 546.954 563.809 547.458 563.964 547.896C564.11 548.343 563.916 548.954 563.43 549.722L555.952 561.231L556.137 561.347C558.03 562.784 559.886 563.63 561.682 563.892C563.964 564.231 565.741 563.474 566.946 561.618C567.917 560.105 568.188 558.53 567.742 556.89C567.567 556.142 566.966 554.937 565.994 553.247C565.265 552.025 565.091 551.189 565.391 550.702C565.664 550.304 566.013 550.081 566.46 550.052C566.907 550.013 567.335 550.13 567.714 550.411C568.762 551.208 569.723 552.714 570.568 554.927C571.695 557.909 571.316 560.843 569.471 563.718M559.933 549.189L559.662 548.974C558.156 547.837 556.651 547.294 555.175 547.323C553.505 547.362 552.154 548.177 551.144 549.741C550.124 551.315 549.93 553.005 550.551 554.841C551.018 556.355 551.999 557.772 553.505 559.114L559.933 549.189ZM489.938 643.88C488.706 645.804 486.909 647.337 484.481 648.513C482.005 649.708 479.702 650.183 477.634 649.931C475.098 649.61 473.302 648.192 472.243 645.647C471.797 644.501 471.622 643.308 471.797 642.034C471.971 640.782 472.419 639.665 473.147 638.714C470.942 638.626 469.417 637.626 468.621 635.683C467.698 633.431 468.038 631.468 469.64 629.817C468.592 628.847 467.825 627.72 467.319 626.485C466.319 624.067 466.192 621.901 466.97 619.97C467.718 618.046 469.145 616.569 471.272 615.56C471.797 615.308 472.37 615.085 472.971 614.919C472.419 613.618 472.399 612.335 472.846 611.122C473.272 609.897 474.098 608.995 475.322 608.411C476.507 607.849 477.634 607.79 478.731 608.237C479.809 608.685 480.605 609.558 481.13 610.821C481.839 612.501 481.538 613.657 480.285 614.259C479.149 614.792 478.352 614.462 477.828 613.249C477.721 613.005 477.702 612.704 477.721 612.335C477.808 611.763 477.847 611.462 477.828 611.433C477.595 610.858 477.08 610.763 476.274 611.151C475.177 611.685 474.992 612.919 475.798 614.86C478.235 615.425 480.003 617.065 481.159 619.843C482.13 622.222 482.257 624.397 481.538 626.39C480.829 628.38 479.352 629.896 477.148 630.964C476.381 631.323 475.303 631.565 473.904 631.663C472.496 631.769 471.816 631.808 471.874 631.778C471.175 632.118 471.068 632.915 471.622 634.188C472.35 635.976 473.846 636.315 476.099 635.228C476.449 635.062 476.954 634.8 477.555 634.44C478.178 634.091 478.604 633.866 478.828 633.741C484.714 630.915 488.667 631.935 490.667 636.8C491.686 639.247 491.434 641.608 489.938 643.88M470.369 625.067C470.923 626.341 471.69 627.243 472.778 627.778C473.846 628.312 474.972 628.302 476.147 627.73C477.323 627.165 478.081 626.282 478.401 625.067C478.731 623.855 478.624 622.63 478.1 621.349C477.575 620.046 476.779 619.114 475.721 618.581C474.672 618.046 473.545 618.056 472.37 618.62C471.223 619.183 470.446 620.085 470.087 621.31C469.766 622.542 469.874 623.796 470.369 625.067ZM487.404 638.13C486.782 636.646 485.656 635.858 483.956 635.8C482.684 635.731 481.227 636.071 479.682 636.819C478.148 637.567 476.954 638.489 476.051 639.587C474.925 641.044 474.672 642.511 475.274 643.978C475.876 645.464 477.08 646.231 478.809 646.269C480.081 646.269 481.499 645.882 483.111 645.124C484.636 644.386 485.811 643.491 486.656 642.442C487.763 641.034 488.007 639.587 487.404 638.13" fill="#2062AF"/>
<path d="M479.021 199.31C472.782 199.31 467.707 194.648 467.707 188.918C467.707 183.183 472.782 178.517 479.021 178.517C485.254 178.517 490.326 183.183 490.326 188.918C490.326 194.648 485.254 199.31 479.021 199.31ZM479.021 180.517C473.885 180.517 469.707 184.286 469.707 188.918C469.707 193.545 473.885 197.31 479.021 197.31C484.152 197.31 488.326 193.545 488.326 188.918C488.326 184.286 484.152 180.517 479.021 180.517Z" fill="#2062AF"/>
<path d="M435.531 185.373C429.292 185.373 424.217 180.711 424.217 174.981C424.217 169.246 429.292 164.58 435.531 164.58C441.77 164.58 446.846 169.246 446.846 174.981C446.846 180.711 441.77 185.373 435.531 185.373ZM435.531 166.58C430.395 166.58 426.217 170.349 426.217 174.981C426.217 179.608 430.395 183.373 435.531 183.373C440.667 183.373 444.846 179.608 444.846 174.981C444.846 170.349 440.667 166.58 435.531 166.58Z" fill="#2062AF"/>
<path d="M391.691 178.525C385.436 178.525 380.347 173.864 380.347 168.135C380.347 162.405 385.436 157.743 391.691 157.743C397.924 157.743 402.996 162.405 402.996 168.135C402.996 173.864 397.924 178.525 391.691 178.525M391.691 159.743C386.539 159.743 382.347 163.508 382.347 168.135C382.347 172.761 386.539 176.525 391.691 176.525C396.822 176.525 400.996 172.761 400.996 168.135C400.996 163.508 396.822 159.743 391.691 159.743" fill="#2062AF"/>
<path d="M348.792 178.525C342.559 178.525 337.487 173.864 337.487 168.135C337.487 162.405 342.559 157.743 348.792 157.743C355.031 157.743 360.106 162.405 360.106 168.135C360.106 173.864 355.03 178.525 348.792 178.525M348.792 159.743C343.661 159.743 339.487 163.508 339.487 168.135C339.487 172.761 343.661 176.525 348.792 176.525C353.928 176.525 358.106 172.761 358.106 168.135C358.106 163.508 353.927 159.743 348.792 159.743" fill="#2062AF"/>
<path d="M261.46 199.31C255.205 199.31 250.117 194.648 250.117 188.918C250.117 183.183 255.205 178.517 261.46 178.517C267.693 178.517 272.765 183.183 272.765 188.918C272.765 194.648 267.693 199.31 261.46 199.31ZM261.46 180.517C256.308 180.517 252.117 184.286 252.117 188.918C252.117 193.545 256.308 197.31 261.46 197.31C266.591 197.31 270.765 193.545 270.765 188.918C270.765 184.286 266.591 180.517 261.46 180.517Z" fill="#2062AF"/>
<path d="M304.922 185.373C298.689 185.373 293.618 180.711 293.618 174.981C293.618 169.246 298.689 164.58 304.922 164.58C311.177 164.58 316.265 169.246 316.265 174.981C316.265 180.711 311.177 185.373 304.922 185.373ZM304.922 166.58C299.792 166.58 295.618 170.349 295.618 174.981C295.618 179.608 299.792 183.373 304.922 183.373C310.074 183.373 314.265 179.608 314.265 174.981C314.265 170.349 310.074 166.58 304.922 166.58Z" fill="#2062AF"/>
<path d="M481.429 218.073C481.29 218.073 481.148 218.044 481.014 217.982C442.506 200.347 406.271 191.773 370.236 191.773C334.207 191.773 297.968 200.347 259.45 217.982C258.986 218.193 258.441 218.026 258.179 217.593L250.691 205.278C250.546 205.04 250.507 204.753 250.583 204.486C250.659 204.218 250.843 203.994 251.091 203.868C287.486 185.312 327.573 175.904 370.236 175.904C412.891 175.904 452.967 185.312 489.352 203.868C489.6 203.994 489.784 204.218 489.86 204.485C489.936 204.752 489.897 205.039 489.753 205.277L482.286 217.592C482.099 217.899 481.77 218.073 481.429 218.073M252.961 205.162L259.426 215.795C297.91 198.286 334.166 189.773 370.236 189.773C406.312 189.773 442.563 198.286 481.037 215.794L487.484 205.163C451.638 187.074 412.198 177.904 370.236 177.904C328.266 177.904 288.817 187.074 252.961 205.162" fill="#2062AF"/>
<path d="M240.863 188.171C240.523 188.171 240.194 187.997 240.007 187.689L212.134 141.761C211.989 141.522 211.95 141.234 212.027 140.966C212.104 140.698 212.289 140.474 212.538 140.349C214.533 139.343 216.718 138.281 219.215 137.104C219.705 136.875 220.291 137.074 220.534 137.559C228.018 152.412 242.352 165.351 254.18 160.075C261.441 156.835 266.837 145.171 258.151 122.96C258.05 122.701 258.061 122.412 258.181 122.162C258.301 121.912 258.52 121.723 258.784 121.641C261.382 120.831 264.015 120.034 266.832 119.207C267.093 119.13 267.374 119.164 267.611 119.299C267.847 119.434 268.018 119.66 268.084 119.924C272.641 138.163 287.022 148.356 297.596 146.422C308.389 144.453 313.404 131.011 311.01 110.464C310.948 109.929 311.321 109.44 311.854 109.359C314.365 108.98 316.876 108.61 319.407 108.269C319.933 108.201 320.431 108.558 320.524 109.085C324.529 131.624 336.182 140.59 345.955 139.471C359.164 137.964 364.339 120.923 363.557 105.728C363.543 105.459 363.638 105.195 363.821 104.997C364.005 104.799 364.261 104.684 364.53 104.677L364.664 104.673C366.508 104.627 368.369 104.579 370.221 104.55C372.069 104.579 373.894 104.625 375.712 104.671L375.925 104.677C376.194 104.684 376.45 104.799 376.633 104.997C376.816 105.195 376.912 105.459 376.898 105.728C376.115 120.921 381.289 137.96 394.498 139.471C404.278 140.592 415.935 131.626 419.949 109.085C420.043 108.557 420.541 108.202 421.067 108.269C423.357 108.579 425.819 108.936 428.592 109.36C429.124 109.441 429.497 109.929 429.434 110.463C427.055 131.015 432.079 144.458 442.874 146.423C453.435 148.348 467.813 138.158 472.37 119.924C472.435 119.66 472.606 119.435 472.842 119.299C473.078 119.164 473.358 119.129 473.62 119.207C476.561 120.064 479.195 120.86 481.673 121.642C481.936 121.725 482.154 121.914 482.274 122.164C482.393 122.413 482.404 122.701 482.304 122.959C473.623 145.168 479.017 156.832 486.273 160.073C498.096 165.353 512.45 152.414 519.949 137.558C520.193 137.075 520.778 136.873 521.268 137.104C523.58 138.194 525.826 139.286 527.942 140.348C528.192 140.473 528.378 140.697 528.455 140.965C528.532 141.234 528.494 141.522 528.348 141.761L500.446 187.689C500.179 188.129 499.626 188.296 499.16 188.072C458.109 168.403 414.762 158.578 370.242 158.831H370.231C325.728 158.587 282.374 168.403 241.294 188.072C241.155 188.139 241.008 188.171 240.863 188.171M214.406 141.65L241.248 185.879C282.359 166.339 325.758 156.575 370.237 156.831C414.712 156.592 458.125 166.338 499.207 185.879L526.075 141.651C524.534 140.885 522.931 140.106 521.29 139.327C510.584 159.878 495.233 166.262 485.458 161.899C475.027 157.241 472.945 142.123 480.056 123.231C478.174 122.645 476.191 122.046 474.045 121.415C469.822 136.643 456.416 150.921 442.515 148.391C430.743 146.248 425.101 132.372 427.342 111.192C425.489 110.912 423.618 110.639 421.744 110.38C417.339 133.504 404.837 142.66 394.27 141.458C383.929 140.275 374.011 129.055 374.855 106.65C373.31 106.611 371.762 106.574 370.221 106.55C368.698 106.574 367.146 106.611 365.6 106.65C366.443 129.059 356.525 140.278 346.182 141.458C335.613 142.668 323.123 133.502 318.729 110.38C316.847 110.639 314.975 110.913 313.104 111.194C315.358 132.366 309.726 146.242 297.955 148.39C296.868 148.588 295.782 148.683 294.705 148.683C282.014 148.685 270.303 135.458 266.409 121.417C264.333 122.03 262.35 122.63 260.398 123.233C267.513 142.127 265.431 157.244 254.995 161.901C245.222 166.264 229.877 159.873 219.193 139.327C217.458 140.15 215.878 140.917 214.406 141.65" fill="#2062AF"/>
<path d="M514.307 507.551C511.539 514.379 507.605 520.565 503.371 526.704L499.322 531.735L495.019 536.426L490.484 540.776L480.703 548.604L470.166 555.422C464.621 558.51 459.055 561.356 453.277 564.094L441.593 569.096C430.026 573.661 418.342 577.897 406.755 582.364C395.849 586.754 384.71 591.434 375.395 598.321V571.311H413.584V540.077H375.395V451.057H475.099L475.692 452.92L480.276 463.469L485.958 473.774L492.708 483.786C499.166 492.188 506.178 500.393 514.307 507.551ZM264.61 452.92L260.036 463.469L254.354 473.782L247.594 483.786C241.116 492.188 234.114 500.393 226.004 507.551C228.782 514.379 232.706 520.565 236.94 526.704L240.971 531.735L245.263 536.426L249.828 540.776L259.588 548.604C264.843 552.168 270.068 555.374 275.652 558.491L287.016 564.094C302.273 570.807 317.968 576.352 333.556 582.364C344.472 586.754 355.602 591.434 364.916 598.321V571.311H326.699V540.077H364.916V451.057H265.212L264.61 452.92ZM469.755 431.328L468.651 420.267L468.753 409.14L470.099 398L472.682 386.891L476.544 375.878C480.72 366.32 485.585 357.003 492.041 348.524C484.883 337.144 475.518 327.289 464.741 318.637C448.303 329.311 427.339 333.071 407.529 333.36L400.269 333.143C391.853 332.546 383.114 331.393 375.101 328.726V441.604H471.898L469.755 431.328ZM328.855 333.288C310.179 332.501 290.794 328.685 275.351 318.633C264.561 327.286 255.228 337.114 248.08 348.497C254.529 356.966 259.385 366.29 263.561 375.827L267.417 386.831L270 397.932L271.35 409.062L271.447 420.182L270.34 431.225L268.193 441.491H364.916V328.714C355.777 331.763 345.696 332.89 336.139 333.288H328.855Z" fill="#2062AF"/>
<path fill-rule="evenodd" clip-rule="evenodd" d="M403.851 548.177C402.423 545.644 400.278 544.36 397.373 544.36C394.46 544.36 392.314 545.653 390.945 548.216C389.837 550.159 389.293 552.607 389.293 555.56C389.293 558.501 389.837 560.948 390.945 562.901C392.314 565.466 394.46 566.747 397.373 566.747C400.296 566.747 402.453 565.476 403.851 562.931C404.929 560.958 405.484 558.501 405.484 555.56C405.484 552.626 404.929 550.169 403.851 548.177ZM401.753 561.212C400.851 563.415 399.404 564.522 397.373 564.522C395.372 564.522 393.897 563.405 392.993 561.183C392.372 559.657 392.071 557.782 392.071 555.56C392.071 553.364 392.372 551.509 393.013 549.964C393.916 547.751 395.372 546.653 397.373 546.653C399.404 546.653 400.851 547.751 401.753 549.935C402.405 551.48 402.725 553.355 402.725 555.56C402.725 557.763 402.405 559.647 401.753 561.212M384.777 548.177C383.349 545.644 381.203 544.36 378.299 544.36C375.395 544.36 373.249 545.653 371.869 548.216C370.772 550.159 370.219 552.607 370.219 555.56C370.219 558.501 370.772 560.948 371.869 562.901C373.249 565.466 375.395 566.747 378.299 566.747C381.232 566.747 383.388 565.476 384.777 562.931C385.865 560.958 386.418 558.501 386.418 555.56C386.418 552.626 385.865 550.169 384.777 548.177ZM382.679 561.212C381.776 563.415 380.329 564.522 378.299 564.522C376.27 564.522 374.823 563.405 373.918 561.183C373.297 559.657 372.977 557.782 372.977 555.56C372.977 553.364 373.297 551.509 373.948 549.964C374.841 547.751 376.298 546.653 378.299 546.653C380.329 546.653 381.776 547.751 382.679 549.935C383.329 551.48 383.66 553.355 383.66 555.56C383.66 557.763 383.329 559.647 382.679 561.212M365.46 547.925C364.09 545.614 361.915 544.468 358.953 544.468C356.602 544.468 354.728 545.128 353.349 546.478C351.95 547.827 351.27 549.575 351.27 551.732C351.27 553.917 351.853 555.665 352.999 556.958C354.281 558.357 356.078 559.056 358.409 559.056C361.06 559.056 362.964 558.171 364.11 556.413C364.09 558.569 363.663 560.376 362.886 561.813C361.857 563.688 360.283 564.61 358.156 564.61C357.506 564.61 356.777 564.483 356.029 564.231C355.107 563.892 354.621 563.474 354.621 562.989C354.621 562.804 354.777 562.552 355.029 562.231C355.301 561.921 355.427 561.628 355.427 561.405C355.427 560.958 355.282 560.589 354.932 560.278C354.602 559.968 354.174 559.813 353.708 559.813C353.028 559.813 352.504 560.046 352.154 560.503C351.775 560.958 351.6 561.503 351.6 562.134C351.6 563.571 352.319 564.737 353.727 565.601C354.98 566.368 356.437 566.747 358.079 566.747C361.216 566.747 363.556 565.466 365.139 562.901C366.411 560.823 367.072 558.22 367.072 555.112C367.072 552.15 366.518 549.751 365.46 547.925M362.429 555.335C361.584 556.335 360.38 556.821 358.778 556.821C357.185 556.821 355.961 556.335 355.136 555.335C354.349 554.442 353.98 553.247 353.98 551.732C353.98 550.237 354.349 549.042 355.136 548.157C355.961 547.157 357.185 546.653 358.778 546.653C360.38 546.653 361.584 547.157 362.429 548.157C363.158 549.042 363.536 550.237 363.536 551.732C363.536 553.247 363.158 554.442 362.429 555.335ZM339.014 562.046V548.915C339.014 548.187 338.946 547.702 338.839 547.448C338.606 547.003 338.188 546.788 337.537 546.788C337.392 546.788 337.139 546.798 336.789 546.837C336.459 546.886 336.217 546.915 336.032 546.915C335.216 546.915 334.789 546.575 334.789 545.896C334.789 545.108 335.255 544.71 336.217 544.71C336.431 544.71 336.731 544.739 337.178 544.808C337.606 544.876 337.916 544.905 338.139 544.905C338.411 544.905 338.839 544.876 339.412 544.808C339.966 544.739 340.393 544.71 340.665 544.71C341.568 544.71 341.995 545.226 341.995 546.245C341.995 546.468 341.966 546.817 341.918 547.294C341.84 547.751 341.821 548.081 341.821 548.245V562.134C341.821 562.813 341.918 563.29 342.063 563.562C342.267 563.989 342.695 564.202 343.365 564.202C343.569 564.202 343.87 564.183 344.239 564.144C344.618 564.095 344.919 564.077 345.122 564.077C345.996 564.077 346.424 564.437 346.424 565.153C346.424 566.019 345.919 566.456 344.919 566.456C344.423 566.456 343.637 566.417 342.617 566.319C341.568 566.222 340.791 566.165 340.286 566.165C339.781 566.165 339.033 566.222 338.033 566.319C337.033 566.417 336.265 566.456 335.76 566.456C334.838 566.456 334.381 566.106 334.381 565.407C334.381 564.522 334.915 564.077 335.964 564.077C336.139 564.077 336.391 564.095 336.731 564.144C337.062 564.183 337.304 564.202 337.46 564.202C338.139 564.202 338.586 563.989 338.79 563.542C338.946 563.261 339.014 562.765 339.014 562.046Z" fill="#2062AF"/>
<path fill-rule="evenodd" clip-rule="evenodd" d="M346.239 472.54C334.128 460.633 319.618 455.331 306.76 466.411C293.862 455.331 279.352 460.633 267.241 472.54L255.781 534.016L297.048 527.772C298.951 530.811 302.204 532.346 306.76 532.405C311.314 532.346 314.539 530.811 316.471 527.772L357.728 534.016L346.239 472.54ZM305.002 520.313L265.794 525.315L274.826 469.151C286.112 460.934 294.891 459.206 305.031 467.907L305.002 520.313ZM308.906 520.313V467.907C318.812 459.497 327.077 461.342 338.537 469.151L347.57 525.315L308.906 520.313Z" fill="#2062AF"/>
<path fill-rule="evenodd" clip-rule="evenodd" d="M348.377 354.723L342.491 351.033L344.317 348.362L350.144 351.936L348.377 354.723ZM306.401 349.022L299.03 348.498L280.703 359.064L278.45 365.562L280.635 368.408L308.586 351.178L306.401 349.022ZM294.349 364.668L300.477 360.841L298.622 358.404L292.62 362.114L294.349 364.668ZM312.189 363.911L313.511 358.015L311.335 355.16L284.228 372.049L286.889 374.992L293.989 375.332L312.189 363.911ZM323.193 391.231L339.218 367.864L333.206 363.765L318.172 384.548L306.362 368.679L300.001 372.68L313.637 392.416L287.987 428.446L296.427 433.196L318.492 401.758L337.985 429.923C342.423 436.352 352.281 432.04 347.396 425.184L323.193 391.231ZM358.409 370.437L351.873 358.093L333.43 346.575C333.362 346.302 324.767 356.578 324.767 356.578L343.968 369.718L358.409 370.437Z" fill="white"/>
<path d="M396.597 520.313C393.518 520.313 390.964 518.003 390.964 515.177C390.964 512.341 393.518 510.028 396.597 510.028C399.704 510.028 402.22 512.341 402.22 515.177C402.22 518.003 399.704 520.313 396.597 520.313ZM395.946 467.538L386.807 484.03L386.662 484.446L386.583 484.854V485.243L386.691 485.632L386.865 486.001L387.108 486.331L387.438 486.612L387.807 486.837L388.235 486.991L388.681 487.059L389.109 487.04L389.537 486.952L389.934 486.788L390.284 486.573L390.615 486.272L390.867 485.903L399.996 469.413L400.171 469.005L400.219 468.597V468.198L400.132 467.819L399.947 467.45L399.704 467.11L399.404 466.829L398.996 466.616L398.578 466.46L398.151 466.392L397.695 466.411L397.277 466.499L396.869 466.655L396.519 466.888L396.189 467.169L395.946 467.538ZM396.189 464.159L396.267 463.761V463.352L396.169 462.964L395.995 462.595L395.742 462.274L395.421 461.993L395.013 461.769L394.586 461.614L394.168 461.546L393.712 461.565L393.314 461.653L392.886 461.808L392.537 462.042L392.246 462.333L391.984 462.702L380.173 484.001L380.028 484.407L379.959 484.815V485.214L380.057 485.602L380.232 485.962L380.474 486.292L380.805 486.573L381.173 486.798L381.601 486.952L382.048 487.02L382.475 487.001L382.903 486.913L383.31 486.759L383.689 486.526L383.981 486.233L384.234 485.864L396.014 464.558L396.189 464.159ZM399.899 472.132L393.159 484.331L392.994 484.749L392.915 485.145V485.554L393.013 485.942L393.198 486.302L393.441 486.632L393.771 486.913L394.14 487.138L394.567 487.292L395.013 487.36L395.441 487.341L395.869 487.253L396.267 487.089L396.645 486.866L396.947 486.573L397.189 486.204L403.949 473.997L404.123 473.589L404.201 473.19L404.182 472.792L404.076 472.403L403.929 472.034L403.677 471.704L403.357 471.423L402.968 471.2L402.521 471.044L402.093 470.985L401.647 470.995L401.22 471.073L400.851 471.239L400.472 471.472L400.171 471.763L399.899 472.132ZM390.265 520.062C387.166 520.062 384.631 522.372 384.631 525.198C384.631 528.044 387.166 530.347 390.265 530.347C393.372 530.347 395.888 528.044 395.888 525.198C395.888 522.372 393.372 520.062 390.265 520.062ZM431.23 504.977L431.162 505.386V505.784L431.25 506.163L431.434 506.532L431.677 506.862L432.007 507.153L432.376 507.368L432.803 507.522L433.25 507.581H433.677L434.105 507.493L434.513 507.339L434.853 507.095L435.183 506.813L435.425 506.444L444.574 489.944L444.74 489.536L444.789 489.138V488.739L444.691 488.351L444.516 487.981L444.263 487.661L443.972 487.38L443.564 487.147L443.147 486.991L442.719 486.933L442.273 486.952L441.845 487.03L441.437 487.196L441.097 487.419L440.757 487.7L440.515 488.089L431.375 504.571L431.23 504.977ZM428.802 501.151L431.104 502.337L438.339 489.265L435.912 488.274L428.802 501.151ZM455.773 488.944L465.494 492.663L465.193 498.927L468.865 500.442L468.039 491.274L455.355 486.526L446.576 491.245L450.246 492.77L455.773 488.944ZM397.373 504.977C397.373 507.794 399.899 510.116 403.007 510.116C406.105 510.116 408.64 507.794 408.64 504.977C408.64 502.142 406.105 499.831 403.007 499.831C399.899 499.831 397.373 502.142 397.373 504.977ZM422.82 498.073L429.704 485.651L404.628 475.337L398.87 485.749L422.82 498.073ZM402.929 520.062C399.85 520.062 397.316 522.372 397.316 525.198C397.316 528.044 399.85 530.347 402.929 530.347C406.056 530.347 408.582 528.044 408.582 525.198C408.582 522.372 406.056 520.062 402.929 520.062ZM475.323 502.667L475.4 502.259L475.371 501.87L475.274 501.472L475.099 501.112L474.847 500.782L474.546 500.501L474.148 500.278L473.72 500.122L473.292 500.054L472.846 500.073L472.419 500.161L472.021 500.327L471.671 500.54L471.341 500.831L471.088 501.2L461.104 519.274L460.929 519.683L460.861 520.081L460.88 520.479L460.958 520.878L461.133 521.235L461.386 521.567L461.707 521.849L462.085 522.071L462.532 522.227L462.959 522.296L463.386 522.276L463.814 522.188L464.212 522.032L464.582 521.8L464.892 521.509L465.134 521.14L475.148 503.075L475.323 502.667ZM482.878 506.222L482.957 505.823L482.937 505.425L482.829 505.036L482.656 504.677L482.403 504.347L482.082 504.056L481.704 503.833L481.277 503.687L480.849 503.618L480.402 503.638L479.975 503.716L479.577 503.88L479.207 504.104L478.907 504.395L478.654 504.765L468.669 522.829L468.486 523.237L468.417 523.645V524.054L468.515 524.431L468.689 524.79L468.942 525.122L469.272 525.413L469.641 525.626L470.059 525.782L470.525 525.849L470.943 525.839L471.37 525.753L471.768 525.597L472.147 525.364L472.448 525.073L472.701 524.694L482.704 506.63L482.878 506.222ZM475.623 504.599L466.815 520.519L467.99 521.12L476.847 505.104L475.623 504.599ZM415.059 514.827C415.059 512.165 412.708 510.009 409.815 510.009C406.912 510.009 404.55 512.165 404.55 514.827C404.55 517.468 406.912 519.624 409.815 519.624C412.708 519.624 415.059 517.468 415.059 514.827M498.097 522.12L497.865 521.235L497.495 520.421L496.922 519.673L496.194 519.032L495.31 518.526L494.369 518.187L493.368 518.032L492.386 518.069L491.406 518.274L490.512 518.624L489.716 519.138L489.017 519.8L488.463 520.585L488.084 521.47L487.91 522.382L487.958 523.286L488.162 524.149L488.56 524.985L489.114 525.724L489.832 526.364L490.716 526.87L491.659 527.2L492.668 527.354L493.669 527.335L494.62 527.132L495.524 526.782L496.339 526.257L497.019 525.606L497.592 524.809L497.971 523.927L498.117 523.022L498.097 522.12ZM488.414 517.575L488.589 516.69L488.716 515.817L488.735 514.972L488.658 514.147L488.56 513.351L488.357 512.583L488.055 511.864L487.735 511.194L487.307 510.563L486.841 509.999L486.287 509.495L485.685 509.058L485.005 508.688L483.238 507.96L474.119 524.431L475.818 525.296L476.546 525.577L477.304 525.772L478.052 525.868L478.829 525.888L479.634 525.821L480.421 525.675L481.228 525.452L482.024 525.14L482.811 524.763L483.558 524.306L484.306 523.78L485.005 523.198L485.656 522.538L486.287 521.819L486.861 521.032L487.356 520.206L487.783 519.333L488.142 518.448L488.414 517.575ZM425.8 503.239L426.169 503.017L426.471 502.716L426.724 502.347L435.853 485.864L436.038 485.458L436.105 485.05L436.085 484.651L435.979 484.263L435.833 483.894L435.582 483.563L435.26 483.282L434.853 483.058L434.435 482.913L434.007 482.845L433.551 482.854L433.133 482.942L432.736 483.097L432.376 483.331L432.056 483.632L431.803 483.991L422.693 500.481L422.518 500.899L422.441 501.288V501.696L422.547 502.085L422.722 502.444L422.974 502.774L423.295 503.056L423.673 503.288L424.121 503.434L424.548 503.503L424.975 503.493L425.403 503.395L425.8 503.239ZM444.895 491.895L437.407 505.405L460.589 517.438L469.146 501.977L444.895 491.895ZM415.74 520.489C412.612 520.489 410.087 522.809 410.087 525.636C410.087 528.472 412.612 530.774 415.74 530.774C418.818 530.774 421.343 528.472 421.343 525.636C421.343 522.809 418.818 520.489 415.74 520.489ZM444.341 519.216L443.787 518.663L443.312 518.245L442.845 517.954L442.418 517.749L441.972 517.614L441.486 517.546L440.971 517.517L440.437 517.546L439.942 517.614L439.486 517.739L439.039 517.934L438.582 518.235L438.086 518.634L437.562 519.157L437.009 519.827L429.132 529.677H452.722L444.914 519.905L444.341 519.216ZM455.85 525.374L444.914 511.688L444.341 510.999L443.787 510.456L443.312 510.038L442.845 509.747L442.418 509.544L441.972 509.417L441.486 509.339L440.971 509.309L440.437 509.339L439.942 509.407L439.486 509.534L439.039 509.737L438.582 510.028L438.086 510.436L437.562 510.952L437.009 511.622L426.296 525.024L425.597 526.132L425.326 527.063L425.373 527.841L425.675 528.481L426.169 528.997L426.801 529.384L427.5 529.608L428.005 529.657L436.261 519.333L436.853 518.624L437.436 518.042L438.009 517.575L438.582 517.216L439.164 516.974L439.738 516.798L440.339 516.72L440.971 516.681L441.564 516.72L442.165 516.808L442.768 516.974L443.312 517.235L443.894 517.604L444.449 518.069L445.04 518.673L445.642 519.392L453.849 529.677H454.471L455.054 529.628L455.656 529.452L456.229 529.171L456.656 528.772L456.928 528.249L456.986 527.54L456.656 526.597L455.85 525.374Z" fill="white"/>
<path d="M418.492 388.251C417.627 387.213 417.108 386.004 417.108 384.792C417.108 383.235 417.627 382.198 418.664 381.161C419.529 380.297 420.739 379.776 422.122 379.776C423.508 379.776 424.717 380.297 425.755 381.334C426.621 382.198 427.139 383.411 427.139 384.792C427.139 386.176 426.621 387.386 425.58 388.423C424.545 389.288 423.334 389.807 422.122 389.807C420.568 389.807 419.529 389.288 418.492 388.251M455.946 409.637C461.866 420.519 463.253 427.133 460.174 429.83C459.287 430.624 458.206 431.028 456.892 431.028C453.475 431.028 448.473 428.297 441.152 422.547C435.499 418.06 429.556 412.546 423.482 406.156L423.38 406.065C423.199 405.903 423.029 405.74 422.867 405.577C422.494 406.001 422.116 406.436 421.748 406.846C415.447 413.902 409.568 419.801 403.774 424.875C396.093 431.22 390.765 434.252 387.15 434.252C385.965 434.252 384.964 433.927 384.124 433.284C380.592 430.534 381.687 424.003 387.662 412.102C390.661 406.024 394.412 399.617 399.125 392.525C399.214 392.385 399.303 392.264 399.392 392.132C398.239 391.891 397.092 391.683 395.977 391.493L395.172 391.355C386.586 389.544 382.857 387.359 383.048 384.266C383.098 381.303 386.997 379.179 395.308 377.583C396.621 377.321 397.996 377.115 399.405 376.929C394.833 370.346 391.378 364.842 388.627 359.748C382.691 348.844 381.328 342.432 384.342 339.574C384.366 339.55 384.392 339.528 384.418 339.506C387.676 336.81 393.893 339.201 403.421 346.823C409.121 351.315 414.518 356.283 419.91 362.003C420.446 362.556 420.972 363.119 421.501 363.679C421.613 363.561 421.748 363.438 421.912 363.324C428.459 355.885 434.678 349.718 440.397 344.99C450.249 336.551 456.442 333.834 459.869 336.452C463.311 339.286 462.255 345.804 456.486 357.622C453.298 363.876 449.313 370.517 444.627 377.425C446.209 377.684 447.645 377.947 449.173 378.308C457.486 380.103 461.204 382.268 461.204 385.319C461.204 388.275 457.488 390.249 448.78 391.921C447.673 392.133 446.468 392.345 445.245 392.558C449.565 398.537 453.163 404.269 455.946 409.637M442.742 380.165C442.243 380.88 441.747 381.595 441.232 382.316C440.658 383.162 440.061 383.999 439.461 384.824C440.486 386.157 441.488 387.485 442.459 388.788L442.552 388.913C442.789 389.225 443.014 389.534 443.247 389.845C443.329 389.835 443.417 389.827 443.498 389.817L444.087 389.715C445.515 389.467 446.928 389.221 448.215 388.975C457.933 387.109 458.204 385.337 458.204 385.319C458.204 385.238 458.094 383.304 448.512 381.234C446.777 380.825 445.186 380.547 443.318 380.251C443.314 380.251 443.309 380.25 443.304 380.249C443.112 380.217 442.932 380.194 442.742 380.165M428.182 394.67L428.763 393.897C426.564 393.935 424.307 393.939 421.96 393.939C420.519 393.868 419.192 393.833 417.884 393.798C417.354 393.784 416.834 393.758 416.309 393.742C418.517 396.287 420.701 398.698 422.831 401.042C424.611 398.961 426.413 396.799 428.182 394.67M421.35 368.465C419.486 370.556 417.525 372.902 415.295 375.71C417.607 375.642 419.934 375.615 422.347 375.705H422.383C424.361 375.705 426.336 375.758 428.248 375.852C426.12 373.255 423.887 370.687 421.58 368.165C421.548 368.21 421.517 368.25 421.485 368.295C421.465 368.324 421.444 368.352 421.423 368.379C421.4 368.409 421.375 368.438 421.35 368.465ZM438.781 380.586C438.994 380.289 439.195 379.995 439.405 379.698C437.97 379.523 436.556 379.379 435.149 379.281C435.873 380.177 436.598 381.102 437.289 382.062C437.373 382.165 437.45 382.27 437.533 382.373C437.948 381.793 438.358 381.209 438.755 380.624C438.763 380.612 438.771 380.601 438.779 380.589C438.779 380.588 438.78 380.587 438.781 380.586ZM408.955 378.997C407.553 379.092 406.2 379.206 404.868 379.333C405.479 380.145 406.108 380.976 406.762 381.828C407.466 380.88 408.198 379.935 408.955 378.997ZM406.821 386.872C406.12 387.774 405.376 388.767 404.591 389.849C406.23 390.036 407.893 390.197 409.582 390.339C408.631 389.166 407.71 388.013 406.821 386.872M413.691 390.639C413.785 390.645 413.875 390.652 413.97 390.658C415.294 390.729 416.618 390.764 417.963 390.799C419.294 390.834 420.645 390.87 422.036 390.94C425.171 390.939 428.201 390.933 431.113 390.836C432.05 389.688 433.036 388.412 434.089 386.98C434.095 386.972 434.102 386.963 434.108 386.955V386.954C434.111 386.951 434.113 386.948 434.115 386.945C434.616 386.295 435.149 385.596 435.688 384.879C435.438 384.564 435.199 384.246 434.944 383.934C434.933 383.919 434.921 383.905 434.91 383.89C434.898 383.874 434.885 383.857 434.873 383.84C433.658 382.152 432.317 380.531 431.047 379.035C428.318 378.822 425.328 378.704 422.291 378.704C419.047 378.584 415.971 378.67 412.875 378.795C412.755 378.959 412.637 379.121 412.527 379.274C412.312 379.576 412.107 379.861 411.903 380.12C411.902 380.121 411.9 380.122 411.9 380.124C411.9 380.124 411.899 380.125 411.899 380.126H411.898C411.891 380.135 411.883 380.145 411.875 380.154C410.737 381.533 409.66 382.932 408.646 384.333C410.036 386.144 411.529 387.982 413.088 389.897L413.691 390.639ZM435.127 390.591C436.697 390.474 438.251 390.346 439.772 390.206C439.061 389.252 438.344 388.29 437.606 387.322C437.228 387.82 436.856 388.305 436.499 388.767C436.027 389.407 435.573 390.009 435.127 390.591M423.557 365.88C426.067 368.613 428.495 371.403 430.799 374.224C431.341 374.729 431.86 375.35 432.361 375.952C432.413 376.012 432.469 376.078 432.521 376.139C435.465 376.244 438.327 376.501 441.344 376.922C446.312 369.69 450.498 362.761 453.803 356.283C460.381 342.803 458.933 339.566 458.005 338.802C457.319 338.283 454.045 337.251 442.328 347.285C436.668 351.965 430.514 358.079 424.016 365.474C423.907 365.597 423.78 365.702 423.639 365.783C423.618 365.807 423.601 365.83 423.583 365.852C423.574 365.863 423.567 365.87 423.557 365.88M391.264 358.318C394.145 363.651 397.807 369.442 402.778 376.525C405.434 376.257 408.273 375.993 411.363 375.855C414.274 372.122 416.741 369.129 419.068 366.516C419.213 366.311 419.357 366.119 419.502 365.93C418.921 365.314 418.343 364.695 417.753 364.087C417.747 364.081 417.741 364.075 417.734 364.068C412.442 358.454 407.15 353.582 401.555 349.172C392.598 342.007 387.851 340.656 386.371 341.786C385.71 342.471 384.336 345.591 391.264 358.318M396.48 388.536C397.931 388.782 399.43 389.037 400.975 389.397C401.051 389.407 401.127 389.415 401.203 389.426C402.501 387.598 403.718 385.956 404.817 384.561C404.856 384.503 404.898 384.445 404.938 384.387C404.868 384.293 404.794 384.198 404.726 384.104C403.544 382.569 402.46 381.126 401.397 379.701C399.474 379.932 397.611 380.183 395.885 380.527C386.469 382.334 386.047 384.305 386.047 384.324C386.047 384.362 386.046 384.4 386.043 384.438C386.041 384.457 386.011 386.357 395.736 388.41L396.48 388.536ZM419.52 404.838C419.958 404.351 420.406 403.834 420.853 403.326L420.731 403.191C417.97 400.152 415.114 397.01 412.219 393.584C412.213 393.578 412.208 393.572 412.202 393.565V393.564H412.201C412.198 393.561 412.196 393.558 412.193 393.554L412.184 393.543C408.907 393.32 405.762 393.022 402.674 392.638C402.553 392.814 402.433 392.997 402.313 393.168C402.094 393.48 401.873 393.793 401.653 394.141C401.651 394.144 401.65 394.147 401.647 394.151C401.641 394.161 401.635 394.169 401.63 394.177C396.986 401.165 393.295 407.465 390.348 413.439C383.786 426.507 384.78 429.993 385.957 430.909C386.855 431.598 390.221 432.179 401.83 422.591C407.498 417.625 413.293 411.812 419.512 404.846C419.515 404.843 419.517 404.84 419.52 404.838M453.297 411.044C450.368 405.396 446.528 399.345 441.868 393.014C438.896 393.325 435.713 393.559 432.599 393.782L430.566 396.492C430.556 396.505 430.546 396.518 430.536 396.531H430.535L430.534 396.533C430.525 396.544 430.516 396.556 430.506 396.567C428.638 398.814 426.732 401.101 424.852 403.295C425.03 403.482 425.204 403.672 425.406 403.854L425.593 404.027C431.634 410.378 437.473 415.796 443.012 420.192C453.871 428.722 457.182 428.485 458.186 427.584C459.476 426.454 458.959 421.453 453.297 411.044" fill="white"/>
<path fill-rule="evenodd" clip-rule="evenodd" d="M305.003 520.313L265.795 525.315L274.827 469.151C286.113 460.934 294.892 459.206 305.032 467.907L305.003 520.313ZM308.907 520.313V467.907C318.813 459.497 327.078 461.342 338.538 469.151L347.571 525.315L308.907 520.313Z" fill="white"/>
</g>
</svg>
