<svg width="54" height="53" viewBox="0 0 54 53" fill="none" xmlns="http://www.w3.org/2000/svg">
<path fill-rule="evenodd" clip-rule="evenodd" d="M26.6233 52.8788C25.0654 50.3813 21.4332 49.0554 17.2275 47.5204C14.0368 46.356 10.4203 45.0361 7.2775 42.9821C3.66071 40.6186 1.22154 37.6433 -0.17933 33.8861L-0.223633 33.7674L-0.125583 33.6854C9.05865 26.0017 10.5014 15.9784 3.63965 7.52657L3.56252 7.43157L3.62251 7.32528C5.13218 4.64942 7.39385 2.23143 10.3448 0.138568L10.4643 0.0537109L10.5749 0.149711C12.6292 1.933 16.3573 3.04085 20.3042 3.04085C22.8333 3.04085 25.1615 2.568 26.692 1.74357L26.7806 1.69571L26.8695 1.74371C28.3977 2.568 30.7248 3.04085 33.2536 3.04085C37.201 3.04085 40.9271 1.933 42.978 0.149854L43.0887 0.0537109L43.2082 0.138426C46.1593 2.22757 48.4226 4.64543 49.9353 7.32514L49.9953 7.43157L49.9182 7.52657C43.0562 15.9777 44.499 26.0013 53.6837 33.6854L53.7816 33.7674L53.7374 33.8861C52.3366 37.6431 49.8975 40.6183 46.2812 42.9818C43.1387 45.0357 39.5225 46.3556 36.332 47.5203C32.1267 49.0553 28.4946 50.3811 26.938 52.8788L26.7807 53.1314L26.6233 52.8788Z" fill="#FFC92B"/>
<path d="M26.7814 53.0744C26.6778 53.0744 26.5809 53.0214 26.5285 52.9359C24.9908 50.4693 21.3756 49.1501 17.1895 47.6226C10.8126 45.2957 2.87638 42.4001 -0.284727 33.9229C-0.327143 33.8089 -0.293152 33.6831 -0.198299 33.6024C8.93597 25.9593 10.3726 15.9933 3.55183 7.593C3.47746 7.50114 3.46671 7.37571 3.52408 7.27342C5.04319 4.58171 7.31619 2.15142 10.28 0.0498526C10.3307 0.0138526 10.3907 -0.00500488 10.4532 -0.00500488C10.5252 -0.00500488 10.5945 0.02071 10.6481 0.0672815C12.7233 1.86871 16.3178 2.94414 20.2631 2.94414C22.7868 2.94414 25.1109 2.47242 26.6397 1.64985C26.684 1.62657 26.7326 1.61457 26.7812 1.61457C26.8306 1.61457 26.8794 1.627 26.9224 1.65028C28.4351 2.46557 30.7376 2.93314 33.2395 2.93314C33.8113 2.93314 34.3941 2.909 34.9717 2.86142C38.2855 2.58628 41.1773 1.56771 42.905 0.0672815C42.958 0.0208529 43.0273 -0.00500488 43.0994 -0.00500488C43.1608 -0.00500488 43.2202 0.0132811 43.2711 0.0481382C46.2343 2.14571 48.5085 4.57614 50.0322 7.27314C50.0919 7.37514 50.0806 7.50185 50.0029 7.59457C43.1848 15.9937 44.622 25.9596 53.7549 33.6017C53.8514 33.6849 53.8848 33.811 53.8411 33.9241C50.6814 42.4003 42.7467 45.2957 36.371 47.6221C32.1857 49.1489 28.5709 50.4677 27.0338 52.9366C26.9776 53.0236 26.8835 53.0744 26.7814 53.0744ZM0.341625 33.9117C3.45247 41.9914 10.8574 44.693 17.3932 47.0774L17.4089 47.0833C21.4938 48.5753 25.0325 49.8679 26.7812 52.2611C28.5279 49.8684 32.0651 48.5759 36.1479 47.0839L36.1666 47.0771C42.7015 44.6927 50.1052 41.9913 53.2163 33.9117C44.0194 26.1181 42.5668 15.9667 49.4201 7.38585C47.9729 4.88757 45.8519 2.62385 43.1142 0.655424C40.9246 2.44771 37.2612 3.51542 33.2869 3.51542C30.7446 3.51542 28.3788 3.04814 26.7812 2.232C25.1837 3.04657 22.8173 3.51314 20.2737 3.51328H20.2723C16.295 3.51328 12.6296 2.44642 10.439 0.655424C7.70098 2.62728 5.58167 4.89085 4.13751 7.38571C10.9912 15.9663 9.53864 26.1177 0.341625 33.9117Z" fill="#2062AF"/>
<path d="M43.0995 0.115993C43.1345 0.115993 43.1701 0.126565 43.2009 0.147565C46.1509 2.23571 48.4114 4.65342 49.9247 7.33199C49.9594 7.39142 49.9528 7.46414 49.9082 7.51742C43.0424 15.9751 44.486 26.0047 53.6753 33.6939C53.7309 33.7419 53.7516 33.815 53.726 33.8811C50.5861 42.3049 42.6798 45.1909 36.3283 47.5086C32.12 49.0439 28.4865 50.3719 26.9289 52.8734C26.8962 52.9239 26.8406 52.9534 26.7813 52.9534C26.7221 52.9534 26.665 52.9239 26.634 52.8734C25.0747 50.3724 21.4408 49.0447 17.2324 47.509C10.8799 45.1911 2.97223 42.3053 -0.169127 33.8811C-0.193675 33.815 -0.173775 33.7419 -0.11756 33.6939C9.07176 26.0047 10.5158 15.9756 3.64811 7.51742C3.60497 7.46414 3.59858 7.39142 3.63199 7.33199C5.14136 4.65742 7.40187 2.23999 10.3521 0.148137C10.3823 0.126708 10.4179 0.116137 10.4533 0.116137C10.494 0.116137 10.5347 0.13028 10.5666 0.157994C12.8463 2.13685 16.6932 3.06528 20.2632 3.06528C22.7501 3.06528 25.1022 2.61528 26.699 1.75614C26.7248 1.74256 26.7532 1.73571 26.7813 1.73571C26.8095 1.73571 26.8377 1.74256 26.8631 1.75628C28.4191 2.59499 30.7234 3.05428 33.2397 3.05428C33.8117 3.05428 34.3942 3.03057 34.982 2.98214C38.3228 2.70471 41.2387 1.67599 42.9866 0.157994C43.0184 0.130137 43.0587 0.115993 43.0995 0.115993ZM33.2873 3.39428C30.7844 3.39428 28.4139 2.94785 26.7815 2.09528C25.1488 2.94642 22.7776 3.39214 20.2738 3.39214C16.6702 3.39214 12.792 2.46899 10.4446 0.501708C7.62455 2.51842 5.45483 4.83942 3.9899 7.39699C10.8817 15.9649 9.42953 26.0933 0.196342 33.875C3.30864 42.0669 10.7669 44.789 17.3506 47.191C21.4957 48.7051 25.091 50.016 26.7815 52.4729C28.4705 50.016 32.0654 48.7051 36.2098 47.1906C42.7929 44.7884 50.25 42.066 53.362 33.875C44.1286 26.0933 42.6772 15.9649 49.5683 7.39699C48.1001 4.83585 45.9287 2.51485 43.1089 0.501708C40.7624 2.47028 36.8877 3.39428 33.2873 3.39428ZM43.0995 -0.126007C42.9971 -0.126007 42.8987 -0.0894347 42.8226 -0.0225776C41.1153 1.46014 38.2495 2.46771 34.9613 2.74085C34.3872 2.78828 33.8079 2.81214 33.2397 2.81214C30.7578 2.81214 28.4768 2.34999 26.9815 1.54414C26.9208 1.51114 26.8515 1.49357 26.7813 1.49357C26.7123 1.49357 26.6438 1.51057 26.5828 1.54271C25.0695 2.35685 22.7668 2.82314 20.2632 2.82314C16.347 2.82314 12.7831 1.75899 10.7296 -0.0234353C10.6538 -0.0895782 10.5554 -0.126007 10.4533 -0.126007C10.3648 -0.126007 10.2802 -0.0992927 10.2085 -0.0487213C7.2293 2.06385 4.9444 4.50742 3.41672 7.21442C3.33479 7.35999 3.35004 7.53799 3.45535 7.66828C6.78191 11.765 8.19513 16.3266 7.54292 20.8601C6.8894 25.4014 4.18528 29.7756 -0.277053 33.5096C-0.412433 33.6247 -0.460223 33.8029 -0.400377 33.9641C2.78049 42.4944 10.7461 45.4007 17.1468 47.736C21.3115 49.2557 24.9081 50.5684 26.4241 53C26.4977 53.12 26.6349 53.1954 26.7813 53.1954C26.9259 53.1954 27.0586 53.1237 27.1365 53.0036C28.6539 50.5666 32.2499 49.2547 36.4137 47.7356C42.8132 45.4004 50.7775 42.4944 53.9572 33.9644C54.0185 33.8066 53.9719 33.6277 53.8377 33.5119C49.3726 29.7756 46.6685 25.4016 46.0148 20.8599C45.3623 16.3264 46.7752 11.7648 50.1005 7.66856C50.2087 7.53956 50.2244 7.35885 50.1381 7.21128C48.6074 4.50171 46.3212 2.05799 43.3447 -0.0488641C43.2697 -0.10015 43.1859 -0.126007 43.0995 -0.126007ZM33.2873 3.63642C37.2449 3.63642 40.8997 2.58228 43.1188 0.808708C45.7795 2.73542 47.8486 4.94314 49.2724 7.37542C42.448 15.9787 43.8994 26.1343 53.0707 33.9477C49.9616 41.9143 42.6126 44.596 36.1241 46.9634L36.1049 46.9706C32.0792 48.4417 28.5815 49.7199 26.7815 52.0573C24.9794 49.7194 21.4801 48.4411 17.4524 46.9699L17.4363 46.964C10.9466 44.5961 3.59669 41.9144 0.487585 33.9477C9.65918 26.134 11.1105 15.9781 4.28565 7.37528C5.70656 4.94657 7.77417 2.73857 10.435 0.808708C12.655 2.58099 16.3126 3.63428 20.2738 3.63428C22.8443 3.63428 25.1482 3.18528 26.7813 2.36799C28.4142 3.18671 30.7177 3.63642 33.2873 3.63642Z" fill="#2062AF"/>
<path fill-rule="evenodd" clip-rule="evenodd" d="M20.9134 4.73871H19.66C16.4471 4.60457 13.1109 3.95899 10.4552 2.25842C8.59832 3.72285 6.99133 5.38599 5.76172 7.31142C6.87251 8.74457 7.70803 10.3236 8.42575 11.938L9.08871 13.8003L9.53277 15.6786L9.76532 17.562L9.78246 19.4434L9.59334 21.3123L9.22308 23.0489H25.8666V3.96399C24.2924 4.48099 22.5584 4.672 20.9134 4.73871Z" fill="#2062AF"/>
<path fill-rule="evenodd" clip-rule="evenodd" d="M27.668 49.5881C29.2716 48.4217 31.188 47.6316 33.0652 46.8881C35.058 46.1311 37.0694 45.4153 39.0584 44.6427L41.0704 43.7959C42.0623 43.3331 43.0216 42.8527 43.9741 42.3287L45.7885 41.174L47.4714 39.8506L48.2525 39.1157L48.9917 38.321L49.6881 37.4694C50.4173 36.4311 51.094 35.3851 51.5696 34.2279C50.1724 33.0161 48.965 31.6296 47.8545 30.2071L46.692 28.5136L45.7159 26.7683L44.9262 24.9844L44.8234 24.668H27.668V49.5881Z" fill="#2062AF"/>
<path d="M43.0431 2.25943C40.2152 4.06643 36.6077 4.70243 33.1978 4.75072L31.949 4.71443C30.5024 4.61214 28.9975 4.41943 27.6191 3.966V23.0676H44.275L43.9055 21.3297L43.7153 19.4577L43.7325 17.575L43.9639 15.6903L44.4091 13.8103L45.0745 11.9467C45.7922 10.3287 46.6295 8.751 47.7393 7.31629C46.5079 5.39129 44.8977 3.72329 43.0431 2.25943Z" fill="#ED1B35"/>
<path fill-rule="evenodd" clip-rule="evenodd" d="M25.867 24.6678H8.70965L8.60696 24.9844L7.81893 26.7681L6.84294 28.5144L5.67855 30.207C4.56442 31.6294 3.35907 33.0161 1.96387 34.2277C2.44249 35.3851 3.11707 36.4311 3.84482 37.4693L4.53988 38.3208L5.27735 39.1157L6.06334 39.8504L7.74311 41.1739C8.64661 41.7776 9.54474 42.3208 10.5069 42.8491L12.4617 43.7959C15.0881 44.9333 17.7867 45.8703 20.4695 46.888C22.3481 47.6314 24.2632 48.4216 25.867 49.588V24.6678Z" fill="#ED1B35"/>
<path fill-rule="evenodd" clip-rule="evenodd" d="M23.0197 8.36744L22.0067 7.74287L22.3223 7.28901L23.3253 7.89372L23.0197 8.36744ZM15.7975 7.40144L14.5297 7.31144L11.3758 9.10058L10.9883 10.1994L11.3644 10.6826L16.1744 7.7673L15.7975 7.40144ZM13.7238 10.0502L14.7782 9.40272L14.4601 8.99015L13.427 9.61801L13.7238 10.0502ZM16.7944 9.92101L17.0216 8.92258L16.6467 8.4403L11.9829 11.2989L12.4404 11.7959L13.6622 11.8527L16.7944 9.92101ZM18.6881 14.5436L21.445 10.5893L20.4104 9.89644L17.8238 13.4139L15.7911 10.728L14.697 11.4046L17.0431 14.7443L12.6294 20.8426L14.082 21.6439L17.8787 16.3253L21.2328 21.092C21.9954 22.1794 23.6914 21.451 22.8506 20.2903L18.6881 14.5436ZM24.7457 11.0247L23.6218 8.93544L20.4484 6.9873C20.4367 6.94187 18.958 8.67972 18.958 8.67972L22.2628 10.9043L24.7457 11.0247Z" fill="white"/>
<path d="M31.3175 36.3863C30.7878 36.3863 30.3488 35.9976 30.3488 35.5181C30.3488 35.0386 30.7878 34.647 31.3175 34.647C31.8524 34.647 32.2852 35.0386 32.2852 35.5181C32.2852 35.9976 31.8524 36.3863 31.3175 36.3863ZM31.2058 27.4556L29.6331 30.2477L29.6074 30.3178L29.5939 30.3881V30.4533L29.6121 30.5184L29.6433 30.5801L29.6856 30.6374L29.7416 30.6848L29.8044 30.722L29.8796 30.7483L29.9557 30.7596L30.0284 30.7563L30.1035 30.7417L30.171 30.7139L30.2304 30.6781L30.2894 30.6283L30.3322 30.5633L31.9019 27.7744L31.9315 27.7061L31.9403 27.6353V27.5687L31.925 27.5053L31.8933 27.4413L31.8524 27.3843L31.8011 27.337L31.7293 27.3017L31.6583 27.2757L31.5855 27.2634L31.5058 27.2673L31.4349 27.2816L31.3652 27.3078L31.3032 27.3467L31.2471 27.394L31.2058 27.4556ZM31.2471 26.8858L31.2603 26.8164V26.7481L31.2439 26.6833L31.2143 26.6193L31.171 26.5661L31.1156 26.5188L31.0446 26.4808L30.9723 26.4554L30.8993 26.4434L30.821 26.4468L30.7534 26.4621L30.6788 26.4876L30.6186 26.5274L30.5689 26.5756L30.5244 26.6374L28.4914 30.2427L28.4668 30.311L28.4551 30.3818V30.4484L28.4715 30.5131L28.5016 30.5734L28.5428 30.6308L28.6014 30.6781L28.664 30.7157L28.7367 30.7417L28.815 30.7528L28.8877 30.7491L28.9603 30.735L29.032 30.7094L29.0967 30.6706L29.1464 30.6216L29.1894 30.5573L31.2175 26.9518L31.2471 26.8858ZM31.8854 28.2334L30.7266 30.2981L30.6976 30.3677L30.6835 30.4369V30.5047L30.7012 30.5699L30.7336 30.6326L30.7749 30.6876L30.8309 30.735L30.8943 30.7724L30.9689 30.8008L31.0446 30.812L31.119 30.8083L31.1928 30.7917L31.2603 30.7644L31.3261 30.7273L31.3787 30.6781L31.4198 30.6161L32.5819 28.5506L32.6137 28.4797L32.6267 28.4137L32.6237 28.3466L32.6055 28.2788L32.5784 28.2174L32.5352 28.1624L32.4809 28.1151L32.4147 28.0756L32.3362 28.0493L32.2632 28.04L32.1876 28.0406L32.1125 28.0546L32.0496 28.0823L31.9851 28.1234L31.9315 28.1718L31.8854 28.2334ZM30.2275 36.3441C29.6956 36.3441 29.2597 36.7357 29.2597 37.213C29.2597 37.696 29.6956 38.0868 30.2275 38.0868C30.7632 38.0868 31.1961 37.696 31.1961 37.213C31.1961 36.7357 30.7632 36.3441 30.2275 36.3441ZM37.2778 33.7927L37.2661 33.8607V33.9301L37.281 33.9934L37.3123 34.0551L37.3537 34.11L37.4098 34.1608L37.4749 34.1974L37.5477 34.2228L37.6235 34.2326H37.6986L37.7711 34.2184L37.8406 34.192L37.9011 34.1514L37.9573 34.102L37.9983 34.0398L39.5739 31.2493L39.602 31.1786L39.6102 31.1118V31.0448L39.5939 30.9777L39.5633 30.916L39.5188 30.8623L39.4693 30.815L39.4 30.7737L39.3262 30.7483L39.2537 30.7378L39.1777 30.7417L39.1025 30.7544L39.0331 30.7823L38.9753 30.8221L38.9154 30.869L38.8737 30.9338L37.3022 33.7246L37.2778 33.7927ZM36.8597 33.1451L37.256 33.3463L38.5001 31.1336L38.0821 30.9647L36.8597 33.1451ZM41.5004 31.0791L43.1734 31.7088L43.1199 32.7683L43.7513 33.0241L43.611 31.4741L41.4269 30.6706L39.917 31.4693L40.5483 31.7267L41.5004 31.0791ZM31.451 33.7927C31.451 34.2684 31.8854 34.6613 32.4214 34.6613C32.9531 34.6613 33.3892 34.2684 33.3892 33.7927C33.3892 33.3133 32.9531 32.9221 32.4214 32.9221C31.8854 32.9221 31.451 33.3133 31.451 33.7927ZM35.83 32.623L37.0137 30.5216L32.6994 28.7767L31.708 30.5377L35.83 32.623ZM32.4078 36.3441C31.8772 36.3441 31.4412 36.7357 31.4412 37.213C31.4412 37.696 31.8772 38.0868 32.4078 38.0868C32.9449 38.0868 33.3792 37.696 33.3792 37.213C33.3792 36.7357 32.9449 36.3441 32.4078 36.3441ZM44.8646 33.4011L44.8777 33.3327L44.8727 33.2651L44.856 33.1991L44.8244 33.1393L44.7812 33.0838L44.7302 33.034L44.6625 32.9968L44.5872 32.9704L44.5145 32.9597L44.4386 32.9628L44.3635 32.9771L44.2961 33.0053L44.2364 33.0403L44.1778 33.092L44.135 33.1534L42.4171 36.2128L42.3874 36.2808L42.3759 36.3474L42.3791 36.4167L42.3922 36.4828L42.4222 36.5431L42.4652 36.5991L42.5212 36.6478L42.5865 36.685L42.6622 36.7117L42.7366 36.7227L42.8101 36.7191L42.8827 36.7048L42.9524 36.6791L43.0158 36.6404L43.0685 36.5887L43.1097 36.5273L44.8331 33.4698L44.8646 33.4011ZM46.1644 34.003L46.1777 33.9369L46.1741 33.8674L46.1562 33.802L46.1265 33.7424L46.081 33.6844L46.0265 33.6357L45.9619 33.5988L45.8875 33.5746L45.814 33.5631L45.7382 33.5661L45.6631 33.5791L45.5957 33.6067L45.5326 33.6438L45.4809 33.6926L45.436 33.7567L43.7182 36.813L43.687 36.8824L43.6754 36.9511V37.0196L43.6921 37.0854L43.7217 37.1453L43.7643 37.2006L43.8231 37.2513L43.8861 37.2874L43.957 37.3138L44.0387 37.3246L44.11 37.3231L44.1825 37.3078L44.2529 37.2824L44.3173 37.2436L44.3683 37.192L44.4121 37.1287L46.1346 34.0711L46.1644 34.003ZM44.9157 33.7294L43.4004 36.4231L43.6027 36.5236L45.1264 33.8141L44.9157 33.7294ZM34.4943 35.4596C34.4943 35.0094 34.0907 34.6438 33.5916 34.6438C33.0926 34.6438 32.686 35.0094 32.686 35.4596C32.686 35.9053 33.0926 36.2716 33.5916 36.2716C34.0907 36.2716 34.4943 35.9053 34.4943 35.4596ZM48.7818 36.6936L48.7424 36.5431L48.6797 36.4066L48.5796 36.279L48.4555 36.1698L48.303 36.0851L48.1405 36.0287L47.968 36.0024L47.7994 36.0083L47.6315 36.043L47.4772 36.1016L47.3395 36.1869L47.2205 36.3004L47.1238 36.4338L47.0596 36.582L47.0298 36.7374L47.038 36.8908L47.0725 37.0381L47.1402 37.1777L47.2371 37.3034L47.3594 37.4101L47.5121 37.4976L47.6746 37.5524L47.8488 37.5783L48.0213 37.5753L48.1833 37.5413L48.3393 37.4827L48.4807 37.3923L48.5963 37.2843L48.6961 37.1478L48.7606 36.998L48.7856 36.8471L48.7818 36.6936ZM47.1155 35.9236L47.1453 35.7733L47.1681 35.6278L47.1717 35.4833L47.1575 35.3437L47.1402 35.2097L47.1056 35.0791L47.0547 34.959L46.9999 34.8444L46.9251 34.7373L46.8455 34.6421L46.7506 34.5577L46.6463 34.482L46.5295 34.4206L46.2254 34.296L44.6573 37.0854L44.9487 37.23L45.0752 37.2788L45.2041 37.312L45.3336 37.3271L45.4664 37.3307L45.6051 37.3197L45.7412 37.2954L45.8785 37.258L46.0168 37.2027L46.1529 37.1403L46.2799 37.0638L46.4097 36.9736L46.5295 36.8766L46.6417 36.7634L46.7506 36.643L46.8488 36.5094L46.9331 36.3683L47.0082 36.2223L47.0693 36.0721L47.1155 35.9236ZM36.3416 33.4996L36.4065 33.4597L36.4582 33.4096L36.5014 33.348L38.0716 30.5573L38.105 30.489L38.1165 30.4211L38.1131 30.3517L38.0944 30.2864L38.0677 30.2247L38.025 30.1684L37.9702 30.1201L37.9011 30.0827L37.8273 30.059L37.7549 30.0474L37.6771 30.0487L37.6037 30.0634L37.5362 30.0893L37.4749 30.1287L37.4179 30.1817L37.3754 30.242L35.8086 33.031L35.7788 33.1036L35.7648 33.1678V33.2364L35.7835 33.3039L35.8136 33.3641L35.8561 33.4196L35.9109 33.4663L35.977 33.5077L36.0537 33.5318L36.1263 33.5434L36.2015 33.5416L36.2742 33.5256L36.3416 33.4996ZM39.6283 31.5783L38.3402 33.8643L42.3296 35.9007L43.8019 33.2841L39.6283 31.5783ZM34.6111 36.4187C34.0734 36.4187 33.6386 36.8088 33.6386 37.2883C33.6386 37.7678 34.0734 38.1579 34.6111 38.1579C35.1425 38.1579 35.5766 37.7678 35.5766 37.2883C35.5766 36.8088 35.1425 36.4187 34.6111 36.4187ZM39.5316 36.2031L39.4379 36.1083L39.356 36.0381L39.2749 35.989L39.2023 35.9526L39.1241 35.9298L39.0415 35.9186L38.9536 35.9137L38.8606 35.9186L38.7765 35.9298L38.6962 35.9508L38.6204 35.986L38.543 36.0363L38.4557 36.1028L38.3666 36.1904L38.2703 36.3054L36.9161 37.9717H40.9744L39.6318 36.3179L39.5316 36.2031ZM41.5136 37.245L39.6318 34.9266L39.5316 34.8121L39.4379 34.7184L39.356 34.6488L39.2749 34.5997L39.2023 34.5663L39.1241 34.5448L39.0415 34.529L38.9536 34.5246L38.8606 34.529L38.7765 34.543L38.6962 34.5644L38.6204 34.598L38.543 34.647L38.4557 34.7154L38.3666 34.804L38.2703 34.9159L36.4284 37.184L36.3072 37.3714L36.2611 37.53L36.2692 37.662L36.3207 37.7697L36.4065 37.8581L36.5146 37.9226L36.636 37.9601L36.7222 37.9686L38.1429 36.2223L38.2434 36.1016L38.3454 36.0041L38.4424 35.9236L38.543 35.8637L38.6419 35.8231L38.7415 35.7937L38.8439 35.78L38.9536 35.7716L39.0547 35.78L39.1596 35.7954L39.262 35.8231L39.356 35.867L39.4559 35.929L39.5505 36.0083L39.6533 36.1091L39.7554 36.2326L41.1687 37.9717H41.277L41.3759 37.9633L41.4804 37.9341L41.5778 37.8874L41.6506 37.8179L41.6994 37.7308L41.7092 37.6097L41.6506 37.4516L41.5136 37.245Z" fill="white"/>
<path fill-rule="evenodd" clip-rule="evenodd" d="M15.5569 36.3864L8.81055 37.235L10.3639 27.7307C12.306 26.3396 13.8179 26.0479 15.5617 27.5199L15.5569 36.3864ZM16.2286 36.3864V27.5199C17.9329 26.097 19.3554 26.4074 21.3266 27.7307L22.8814 37.235L16.2286 36.3864Z" fill="white"/>
<path fill-rule="evenodd" clip-rule="evenodd" d="M22.6511 28.3043C20.569 26.2891 18.0717 25.3897 15.8581 27.2674C13.6402 25.3897 11.1431 26.2891 9.0589 28.3043L7.08789 38.7076L14.1872 37.6509C14.5154 38.1646 15.0758 38.4234 15.8581 38.4331C16.6427 38.4234 17.1984 38.1646 17.5295 37.6509L24.6291 38.7076L22.6511 28.3043ZM15.5566 36.3864L8.81022 37.235L10.3636 27.7307C12.3057 26.3396 13.8176 26.0479 15.5614 27.5199L15.5566 36.3864ZM16.2283 36.3864V27.5199C17.9326 26.097 19.3551 26.4074 21.3262 27.7307L22.8811 37.235L16.2283 36.3864Z" fill="#2062AF"/>
<path d="M35.0836 14.04C34.9367 13.8643 34.8459 13.6596 34.8459 13.454C34.8459 13.1917 34.9367 13.0157 35.1131 12.8399C35.2623 12.6929 35.4706 12.6057 35.7083 12.6057C35.9461 12.6057 36.1543 12.6929 36.3332 12.8689C36.4831 13.0157 36.5712 13.221 36.5712 13.454C36.5712 13.6883 36.4832 13.893 36.3036 14.069C36.1251 14.216 35.9168 14.3029 35.7083 14.3029C35.4415 14.3029 35.2623 14.216 35.0836 14.04ZM41.5293 17.6582C42.5485 19.4997 42.7868 20.6209 42.2557 21.0769C42.1036 21.2094 41.9186 21.2797 41.6924 21.2797C41.1041 21.2797 40.2433 20.8152 38.9839 19.844C38.0101 19.0836 36.9872 18.1519 35.9421 17.0689L35.9246 17.0536C35.894 17.0264 35.8648 16.9993 35.8373 16.972C35.7736 17.043 35.7072 17.1177 35.6449 17.1866C34.5607 18.3813 33.5485 19.3796 32.5507 20.2382C31.2302 21.3112 30.314 21.8237 29.692 21.8237C29.488 21.8237 29.3152 21.7693 29.17 21.6616C28.5619 21.1947 28.7503 20.0902 29.7789 18.0747C30.2965 17.047 30.9417 15.9627 31.7522 14.7623C31.7684 14.7389 31.7832 14.7187 31.7984 14.6967C31.5999 14.6563 31.4025 14.6214 31.2104 14.5873L31.071 14.5643C29.5934 14.2587 28.9521 13.8886 28.9846 13.3663C28.9936 12.8634 29.666 12.5033 31.0939 12.2342C31.3211 12.1903 31.5586 12.156 31.8005 12.1249C31.0132 11.0093 30.4183 10.0792 29.9454 9.21744C28.9238 7.37201 28.6895 6.28729 29.2082 5.80215C29.2125 5.79829 29.2172 5.79444 29.222 5.79101C29.7811 5.33501 30.8508 5.74015 32.4906 7.02886C33.4725 7.79029 34.4003 8.63072 35.3279 9.59686C35.4207 9.69172 35.5099 9.78615 35.6026 9.88229C35.6218 9.86258 35.6449 9.84186 35.6722 9.82286C36.7987 8.56172 37.8689 7.51801 38.8529 6.71987C40.5482 5.29172 41.6134 4.83244 42.2034 5.27544C42.7965 5.75415 42.6143 6.85629 41.6209 8.85687C41.074 9.91501 40.3864 11.0379 39.5821 12.208C39.8534 12.2509 40.1002 12.295 40.3626 12.358C41.7932 12.6606 42.4334 13.0273 42.4334 13.5427C42.4334 14.044 41.7939 14.3767 40.2957 14.6614C40.1049 14.6969 39.8974 14.7322 39.6873 14.7682C40.4317 15.7796 41.0504 16.7506 41.5293 17.6582ZM39.2569 12.6709C39.1722 12.793 39.0853 12.9126 38.9976 13.0354C38.8976 13.1794 38.7957 13.3194 38.6915 13.4599C38.8683 13.685 39.0411 13.9099 39.2088 14.13L39.2243 14.1506C39.2648 14.2056 39.3029 14.257 39.3437 14.3092C39.3584 14.3074 39.3739 14.3062 39.3879 14.3046L39.4877 14.2877C39.7332 14.2462 39.9766 14.2049 40.1989 14.161C41.8698 13.8467 41.9183 13.5456 41.9183 13.5427C41.9183 13.5289 41.8995 13.2032 40.2501 12.8522C39.9505 12.7837 39.6771 12.7372 39.3562 12.6853C39.3553 12.6853 39.3546 12.6852 39.3537 12.6849C39.3196 12.6797 39.289 12.6757 39.2569 12.6709ZM36.7512 15.1259L36.8523 14.9942C36.4734 15.0006 36.0846 15.0012 35.6805 15.0012C35.4328 14.9893 35.2052 14.9834 34.9802 14.9776C34.8876 14.9753 34.7992 14.9706 34.7088 14.9684C35.0877 15.399 35.4642 15.8067 35.8309 16.2036C36.1363 15.8533 36.4476 15.4867 36.7512 15.1259ZM35.5767 10.6923C35.255 11.0444 34.9183 11.4416 34.5349 11.9186C34.9334 11.907 35.3323 11.9027 35.7467 11.9177H35.7531C36.094 11.9177 36.4348 11.9266 36.7625 11.9423C36.397 11.503 36.0129 11.0687 35.6162 10.6396C35.6109 10.6494 35.6055 10.6563 35.5998 10.6637C35.5965 10.6686 35.5929 10.6732 35.5892 10.6777C35.5852 10.6827 35.5814 10.6879 35.5767 10.6923ZM38.576 12.7439C38.6123 12.6919 38.6462 12.6424 38.6819 12.5923C38.4351 12.5637 38.1921 12.5393 37.9507 12.523C38.0747 12.6726 38.1995 12.83 38.3197 12.993C38.3339 13.0104 38.347 13.0276 38.3609 13.045C38.4314 12.9482 38.5025 12.848 38.5714 12.75C38.5727 12.7483 38.574 12.746 38.5754 12.7443C38.5754 12.7443 38.5757 12.744 38.576 12.7439ZM33.4435 12.4729C33.201 12.4889 32.9688 12.5079 32.7391 12.5317C32.8459 12.6677 32.9529 12.8089 33.0667 12.9542C33.1862 12.793 33.3133 12.6323 33.4435 12.4729ZM33.0766 13.8073C32.9553 13.9582 32.8285 14.1264 32.6922 14.3097C32.9734 14.341 33.2615 14.368 33.5511 14.3943C33.387 14.1954 33.2292 14.0003 33.0766 13.8073ZM34.2569 14.4442C34.2741 14.4456 34.2899 14.4466 34.3069 14.4474C34.5345 14.4596 34.7624 14.4652 34.9938 14.4712C35.2225 14.4767 35.4547 14.483 35.6937 14.4949C36.234 14.4944 36.7545 14.4936 37.2571 14.4774C37.4161 14.2827 37.5864 14.067 37.768 13.8252C37.7688 13.8239 37.7701 13.8226 37.7713 13.821V13.8207C37.7716 13.8203 37.772 13.8199 37.7725 13.8194C37.8577 13.7081 37.9507 13.5914 38.0422 13.469C37.9999 13.4162 37.9591 13.363 37.916 13.3083C37.9138 13.3062 37.9121 13.3037 37.9097 13.3012C37.9077 13.2984 37.9058 13.2957 37.9039 13.2929C37.6947 13.0082 37.4638 12.7344 37.2449 12.4792C36.7744 12.4437 36.2608 12.4239 35.7368 12.4239C35.1803 12.404 34.6497 12.4183 34.1182 12.4393C34.0979 12.4667 34.077 12.494 34.0571 12.5216C34.0199 12.5723 33.9854 12.6197 33.9507 12.6633C33.9507 12.6633 33.95 12.6637 33.95 12.6642H33.9498L33.9496 12.6646C33.9485 12.666 33.9472 12.6672 33.9459 12.669C33.7498 12.9022 33.5645 13.141 33.3893 13.3777C33.6282 13.683 33.8871 13.9949 34.1545 14.3179L34.2569 14.4442ZM37.9471 14.4363C38.2162 14.4167 38.4832 14.3954 38.7469 14.3693C38.6234 14.2102 38.5001 14.0467 38.3734 13.8826C38.3088 13.9662 38.2432 14.0492 38.1825 14.1264C38.1023 14.2359 38.0226 14.3366 37.9471 14.4363ZM35.955 10.255C36.3873 10.7172 36.8048 11.1886 37.201 11.6652C37.2956 11.752 37.3837 11.8556 37.4716 11.959C37.4805 11.969 37.4898 11.98 37.4987 11.9903C38.0044 12.0079 38.4969 12.0504 39.0163 12.1236C39.871 10.8999 40.5908 9.72615 41.1599 8.63044C42.2907 6.34958 42.0419 5.80101 41.8828 5.67301C41.7652 5.58401 41.201 5.40887 39.1861 7.10629C38.2113 7.89872 37.1524 8.93344 36.0349 10.1846C36.0167 10.2053 35.9949 10.2229 35.97 10.2389C35.9659 10.2432 35.9627 10.2469 35.9596 10.2504C35.9576 10.2523 35.9567 10.2533 35.955 10.255ZM30.3989 8.97329C30.8943 9.87729 31.5243 10.8584 32.3806 12.0549C32.8383 12.0099 33.3258 11.9657 33.8576 11.9427C34.3587 11.3113 34.7833 10.8033 35.1838 10.3613C35.2087 10.3273 35.2332 10.2949 35.2578 10.2636C35.159 10.158 35.0582 10.0546 34.9579 9.95029C34.9569 9.94944 34.9561 9.94858 34.9547 9.94744C34.0422 8.99872 33.1325 8.17401 32.1697 7.42687C30.6279 6.21387 29.8112 5.98558 29.5571 6.17701C29.4445 6.29401 29.2075 6.82058 30.3989 8.97329ZM31.2957 14.0876C31.5471 14.1289 31.8047 14.1716 32.0702 14.234C32.083 14.2359 32.0958 14.2372 32.109 14.239C32.3321 13.9286 32.5414 13.6514 32.731 13.4157C32.7372 13.406 32.7444 13.3964 32.7513 13.387C32.7391 13.3709 32.7269 13.3554 32.7149 13.337C32.5118 13.0779 32.3253 12.834 32.142 12.593C31.8124 12.6317 31.4908 12.6739 31.1947 12.734C29.5737 13.0383 29.5019 13.3729 29.5019 13.3762C29.5019 13.3824 29.5018 13.3889 29.5015 13.3954C29.5009 13.3983 29.4959 13.7184 31.1695 14.0666L31.2957 14.0876ZM35.2607 16.8457C35.3368 16.7646 35.4142 16.6779 35.49 16.5906L35.4691 16.5683C34.9945 16.0554 34.5037 15.5219 34.0043 14.9419C34.0033 14.9409 34.0023 14.9397 34.0017 14.9387V14.9384C34.001 14.9379 34.0007 14.9373 34 14.9369L33.9984 14.9349C33.4348 14.8979 32.8941 14.8479 32.3615 14.7813C32.3408 14.813 32.3205 14.8433 32.2999 14.8724C32.2627 14.9244 32.2252 14.9767 32.1877 15.0374C32.1873 15.0382 32.1867 15.0383 32.1867 15.0389V15.0392C32.1855 15.0409 32.1845 15.0419 32.1837 15.0434C31.384 16.2242 30.7492 17.2909 30.2407 18.3016C29.1125 20.514 29.284 21.1037 29.4866 21.2592C29.6409 21.3744 30.219 21.4743 32.2176 19.8512C33.1916 19.0113 34.1895 18.0264 35.2593 16.8476C35.2601 16.8472 35.2604 16.8463 35.2607 16.8457ZM41.074 17.8959C40.5685 16.9416 39.9078 15.9176 39.1058 14.8467C38.5952 14.8984 38.0461 14.9379 37.512 14.9749L37.1614 15.4354C37.1596 15.4377 37.1579 15.4397 37.1564 15.442H37.156V15.4423C37.1547 15.4443 37.1529 15.4462 37.1513 15.4479C36.831 15.8263 36.502 16.213 36.1781 16.5857C36.2102 16.6169 36.2396 16.6487 36.274 16.6814L36.3058 16.71C37.3454 17.7843 38.3504 18.7004 39.3028 19.4453C41.1714 20.8887 41.7419 20.8493 41.9149 20.6959C42.1367 20.505 42.0464 19.6584 41.074 17.8959Z" fill="white"/>
</svg>
