<svg width="29" height="28" viewBox="0 0 29 28" fill="none" xmlns="http://www.w3.org/2000/svg">
    <g clip-path="url(#clip0_20_1287)">
    <path d="M29 14C29 6.26801 22.5081 0 14.5 0C6.49187 0 0 6.26801 0 14C0 20.9877 5.30241 26.7796 12.2344 27.8299V18.0469H8.55273V14H12.2344V10.9156C12.2344 7.40688 14.3992 5.46875 17.7112 5.46875C19.2972 5.46875 20.957 5.74219 20.957 5.74219V9.1875H19.1287C17.3275 9.1875 16.7656 10.2668 16.7656 11.375V14H20.7871L20.1442 18.0469H16.7656V27.8299C23.6976 26.7796 29 20.9877 29 14Z" fill="black"/>
    </g>
    <defs>
    <clipPath id="clip0_20_1287">
    <rect width="29" height="28" fill="white"/>
    </clipPath>
    </defs>
</svg>
