<svg width="29" height="28" viewBox="0 0 29 28" fill="none" xmlns="http://www.w3.org/2000/svg">
    <g clip-path="url(#clip0_20_1288)">
    <path d="M9.12311 25.3749C20.0638 25.3749 26.0496 16.621 26.0496 9.03205C26.0496 8.78595 26.0439 8.53439 26.0326 8.2883C27.197 7.47525 28.2019 6.46817 29 5.31439C27.9155 5.78024 26.7642 6.08449 25.5851 6.21674C26.8265 5.49827 27.7561 4.3696 28.2014 3.03994C27.0335 3.70819 25.7563 4.17959 24.4246 4.43392C23.5273 3.51337 22.3409 2.90385 21.0488 2.6996C19.7567 2.49536 18.4309 2.70777 17.2764 3.30399C16.1219 3.90021 15.203 4.84703 14.6617 5.99807C14.1205 7.14912 13.987 8.44026 14.2819 9.67189C11.9172 9.55732 9.60376 8.9642 7.49164 7.93099C5.37953 6.89779 3.51588 5.44755 2.0215 3.67431C1.26198 4.93866 1.02957 6.4348 1.3715 7.85865C1.71342 9.2825 2.60403 10.5272 3.86232 11.3399C2.91768 11.3109 1.99372 11.0653 1.1668 10.6235V10.6945C1.16595 12.0214 1.64103 13.3076 2.51129 14.3344C3.38155 15.3613 4.59327 16.0655 5.94047 16.3274C5.0654 16.5585 4.14698 16.5922 3.25627 16.4258C3.63642 17.5669 4.37607 18.5649 5.37197 19.2806C6.36788 19.9963 7.57035 20.3939 8.81158 20.418C6.70435 22.0162 4.10129 22.883 1.42168 22.8789C0.946472 22.8782 0.471732 22.8501 0 22.7947C2.7222 24.4809 5.88885 25.3765 9.12311 25.3749Z" fill="black"/>
    </g>
    <defs>
    <clipPath id="clip0_20_1288">
    <rect width="29" height="28" fill="white"/>
    </clipPath>
    </defs>
</svg>
