<svg width="325" height="86" viewBox="0 0 325 86" fill="none" xmlns="http://www.w3.org/2000/svg">
<g clip-path="url(#clip0_20_1220)">
<path d="M324.511 54.4142C324.511 54.736 324.249 54.9993 323.93 54.9993H63.749C63.4294 54.9993 63.168 54.736 63.168 54.4142V43.8179C63.168 43.4962 63.4294 43.2329 63.749 43.2329H323.93C324.249 43.2329 324.511 43.4962 324.511 43.8179V54.4142Z" fill="#FFCB05"/>
<path d="M110.262 45.7808H108.597C108.477 45.7808 108.379 45.8788 108.379 46V48.4125H105.929V46C105.929 45.8788 105.831 45.7808 105.711 45.7808H104.046C103.926 45.7808 103.828 45.8788 103.828 46V52.4396C103.828 52.5609 103.926 52.6589 104.046 52.6589H105.711C105.831 52.6589 105.929 52.5609 105.929 52.4396V49.9638H108.379V52.4396C108.379 52.5609 108.477 52.6589 108.597 52.6589H110.262C110.382 52.6589 110.48 52.5609 110.48 52.4396V46C110.48 45.8788 110.382 45.7808 110.262 45.7808Z" fill="#2062AF"/>
<path d="M116.244 45.9041C116.207 45.8287 116.131 45.7808 116.048 45.7808H114.742C114.659 45.7808 114.583 45.8287 114.547 45.9043L111.445 52.3438C111.412 52.4118 111.416 52.4921 111.456 52.556C111.496 52.62 111.565 52.6589 111.641 52.6589H113.377C113.462 52.6589 113.54 52.6085 113.575 52.5303L114.032 51.5192H116.781L117.226 52.5287C117.261 52.608 117.339 52.6589 117.425 52.6589H119.162C119.237 52.6589 119.307 52.62 119.346 52.5559C119.386 52.4918 119.39 52.4115 119.358 52.3437L116.244 45.9041ZM116.143 50.0225H114.7L115.434 48.4283L116.143 50.0225Z" fill="#2062AF"/>
<path d="M127.75 51.0987H126.974V46C126.974 45.8786 126.876 45.7808 126.756 45.7808H125.091C124.971 45.7808 124.873 45.8786 124.873 46V51.0987H122.423V46C122.423 45.8786 122.325 45.7808 122.205 45.7808H120.54C120.42 45.7808 120.322 45.8786 120.322 46V52.4396C120.322 52.5607 120.42 52.6589 120.54 52.6589H125.927V53.8684C125.927 53.9898 126.025 54.0878 126.145 54.0878H127.75C127.87 54.0878 127.968 53.9898 127.968 53.8684V51.3181C127.968 51.197 127.87 51.0987 127.75 51.0987Z" fill="#2062AF"/>
<path d="M131.056 45.7808H129.391C129.271 45.7808 129.174 45.8788 129.174 46V52.4396C129.174 52.5609 129.271 52.6589 129.391 52.6589H131.056C131.177 52.6589 131.274 52.5609 131.274 52.4396V46C131.274 45.8788 131.177 45.7808 131.056 45.7808Z" fill="#2062AF"/>
<path d="M138.663 46.4772C138.025 45.9862 137.184 45.7266 136.231 45.7266C135.269 45.7266 134.424 45.9862 133.787 46.477C133.079 47.0212 132.863 47.6007 132.863 48.9576V49.4913C132.863 50.1895 132.863 51.2446 133.787 51.9624C134.424 52.4536 135.269 52.713 136.231 52.713C137.21 52.713 138.029 52.4602 138.663 51.962C139.598 51.2357 139.598 50.2898 139.598 49.4551V48.7677C139.598 47.6674 139.318 46.9823 138.663 46.4772ZM137.156 50.8618C136.933 51.0524 136.613 51.153 136.231 51.153C135.865 51.153 135.547 51.0523 135.283 50.8532C134.986 50.629 134.963 50.1323 134.963 49.4551V49.1293C134.963 48.3809 134.987 47.8318 135.294 47.5779C135.513 47.3901 135.845 47.2867 136.231 47.2867C136.613 47.2867 136.933 47.3873 137.156 47.5779C137.156 47.5785 137.157 47.5792 137.158 47.5798C137.409 47.7898 137.498 48.0515 137.498 49.1024C137.498 50.385 137.425 50.63 137.156 50.8618Z" fill="#2062AF"/>
<path d="M147.403 45.7808H145.738C145.618 45.7808 145.521 45.8788 145.521 46V48.4125H143.07V46C143.07 45.8788 142.973 45.7808 142.852 45.7808H141.187C141.067 45.7808 140.97 45.8788 140.97 46V52.4396C140.97 52.5609 141.067 52.6589 141.187 52.6589H142.852C142.973 52.6589 143.07 52.5609 143.07 52.4396V49.9638H145.521V52.4396C145.521 52.5609 145.618 52.6589 145.738 52.6589H147.403C147.524 52.6589 147.621 52.5609 147.621 52.4396V46C147.621 45.8788 147.523 45.7808 147.403 45.7808Z" fill="#2062AF"/>
<path d="M153.385 45.9041C153.349 45.8287 153.273 45.7808 153.19 45.7808H151.884C151.801 45.7808 151.725 45.8287 151.688 45.9043L148.586 52.3438C148.553 52.4118 148.558 52.4921 148.597 52.556C148.637 52.62 148.707 52.6589 148.782 52.6589H150.519C150.604 52.6589 150.682 52.6085 150.717 52.5303L151.174 51.5192H153.922L154.368 52.5287C154.403 52.608 154.481 52.6589 154.567 52.6589H156.303C156.378 52.6589 156.448 52.62 156.488 52.5559C156.528 52.4918 156.532 52.4115 156.499 52.3437L153.385 45.9041ZM153.284 50.0225H151.842L152.575 48.4283L153.284 50.0225Z" fill="#2062AF"/>
<path d="M163.898 45.7808H158.592C158.472 45.7808 158.374 45.8788 158.374 46V48.9214C158.374 50.9307 157.76 51.0987 157.131 51.0987H156.892C156.771 51.0987 156.674 51.1969 156.674 51.3181V52.4396C156.674 52.5609 156.771 52.6589 156.892 52.6589H157.55C159.612 52.6589 160.415 51.6312 160.415 48.9938V47.3408H162.015V52.4396C162.015 52.5609 162.113 52.6589 162.233 52.6589H163.898C164.018 52.6589 164.115 52.5609 164.115 52.4396V46C164.115 45.8788 164.018 45.7808 163.898 45.7808Z" fill="#2062AF"/>
<path d="M169.357 48.2046H167.887V46C167.887 45.8788 167.789 45.7808 167.669 45.7808H166.004C165.884 45.7808 165.786 45.8788 165.786 46V52.4396C165.786 52.5607 165.884 52.6589 166.004 52.6589H169.357C171.115 52.6589 172.342 51.7428 172.342 50.4316C172.342 49.1206 171.115 48.2046 169.357 48.2046ZM167.887 49.7647H169.226C169.843 49.7647 170.242 50.0265 170.242 50.4316C170.242 50.9236 169.717 51.0987 169.226 51.0987H167.887V49.7647Z" fill="#2062AF"/>
<path d="M180.066 45.7808H178.401C178.281 45.7808 178.183 45.8788 178.183 46V48.4125H175.732V46C175.732 45.8788 175.635 45.7808 175.515 45.7808H173.85C173.729 45.7808 173.632 45.8788 173.632 46V52.4396C173.632 52.5609 173.729 52.6589 173.85 52.6589H175.515C175.635 52.6589 175.732 52.5609 175.732 52.4396V49.9638H178.183V52.4396C178.183 52.5609 178.281 52.6589 178.401 52.6589H180.066C180.186 52.6589 180.283 52.5609 180.283 52.4396V46C180.283 45.8788 180.186 45.7808 180.066 45.7808Z" fill="#2062AF"/>
<path d="M188.627 45.7808H187.142C187.077 45.7808 187.015 45.8105 186.973 45.8619L184.043 49.5052V46C184.043 45.8788 183.945 45.7808 183.825 45.7808H182.16C182.04 45.7808 181.942 45.8788 181.942 46V52.4396C181.942 52.5609 182.04 52.6589 182.16 52.6589H183.645C183.711 52.6589 183.773 52.6289 183.814 52.5775L186.745 48.9265V52.4396C186.745 52.5609 186.843 52.6589 186.963 52.6589H188.627C188.748 52.6589 188.845 52.5609 188.845 52.4396V46C188.845 45.8788 188.748 45.7808 188.627 45.7808Z" fill="#2062AF"/>
<path d="M193.968 45.8759C195.273 45.8759 196.08 45.3144 196.126 44.374C196.129 44.314 196.107 44.2556 196.066 44.2122C196.025 44.1688 195.968 44.144 195.909 44.144H194.735C194.622 44.144 194.528 44.2306 194.518 44.3434C194.508 44.4516 194.486 44.7047 193.968 44.7047C193.452 44.7047 193.429 44.4516 193.419 44.3434C193.409 44.2306 193.315 44.144 193.202 44.144H192.028C191.969 44.144 191.912 44.1688 191.871 44.2122C191.83 44.2556 191.808 44.314 191.811 44.374C191.857 45.3144 192.663 45.8759 193.968 45.8759Z" fill="#2062AF"/>
<path d="M197.19 45.7808H195.705C195.639 45.7808 195.577 45.8105 195.535 45.8621L192.605 49.5052V46C192.605 45.8788 192.508 45.7808 192.387 45.7808H190.723C190.602 45.7808 190.505 45.8788 190.505 46V52.4396C190.505 52.5609 190.602 52.6589 190.723 52.6589H192.208C192.273 52.6589 192.336 52.6289 192.377 52.5775L195.307 48.9265V52.4396C195.307 52.5609 195.405 52.6589 195.525 52.6589H197.19C197.31 52.6589 197.408 52.5609 197.408 52.4396V46C197.408 45.8788 197.31 45.7808 197.19 45.7808Z" fill="#2062AF"/>
<path d="M209.392 45.7808H207.668C207.586 45.7808 207.512 45.826 207.475 45.8981L206.041 48.6485L204.455 45.8902C204.416 45.8224 204.344 45.7808 204.266 45.7808H202.529C202.45 45.7808 202.378 45.8238 202.339 45.8932C202.301 45.9623 202.302 46.0472 202.344 46.115L205.007 50.472L204.822 50.7986C204.745 50.9274 204.589 51.0987 204.122 51.0987H203.452C203.331 51.0987 203.234 51.1969 203.234 51.3181V52.4396C203.234 52.5609 203.331 52.6589 203.452 52.6589H204.47C205.647 52.6589 206.258 52.0083 206.563 51.4625L209.582 46.1081C209.62 46.0402 209.619 45.9571 209.58 45.8897C209.541 45.8223 209.47 45.7808 209.392 45.7808Z" fill="#2062AF"/>
<path d="M216.975 45.7808H215.31C215.19 45.7808 215.092 45.8788 215.092 46V48.4125H212.642V46C212.642 45.8788 212.544 45.7808 212.424 45.7808H210.759C210.638 45.7808 210.541 45.8788 210.541 46V52.4396C210.541 52.5609 210.638 52.6589 210.759 52.6589H212.424C212.544 52.6589 212.642 52.5609 212.642 52.4396V49.9638H215.092V52.4396C215.092 52.5609 215.19 52.6589 215.31 52.6589H216.975C217.095 52.6589 217.193 52.5609 217.193 52.4396V46C217.193 45.8788 217.095 45.7808 216.975 45.7808Z" fill="#2062AF"/>
<path d="M220.952 45.7808H219.287C219.167 45.7808 219.069 45.8788 219.069 46V52.4396C219.069 52.5609 219.167 52.6589 219.287 52.6589H220.952C221.072 52.6589 221.17 52.5609 221.17 52.4396V46C221.17 45.8788 221.072 45.7808 220.952 45.7808Z" fill="#2062AF"/>
<path d="M229.053 49.3107C229.051 49.3092 229.049 49.3081 229.048 49.3065C228.952 49.2344 228.868 49.1785 228.769 49.125C229.282 48.7962 229.542 48.3431 229.542 47.7728C229.542 46.5627 228.422 45.7808 226.689 45.7808H223.264C223.143 45.7808 223.046 45.8788 223.046 46V52.4398C223.046 52.5609 223.143 52.659 223.264 52.659H226.833C228.551 52.659 229.661 51.8486 229.661 50.5944C229.661 50.06 229.462 49.6401 229.053 49.3107ZM227.561 50.5222C227.561 50.9475 227.098 51.0989 226.665 51.0989H225.146V49.9548H226.665C226.876 49.9548 227.561 49.9956 227.561 50.5222ZM226.557 48.3856H225.147V47.3408H226.557C226.765 47.3408 227.442 47.3785 227.442 47.8632C227.442 48.3479 226.765 48.3856 226.557 48.3856Z" fill="#2062AF"/>
<path d="M237.086 45.7808H231.469C231.348 45.7808 231.251 45.8788 231.251 46V52.4396C231.251 52.5609 231.348 52.6589 231.469 52.6589H237.086C237.206 52.6589 237.303 52.5609 237.303 52.4396V51.3181C237.303 51.1969 237.206 51.0987 237.086 51.0987H233.351V49.9727H236.499C236.619 49.9727 236.717 49.8745 236.717 49.7533V48.6318C236.717 48.5107 236.619 48.4125 236.499 48.4125H233.351V47.3408H237.086C237.206 47.3408 237.303 47.2428 237.303 47.1215V46C237.303 45.8788 237.206 45.7808 237.086 45.7808Z" fill="#2062AF"/>
<path d="M242.344 45.7808H239.039C238.919 45.7808 238.821 45.8788 238.821 46V52.4398C238.821 52.5609 238.919 52.659 239.039 52.659H240.704C240.824 52.659 240.921 52.5609 240.921 52.4398V50.2351H242.344C244.13 50.2351 245.377 49.3192 245.377 48.0078C245.377 46.7175 244.101 45.7808 242.344 45.7808ZM243.276 48.0078C243.276 48.4077 242.878 48.666 242.261 48.666H240.921V47.3408H242.261C242.878 47.3408 243.276 47.6027 243.276 48.0078Z" fill="#2062AF"/>
<path d="M248.823 47.5678C249.032 47.3864 249.36 47.2867 249.746 47.2867C250.398 47.2867 250.812 47.5432 250.977 48.049C251.006 48.1392 251.09 48.1999 251.184 48.1999H252.873C252.939 48.1999 253.001 48.1698 253.043 48.1179C253.084 48.066 253.099 47.9978 253.085 47.9327C252.778 46.5513 251.526 45.7266 249.735 45.7266C248.78 45.7266 247.963 45.9787 247.305 46.4758C246.378 47.1757 246.378 48.0395 246.379 49.1328V49.3073C246.378 50.4005 246.378 51.2639 247.305 51.9639C247.963 52.461 248.78 52.7132 249.735 52.7132C251.526 52.7132 252.778 51.8884 253.085 50.507C253.099 50.4419 253.084 50.3739 253.043 50.322C253.001 50.2701 252.939 50.2397 252.873 50.2397H251.184C251.09 50.2397 251.006 50.3006 250.977 50.3907C250.812 50.8967 250.398 51.1532 249.746 51.1532C249.36 51.1532 249.032 51.0533 248.82 50.8693C248.578 50.6664 248.479 50.4602 248.479 49.2201C248.479 47.9797 248.578 47.7734 248.823 47.5678Z" fill="#2062AF"/>
<path d="M261.102 45.7808H259.617C259.551 45.7808 259.489 45.8105 259.448 45.8621L256.517 49.5052V46C256.517 45.8788 256.42 45.7808 256.299 45.7808H254.635C254.514 45.7808 254.417 45.8788 254.417 46V52.4396C254.417 52.5609 254.514 52.6589 254.635 52.6589H256.12C256.186 52.6589 256.248 52.6289 256.289 52.5775L259.219 48.9265V52.4396C259.219 52.5609 259.317 52.6589 259.437 52.6589H261.102C261.222 52.6589 261.32 52.5609 261.32 52.4396V46C261.32 45.8788 261.222 45.7808 261.102 45.7808Z" fill="#2062AF"/>
<path d="M268.899 45.7808H262.779C262.659 45.7808 262.562 45.8788 262.562 46V47.1215C262.562 47.2428 262.659 47.3408 262.779 47.3408H264.789V52.4396C264.789 52.5609 264.887 52.6589 265.007 52.6589H266.672C266.792 52.6589 266.89 52.5609 266.89 52.4396V47.3408H268.899C269.02 47.3408 269.117 47.2428 269.117 47.1215V46C269.117 45.8788 269.02 45.7808 268.899 45.7808Z" fill="#2062AF"/>
<path d="M276.194 45.7808H270.577C270.457 45.7808 270.359 45.8788 270.359 46V52.4396C270.359 52.5609 270.457 52.6589 270.577 52.6589H276.194C276.315 52.6589 276.412 52.5609 276.412 52.4396V51.3181C276.412 51.1969 276.315 51.0987 276.194 51.0987H272.46V49.9727H275.607C275.728 49.9727 275.825 49.8745 275.825 49.7533V48.6318C275.825 48.5107 275.728 48.4125 275.607 48.4125H272.46V47.3408H276.194C276.315 47.3408 276.412 47.2428 276.412 47.1215V46C276.412 45.8788 276.315 45.7808 276.194 45.7808Z" fill="#2062AF"/>
<path d="M283.633 45.7808H277.513C277.393 45.7808 277.295 45.8788 277.295 46V47.1215C277.295 47.2428 277.393 47.3408 277.513 47.3408H279.523V52.4396C279.523 52.5609 279.62 52.6589 279.741 52.6589H281.405C281.526 52.6589 281.623 52.5609 281.623 52.4396V47.3408H283.633C283.753 47.3408 283.851 47.2428 283.851 47.1215V46C283.851 45.8788 283.753 45.7808 283.633 45.7808Z" fill="#2062AF"/>
<path d="M73.1855 31.6371C74.2742 30.6225 74.9168 29.0416 74.9168 27.3467C74.9168 23.7568 72.5813 21.2495 69.2373 21.2495C65.9717 21.2495 63.7113 23.8017 63.1913 28.0767C63.1837 28.139 63.2029 28.2016 63.2443 28.2486C63.2857 28.2957 63.3451 28.3226 63.4074 28.3226H67.1785C67.2803 28.3226 67.3685 28.2515 67.3907 28.1516C67.7108 26.7197 68.2907 26.0528 69.2157 26.0528C70.1236 26.0528 70.7103 26.7092 70.7103 27.725C70.7103 28.8269 70.1597 29.4846 69.2373 29.4846H67.2001C67.0797 29.4846 66.9824 29.5827 66.9824 29.7038V33.8358C66.9824 33.9569 67.0797 34.055 67.2001 34.055H69.2373C70.598 34.055 70.8834 35.1226 70.8834 36.0183C70.8834 37.1929 70.252 37.8943 69.1939 37.8943C68.2602 37.8943 67.6803 37.2458 67.3692 35.8539C67.3468 35.7538 67.2585 35.6827 67.1567 35.6827H63.3856C63.3235 35.6827 63.2639 35.7095 63.2225 35.7566C63.1813 35.8037 63.1619 35.8661 63.1696 35.9286C63.6898 40.2034 65.9502 42.7555 69.2157 42.7555C72.6999 42.7555 75.1334 40.0569 75.1334 36.1929C75.1334 34.2692 74.4103 32.5904 73.1855 31.6371Z" fill="#2062AF"/>
<path d="M83.8587 21.5859C83.8328 21.4906 83.747 21.4243 83.6486 21.4243H80.7228C80.6245 21.4243 80.5388 21.4906 80.5128 21.5859L74.8993 42.3042C74.8814 42.3701 74.8951 42.4408 74.9363 42.4952C74.9776 42.5493 75.0416 42.5813 75.1095 42.5813H79.0756C79.1758 42.5813 79.263 42.5126 79.287 42.4147L80.0045 39.4967H84.4079L85.0841 42.412C85.107 42.511 85.1948 42.5813 85.296 42.5813H89.262C89.3298 42.5813 89.394 42.5493 89.4351 42.4952C89.4764 42.4408 89.49 42.3701 89.4722 42.3042L83.8587 21.5859ZM83.3084 34.8099H81.1757L82.2765 30.4226L83.3084 34.8099Z" fill="#2062AF"/>
<path d="M102.008 21.4243H90.3907C90.2704 21.4243 90.173 21.5225 90.173 21.6436V42.362C90.173 42.4831 90.2704 42.5812 90.3907 42.5812H94.1835C94.304 42.5812 94.4013 42.4831 94.4013 42.362V26.4022H97.9972V42.362C97.9972 42.4831 98.0946 42.5812 98.2149 42.5812H102.008C102.128 42.5812 102.225 42.4831 102.225 42.362V21.6436C102.225 21.5225 102.128 21.4243 102.008 21.4243Z" fill="#2062AF"/>
<path d="M109.397 21.2495C107.561 21.2495 106.058 22.0639 104.929 23.6682C103.701 25.3752 103.327 27.1527 103.327 31.2752V32.7883C103.327 35.276 103.327 38.0956 104.929 40.337C106.096 41.9644 107.572 42.7555 109.44 42.7555C111.276 42.7555 112.78 41.9414 113.908 40.3365C115.392 38.2581 115.51 35.8192 115.51 32.8466V30.1694C115.51 27.1801 115.031 25.2361 113.908 23.6685C112.74 22.0408 111.265 21.2495 109.397 21.2495ZM107.556 32.5556V31.1296C107.556 29.0289 107.735 27.6458 108.088 27.0231C108.394 26.5101 108.866 26.2276 109.418 26.2276C109.971 26.2276 110.443 26.5101 110.746 27.019C111.102 27.6461 111.281 29.0291 111.281 31.1296V32.5556C111.281 35.1354 111.142 36.2863 110.749 36.953C110.441 37.4694 109.944 37.7777 109.418 37.7777C108.893 37.7777 108.396 37.4694 108.089 36.9539C107.695 36.2866 107.556 35.1357 107.556 32.5556Z" fill="#2062AF"/>
<path d="M122.94 21.4243H116.828C116.708 21.4243 116.61 21.5225 116.61 21.6436V42.362C116.61 42.4832 116.708 42.5812 116.828 42.5812H120.621C120.741 42.5812 120.839 42.4832 120.839 42.362V35.19H122.94C126.118 35.19 128.424 32.2954 128.424 28.3071C128.424 24.3191 126.118 21.4243 122.94 21.4243ZM120.839 26.4313H122.767C123.595 26.4313 124.196 27.2201 124.196 28.3071C124.196 29.3942 123.595 30.1832 122.767 30.1832H120.839V26.4313Z" fill="#2062AF"/>
<path d="M133.342 21.4243H129.55C129.429 21.4243 129.332 21.5225 129.332 21.6436V42.362C129.332 42.4831 129.429 42.5812 129.55 42.5812H133.342C133.463 42.5812 133.56 42.4831 133.56 42.362V21.6436C133.56 21.5225 133.463 21.4243 133.342 21.4243Z" fill="#2062AF"/>
<path d="M144.682 31.6371C145.771 30.6225 146.414 29.0416 146.414 27.3467C146.414 23.7568 144.078 21.2495 140.734 21.2495C137.469 21.2495 135.208 23.8017 134.688 28.0767C134.681 28.139 134.7 28.2016 134.741 28.2486C134.783 28.2957 134.842 28.3226 134.904 28.3226H138.675C138.777 28.3226 138.865 28.2515 138.888 28.1516C139.208 26.7197 139.788 26.0528 140.713 26.0528C141.62 26.0528 142.207 26.7092 142.207 27.725C142.207 28.8269 141.657 29.4846 140.734 29.4846H138.697C138.577 29.4846 138.479 29.5827 138.479 29.7038V33.8358C138.479 33.9569 138.577 34.055 138.697 34.055H140.734C142.095 34.055 142.38 35.1226 142.38 36.0183C142.38 37.1929 141.749 37.8943 140.691 37.8943C139.757 37.8943 139.177 37.2458 138.866 35.8539C138.844 35.7538 138.756 35.6827 138.654 35.6827H134.883C134.82 35.6827 134.761 35.7095 134.72 35.7566C134.678 35.8037 134.659 35.8661 134.667 35.9286C135.187 40.2034 137.447 42.7555 140.713 42.7555C144.197 42.7555 146.63 40.0569 146.63 36.1929C146.63 34.2692 145.907 32.5904 144.682 31.6371Z" fill="#2062AF"/>
<path d="M154.387 28.8155H152.178V21.6436C152.178 21.5226 152.08 21.4243 151.96 21.4243H148.167C148.047 21.4243 147.949 21.5226 147.949 21.6436V42.362C147.949 42.4832 148.047 42.5813 148.167 42.5813H154.387C157.553 42.5813 159.763 39.7508 159.763 35.6983C159.763 31.6459 157.553 28.8155 154.387 28.8155ZM155.535 35.6983C155.535 36.7844 154.92 37.6033 154.105 37.6033H152.178V33.8224H154.105C154.934 33.8224 155.535 34.6113 155.535 35.6983Z" fill="#2062AF"/>
<path d="M169.106 31.277L173.614 21.7377C173.646 21.6697 173.641 21.59 173.601 21.5264C173.561 21.4628 173.492 21.4243 173.417 21.4243H169.06C168.973 21.4243 168.894 21.4767 168.86 21.5574L165.117 30.3786V21.6436C165.117 21.5225 165.02 21.4243 164.899 21.4243H161.107C160.986 21.4243 160.889 21.5225 160.889 21.6436V42.362C160.889 42.4831 160.986 42.5812 161.107 42.5812H164.899C165.02 42.5812 165.117 42.4831 165.117 42.362V32.591L169.25 42.4471C169.284 42.5285 169.363 42.5812 169.451 42.5812H173.915C173.99 42.5812 174.059 42.543 174.099 42.4804C174.139 42.4174 174.144 42.3384 174.113 42.2705L169.106 31.277Z" fill="#2062AF"/>
<path d="M183.54 21.5859C183.514 21.4906 183.429 21.4243 183.33 21.4243H180.404C180.306 21.4243 180.22 21.4906 180.194 21.5859L174.581 42.3042C174.563 42.3701 174.577 42.4408 174.618 42.4952C174.659 42.5493 174.723 42.5813 174.791 42.5813H178.757C178.858 42.5813 178.945 42.5126 178.969 42.4147L179.686 39.4967H184.09L184.766 42.412C184.789 42.511 184.876 42.5813 184.978 42.5813H188.944C189.012 42.5813 189.076 42.5493 189.117 42.4952C189.158 42.4408 189.172 42.3701 189.154 42.3042L183.54 21.5859ZM182.99 34.8099H180.857L181.958 30.4226L182.99 34.8099Z" fill="#2062AF"/>
<path d="M205.415 21.4243H193.798C193.678 21.4243 193.58 21.5225 193.58 21.6436V42.362C193.58 42.4831 193.678 42.5812 193.798 42.5812H197.591C197.711 42.5812 197.809 42.4831 197.809 42.362V26.4022H201.404V42.362C201.404 42.4831 201.502 42.5812 201.622 42.5812H205.415C205.535 42.5812 205.632 42.4831 205.632 42.362V21.6436C205.632 21.5225 205.535 21.4243 205.415 21.4243Z" fill="#2062AF"/>
<path d="M212.803 21.2495C210.967 21.2495 209.463 22.0639 208.335 23.6682C207.107 25.3752 206.733 27.1527 206.733 31.2752V32.7883C206.733 35.276 206.733 38.0956 208.335 40.3368C209.502 41.9644 210.978 42.7555 212.846 42.7555C214.682 42.7555 216.185 41.9414 217.314 40.3365C218.798 38.2581 218.916 35.8192 218.916 32.8466V30.1694C218.916 27.1801 218.437 25.2359 217.314 23.6685C216.147 22.0408 214.671 21.2495 212.803 21.2495ZM210.961 32.5556V31.1296C210.961 29.0291 211.141 27.6461 211.494 27.0232C211.8 26.5101 212.272 26.2276 212.824 26.2276C213.377 26.2276 213.849 26.5101 214.152 27.019C214.507 27.6461 214.687 29.0291 214.687 31.1296V32.5556C214.687 35.1354 214.548 36.2863 214.155 36.953C213.847 37.4694 213.35 37.7777 212.824 37.7777C212.299 37.7777 211.801 37.4694 211.495 36.9539C211.101 36.2863 210.961 35.1354 210.961 32.5556Z" fill="#2062AF"/>
<path d="M232.203 21.4243H222.06C221.94 21.4243 221.842 21.5225 221.842 21.6436V31.5954C221.842 37.1391 220.78 37.6033 219.784 37.6033H219.329C219.209 37.6033 219.111 37.7016 219.111 37.8225V42.362C219.111 42.4831 219.209 42.5812 219.329 42.5812H220.781C224.049 42.5812 225.941 40.7835 225.941 31.5954V26.4022H228.193V42.362C228.193 42.4831 228.29 42.5812 228.41 42.5812H232.203C232.324 42.5812 232.421 42.4831 232.421 42.362V21.6436C232.421 21.5225 232.324 21.4243 232.203 21.4243Z" fill="#2062AF"/>
<path d="M237.596 21.4243H233.803C233.682 21.4243 233.585 21.5225 233.585 21.6436V42.362C233.585 42.4831 233.682 42.5812 233.803 42.5812H237.596C237.716 42.5812 237.813 42.4831 237.813 42.362V21.6436C237.813 21.5225 237.716 21.4243 237.596 21.4243Z" fill="#2062AF"/>
<path d="M250.535 21.4243H239.156C239.036 21.4243 238.938 21.5225 238.938 21.6436V26.183C238.938 26.3039 239.036 26.4022 239.156 26.4022H242.731V42.362C242.731 42.4831 242.829 42.5812 242.949 42.5812H246.742C246.862 42.5812 246.959 42.4831 246.959 42.362V26.4022H250.535C250.655 26.4022 250.752 26.3039 250.752 26.183V21.6436C250.752 21.5225 250.655 21.4243 250.535 21.4243Z" fill="#2062AF"/>
<path d="M262.585 21.4243H252.095C251.974 21.4243 251.877 21.5225 251.877 21.6436V42.362C251.877 42.4831 251.974 42.5812 252.095 42.5812H262.585C262.705 42.5812 262.803 42.4831 262.803 42.362V37.8225C262.803 37.7016 262.705 37.6033 262.585 37.6033H256.106V34.4043H261.609C261.73 34.4043 261.827 34.3062 261.827 34.1851V29.6457C261.827 29.5247 261.73 29.4264 261.609 29.4264H256.106V26.4022H262.585C262.705 26.4022 262.803 26.3039 262.803 26.183V21.6436C262.803 21.5225 262.705 21.4243 262.585 21.4243Z" fill="#2062AF"/>
<path d="M272.448 31.7402L276.916 21.7337C276.946 21.6656 276.94 21.587 276.9 21.5245C276.86 21.4621 276.791 21.4243 276.717 21.4243H272.404C272.314 21.4243 272.233 21.4799 272.201 21.5643L270.15 26.8865L268.099 21.5643C268.066 21.4799 267.986 21.4243 267.896 21.4243H263.583C263.509 21.4243 263.44 21.4621 263.4 21.5245C263.36 21.587 263.354 21.6656 263.384 21.7337L267.852 31.7402L263.081 42.2711C263.051 42.3388 263.056 42.4178 263.096 42.4806C263.136 42.5433 263.205 42.5813 263.28 42.5813H267.614C267.703 42.5813 267.783 42.5266 267.816 42.4436L270.15 36.5789L272.483 42.4436C272.517 42.5266 272.597 42.5813 272.686 42.5813H277.02C277.094 42.5813 277.163 42.5433 277.203 42.4806C277.243 42.4178 277.249 42.3388 277.218 42.2711L272.448 31.7402Z" fill="#2062AF"/>
<path d="M289.548 21.4243H285.755C285.634 21.4243 285.537 21.5225 285.537 21.6436V29.3975H281.941V21.6436C281.941 21.5225 281.844 21.4243 281.724 21.4243H277.931C277.81 21.4243 277.713 21.5225 277.713 21.6436V42.362C277.713 42.4831 277.81 42.5812 277.931 42.5812H281.724C281.844 42.5812 281.941 42.4831 281.941 42.362V34.3752H285.537V42.362C285.537 42.4831 285.634 42.5812 285.755 42.5812H289.548C289.668 42.5812 289.765 42.4831 289.765 42.362V21.6436C289.765 21.5225 289.668 21.4243 289.548 21.4243Z" fill="#2062AF"/>
<path d="M294.893 21.4717H291.1C290.98 21.4717 290.883 21.5698 290.883 21.6909V42.4093C290.883 42.5304 290.98 42.6286 291.1 42.6286H294.893C295.014 42.6286 295.111 42.5304 295.111 42.4093V21.6909C295.111 21.5698 295.013 21.4717 294.893 21.4717Z" fill="#2062AF"/>
<path d="M304.417 31.3244L308.925 21.7851C308.957 21.7171 308.952 21.6374 308.912 21.5738C308.873 21.5101 308.803 21.4717 308.728 21.4717H304.372C304.285 21.4717 304.206 21.524 304.172 21.6046L300.429 30.4259V21.6909C300.429 21.5698 300.331 21.4717 300.211 21.4717H296.418C296.298 21.4717 296.2 21.5698 296.2 21.6909V42.4093C296.2 42.5304 296.298 42.6286 296.418 42.6286H300.211C300.331 42.6286 300.429 42.5304 300.429 42.4093V32.6384L304.562 42.4946C304.596 42.5758 304.674 42.6286 304.762 42.6286H309.227C309.301 42.6286 309.37 42.5904 309.41 42.5276C309.45 42.4646 309.456 42.3856 309.425 42.3179L304.417 31.3244Z" fill="#2062AF"/>
<path d="M324.502 42.3042L318.889 21.5859C318.863 21.4906 318.777 21.4243 318.679 21.4243H315.753C315.655 21.4243 315.569 21.4906 315.543 21.5859L309.93 42.3042C309.912 42.3701 309.925 42.4408 309.966 42.4952C310.008 42.5493 310.072 42.5813 310.14 42.5813H314.106C314.206 42.5813 314.293 42.5126 314.317 42.4147L315.035 39.4967H319.438L320.114 42.412C320.137 42.511 320.225 42.5813 320.326 42.5813H324.292C324.36 42.5813 324.424 42.5493 324.465 42.4952C324.507 42.4408 324.52 42.3701 324.502 42.3042ZM318.338 34.8099H316.206L317.307 30.4226L318.338 34.8099Z" fill="#2062AF"/>
<path fill-rule="evenodd" clip-rule="evenodd" d="M24.6233 69.495C23.0654 66.938 19.4332 65.5805 15.2275 64.009C12.0368 62.8168 8.4203 61.4655 5.2775 59.3626C1.66071 56.9428 -0.778461 53.8967 -2.17933 50.0501L-2.22363 49.9285L-2.12558 49.8446C7.05865 41.9779 8.50135 31.716 1.63965 23.0629L1.56252 22.9656L1.62251 22.8568C3.13218 20.1172 5.39385 17.6417 8.34476 15.499L8.46431 15.4121L8.57485 15.5104C10.6292 17.3361 14.3573 18.4704 18.3042 18.4704C20.8333 18.4704 23.1615 17.9863 24.692 17.1422L24.7806 17.0932L24.8695 17.1423C26.3977 17.9863 28.7248 18.4704 31.2536 18.4704C35.201 18.4704 38.9271 17.3361 40.978 15.5105L41.0887 15.4121L41.2082 15.4988C44.1593 17.6377 46.4226 20.1132 47.9353 22.8567L47.9953 22.9656L47.9182 23.0629C41.0562 31.7153 42.499 41.9775 51.6837 49.8446L51.7816 49.9285L51.7374 50.0501C50.3366 53.8965 47.8975 56.9425 44.2812 59.3623C41.1387 61.4651 37.5225 62.8164 34.332 64.0088C30.1267 65.5804 26.4946 66.9378 24.938 69.495L24.7807 69.7536L24.6233 69.495Z" fill="#FFC92B"/>
<path d="M24.7814 69.6953C24.6778 69.6953 24.5809 69.641 24.5285 69.5534C22.9908 67.0281 19.3756 65.6776 15.1895 64.1136C8.81256 61.7313 0.876379 58.7668 -2.28473 50.0877C-2.32714 49.971 -2.29315 49.8423 -2.1983 49.7597C6.93597 41.9345 8.37257 31.7312 1.55183 23.131C1.47746 23.0369 1.46671 22.9085 1.52408 22.8038C3.04319 20.048 5.31619 17.5598 8.28004 15.4082C8.33073 15.3714 8.39073 15.3521 8.45319 15.3521C8.52524 15.3521 8.59452 15.3784 8.64812 15.4261C10.7233 17.2704 14.3178 18.3714 18.263 18.3714C20.7868 18.3714 23.1109 17.8885 24.6397 17.0463C24.684 17.0225 24.7325 17.0102 24.7812 17.0102C24.8306 17.0102 24.8794 17.0229 24.9224 17.0467C26.4351 17.8814 28.7376 18.3601 31.2395 18.3601C31.8113 18.3601 32.394 18.3354 32.9717 18.2867C36.2855 18.005 39.1773 16.9622 40.905 15.4261C40.958 15.3785 41.0273 15.3521 41.0994 15.3521C41.1608 15.3521 41.2202 15.3708 41.2711 15.4065C44.2343 17.554 46.5085 20.0423 48.0322 22.8035C48.0919 22.9079 48.0806 23.0376 48.0029 23.1326C41.1848 31.7317 42.622 41.9348 51.7549 49.7589C51.8514 49.844 51.8848 49.9732 51.8411 50.089C48.6814 58.767 40.7467 61.7313 34.371 64.1132C30.1857 65.6762 26.5709 67.0265 25.0338 69.5541C24.9776 69.6432 24.8835 69.6953 24.7814 69.6953ZM-1.65838 50.0763C1.45247 58.3484 8.85744 61.1143 15.3932 63.5555L15.4089 63.5615C19.4938 65.089 23.0324 66.4124 24.7812 68.8626C26.5279 66.4129 30.0651 65.0896 34.1479 63.5621L34.1666 63.5552C40.7015 61.114 48.1052 58.3482 51.2163 50.0763C42.0194 42.0972 40.5668 31.704 47.4201 22.9189C45.9729 20.3611 43.8519 18.0435 41.1142 16.0282C38.9246 17.8632 35.2612 18.9563 31.2869 18.9563C28.7446 18.9563 26.3788 18.4779 24.7812 17.6423C23.1837 18.4763 20.8173 18.954 18.2737 18.9541H18.2723C14.295 18.9541 10.6296 17.8618 8.43895 16.0282C5.70098 18.047 3.58167 20.3645 2.13751 22.9187C8.99122 31.7036 7.53864 42.0967 -1.65838 50.0763Z" fill="#2062AF"/>
<path d="M41.0995 15.4758C41.1345 15.4758 41.1701 15.4866 41.2009 15.5081C44.1509 17.646 46.4114 20.1213 47.9247 22.8636C47.9594 22.9244 47.9528 22.9989 47.9082 23.0534C41.0424 31.7125 42.486 41.9809 51.6753 49.8531C51.7309 49.9023 51.7515 49.9771 51.726 50.0449C48.5861 58.6691 40.6798 61.6239 34.3283 63.9968C30.12 65.5686 26.4865 66.9282 24.9289 69.4894C24.8962 69.541 24.8406 69.5713 24.7813 69.5713C24.7221 69.5713 24.665 69.541 24.634 69.4894C23.0747 66.9288 19.4408 65.5695 15.2324 63.9972C8.87993 61.6241 0.972225 58.6696 -2.16913 50.0449C-2.19368 49.9771 -2.17378 49.9023 -2.11756 49.8531C7.07176 41.9809 8.51577 31.713 1.64811 23.0534C1.60497 22.9989 1.59858 22.9244 1.63199 22.8636C3.14136 20.1253 5.40187 17.6504 8.35206 15.5087C8.38228 15.4868 8.41786 15.4759 8.45331 15.4759C8.49398 15.4759 8.53465 15.4904 8.56661 15.5188C10.8463 17.5448 14.6932 18.4953 18.2632 18.4953C20.7501 18.4953 23.1022 18.0346 24.699 17.155C24.7248 17.1411 24.7532 17.1341 24.7813 17.1341C24.8095 17.1341 24.8377 17.1411 24.8631 17.1551C26.4191 18.0138 28.7233 18.484 31.2397 18.484C31.8117 18.484 32.3942 18.4598 32.982 18.4102C36.3228 18.1261 39.2387 17.0729 40.9866 15.5188C41.0184 15.4903 41.0587 15.4758 41.0995 15.4758ZM31.2873 18.8321C28.7844 18.8321 26.4139 18.3751 24.7815 17.5022C23.1488 18.3736 20.7776 18.8299 18.2738 18.8299C14.6702 18.8299 10.792 17.8848 8.44459 15.8707C5.62455 17.9354 3.45483 20.3117 1.9899 22.9301C8.88167 31.702 7.42953 42.0716 -1.80366 50.0386C1.30864 58.4255 8.76692 61.2124 15.3506 63.6716C19.4957 65.2218 23.091 66.5639 24.7815 69.0792C26.4705 66.5639 30.0654 65.2218 34.2098 63.6712C40.7928 61.2118 48.25 58.4246 51.362 50.0386C42.1286 42.0716 40.6772 31.702 47.5683 22.9301C46.1001 20.308 43.9287 17.9318 41.1089 15.8707C38.7624 17.8861 34.8877 18.8321 31.2873 18.8321ZM41.0995 15.228C40.9971 15.228 40.8987 15.2655 40.8226 15.3339C39.1153 16.8519 36.2495 17.8835 32.9613 18.1631C32.3872 18.2117 31.8079 18.2361 31.2397 18.2361C28.7578 18.2361 26.4768 17.763 24.9815 16.9379C24.9208 16.9042 24.8515 16.8862 24.7813 16.8862C24.7123 16.8862 24.6438 16.9036 24.5828 16.9365C23.0695 17.77 20.7668 18.2474 18.2632 18.2474C14.347 18.2474 10.7831 17.1579 8.72959 15.333C8.65376 15.2653 8.55542 15.228 8.45331 15.228C8.36485 15.228 8.28016 15.2554 8.20855 15.3072C5.2293 17.47 2.9444 19.9718 1.41672 22.7432C1.33479 22.8923 1.35004 23.0745 1.45535 23.2079C4.78191 27.4021 6.19512 32.0723 5.54292 36.7138C4.8894 41.3633 2.18528 45.8415 -2.27705 49.6644C-2.41243 49.7823 -2.46022 49.9647 -2.40038 50.1298C0.780485 58.8632 8.74615 61.8387 15.1468 64.2296C19.3115 65.7855 22.9081 67.1295 24.4241 69.6189C24.4976 69.7418 24.6349 69.819 24.7813 69.819C24.9259 69.819 25.0586 69.7456 25.1365 69.6226C26.6539 67.1276 30.2499 65.7845 34.4137 64.2292C40.8132 61.8384 48.7775 58.8632 51.9572 50.1301C52.0185 49.9685 51.9719 49.7854 51.8377 49.6668C47.3726 45.8415 44.6685 41.3634 44.0148 36.7135C43.3623 32.0722 44.7752 27.402 48.1005 23.2082C48.2087 23.0761 48.2244 22.8911 48.1381 22.74C46.6074 19.9659 44.3212 17.464 41.3447 15.307C41.2697 15.2545 41.1859 15.228 41.0995 15.228ZM31.2873 19.08C35.2449 19.08 38.8997 18.0008 41.1188 16.185C43.7795 18.1576 45.8486 20.4179 47.2724 22.9081C40.448 31.7162 41.8994 42.1136 51.0707 50.113C47.9616 58.2693 40.6126 61.0148 34.124 63.4386L34.1049 63.4459C30.0792 64.9521 26.5815 66.2607 24.7815 68.6538C22.9794 66.2603 19.4801 64.9515 15.4524 63.4452L15.4363 63.4392C8.9466 61.015 1.59669 58.2694 -1.51242 50.113C7.65918 42.1133 9.11046 31.7156 2.28565 22.9079C3.70656 20.4214 5.77417 18.1608 8.435 16.185C10.655 17.9995 14.3126 19.0778 18.2738 19.0778C20.8443 19.0778 23.1482 18.6182 24.7813 17.7814C26.4142 18.6196 28.7177 19.08 31.2873 19.08Z" fill="#2062AF"/>
<path fill-rule="evenodd" clip-rule="evenodd" d="M18.9134 20.2088H17.66C14.4471 20.0714 11.1109 19.4105 8.45515 17.6694C6.59832 19.1687 4.99133 20.8715 3.76172 22.8427C4.87251 24.31 5.70803 25.9266 6.42575 27.5795L7.08871 29.4861L7.53277 31.4091L7.76532 33.3374L7.78246 35.2636L7.59334 37.177L7.22308 38.9549H23.8666V19.4156C22.2924 19.9449 20.5583 20.1405 18.9134 20.2088Z" fill="#2062AF"/>
<path fill-rule="evenodd" clip-rule="evenodd" d="M25.668 66.1258C27.2716 64.9316 29.188 64.1226 31.0652 63.3615C33.058 62.5865 35.0694 61.8536 37.0584 61.0626L39.0704 60.1956C40.0623 59.7219 41.0216 59.23 41.9741 58.6935L43.7885 57.5113L45.4714 56.1564L46.2525 55.404L46.9917 54.5904L47.6881 53.7185C48.4173 52.6555 49.094 51.5846 49.5696 50.3998C48.1724 49.1592 46.965 47.7396 45.8545 46.2833L44.692 44.5494L43.7159 42.7626L42.9262 40.9363L42.8234 40.6123H25.668V66.1258Z" fill="#2062AF"/>
<path d="M41.0431 17.6704C38.2152 19.5204 34.6077 20.1716 31.1978 20.221L29.949 20.1839C28.5024 20.0791 26.9975 19.8818 25.6191 19.4176V38.974H42.275L41.9055 37.1948L41.7153 35.2782L41.7325 33.3506L41.9639 31.421L42.4091 29.4963L43.0745 27.5883C43.7922 25.9318 44.6295 24.3165 45.7393 22.8477C44.5079 20.8768 42.8977 19.1691 41.0431 17.6704Z" fill="#ED1B35"/>
<path fill-rule="evenodd" clip-rule="evenodd" d="M23.867 40.6123H6.70965L6.60696 40.9364L5.81893 42.7626L4.84294 44.5505L3.67855 46.2833C2.56442 47.7396 1.35907 49.1594 -0.0361328 50.3998C0.442493 51.5848 1.11707 52.6557 1.84482 53.7185L2.53988 54.5904L3.27735 55.4042L4.06334 56.1564L5.74311 57.5113C6.64661 58.1294 7.54474 58.6856 8.50693 59.2265L10.4617 60.1957C13.0881 61.3602 15.7867 62.3196 18.4695 63.3615C20.3481 64.1226 22.2632 64.9316 23.867 66.1258V40.6123Z" fill="#ED1B35"/>
<path fill-rule="evenodd" clip-rule="evenodd" d="M21.0197 23.9237L20.0067 23.2842L20.3223 22.8196L21.3253 23.4387L21.0197 23.9237ZM13.7975 22.9347L12.5297 22.8425L9.37583 24.6743L8.98828 25.7993L9.36435 26.2939L14.1744 23.3092L13.7975 22.9347ZM11.7238 25.6464L12.7782 24.9836L12.4601 24.5612L11.427 25.204L11.7238 25.6464ZM14.7944 25.5142L15.0216 24.492L14.6467 23.9983L9.98286 26.9249L10.4404 27.4337L11.6622 27.4919L14.7944 25.5142ZM16.6881 30.2469L19.445 26.1984L18.4104 25.4891L15.8238 29.0902L13.7911 26.3404L12.697 27.0331L15.0431 30.4524L10.6294 36.6958L12.082 37.5162L15.8787 32.071L19.2328 36.9512C19.9954 38.0645 21.6914 37.3187 20.8506 36.1304L16.6881 30.2469ZM22.7457 26.6442L21.6218 24.5052L18.4484 22.5107C18.4367 22.4642 16.958 24.2434 16.958 24.2434L20.2628 26.5209L22.7457 26.6442Z" fill="white"/>
<path d="M29.3175 52.6098C28.7878 52.6098 28.3488 52.2118 28.3488 51.721C28.3488 51.23 28.7878 50.8291 29.3175 50.8291C29.8524 50.8291 30.2852 51.23 30.2852 51.721C30.2852 52.2118 29.8524 52.6098 29.3175 52.6098ZM29.2058 43.4664L27.6331 46.325L27.6074 46.3969L27.5939 46.4688V46.5355L27.6121 46.6022L27.6433 46.6654L27.6856 46.724L27.7416 46.7726L27.8044 46.8106L27.8796 46.8375L27.9557 46.8491L28.0284 46.8457L28.1035 46.8308L28.171 46.8023L28.2304 46.7657L28.2894 46.7147L28.3322 46.6481L29.9019 43.7929L29.9315 43.723L29.9403 43.6504V43.5823L29.925 43.5173L29.8933 43.4518L29.8524 43.3934L29.8011 43.345L29.7293 43.3089L29.6583 43.2823L29.5855 43.2697L29.5058 43.2736L29.4349 43.2883L29.3652 43.3152L29.3032 43.355L29.2471 43.4034L29.2058 43.4664ZM29.2471 42.8831L29.2603 42.8121V42.7421L29.2439 42.6757L29.2143 42.6102L29.171 42.5558L29.1156 42.5074L29.0446 42.4685L28.9723 42.4425L28.8993 42.4302L28.821 42.4337L28.7534 42.4493L28.6788 42.4754L28.6186 42.5162L28.5689 42.5655L28.5244 42.6288L26.4914 46.3199L26.4668 46.3898L26.4551 46.4624V46.5305L26.4715 46.5968L26.5016 46.6585L26.5428 46.7173L26.6014 46.7657L26.664 46.8042L26.7367 46.8308L26.815 46.8422L26.8877 46.8384L26.9603 46.8239L27.032 46.7977L27.0967 46.758L27.1464 46.7078L27.1894 46.642L29.2175 42.9507L29.2471 42.8831ZM29.8854 44.2628L28.7266 46.3767L28.6976 46.4479L28.6835 46.5187V46.5882L28.7012 46.6549L28.7336 46.7191L28.7749 46.7754L28.8309 46.8239L28.8943 46.8622L28.9689 46.8914L29.0446 46.9028L29.119 46.899L29.1928 46.882L29.2603 46.8541L29.3261 46.816L29.3787 46.7657L29.4198 46.7022L30.5819 44.5875L30.6137 44.5149L30.6267 44.4474L30.6237 44.3786L30.6055 44.3093L30.5784 44.2464L30.5352 44.1901L30.4809 44.1417L30.4147 44.1012L30.3362 44.0743L30.2632 44.0648L30.1876 44.0653L30.1125 44.0797L30.0496 44.1081L29.9851 44.1502L29.9315 44.1998L29.8854 44.2628ZM28.2275 52.5666C27.6956 52.5666 27.2597 52.9675 27.2597 53.4562C27.2597 53.9507 27.6956 54.3508 28.2275 54.3508C28.7632 54.3508 29.1961 53.9507 29.1961 53.4562C29.1961 52.9675 28.7632 52.5666 28.2275 52.5666ZM35.2778 49.9544L35.2661 50.0241V50.0951L35.281 50.1599L35.3123 50.2231L35.3537 50.2793L35.4098 50.3314L35.4749 50.3688L35.5477 50.3948L35.6235 50.4048H35.6986L35.7711 50.3903L35.8406 50.3632L35.9011 50.3217L35.9573 50.2711L35.9983 50.2075L37.5739 47.3505L37.602 47.2781L37.6102 47.2098V47.1412L37.5939 47.0724L37.5633 47.0092L37.5188 46.9542L37.4693 46.9058L37.4 46.8636L37.3262 46.8375L37.2537 46.8269L37.1777 46.8308L37.1025 46.8438L37.0331 46.8723L36.9753 46.9131L36.9154 46.9611L36.8737 47.0275L35.3022 49.8847L35.2778 49.9544ZM34.8597 49.2915L35.256 49.4974L36.5001 47.232L36.0821 47.0591L34.8597 49.2915ZM39.5004 47.1763L41.1734 47.821L41.1199 48.9056L41.7513 49.1676L41.611 47.5807L39.4269 46.758L37.917 47.5757L38.5483 47.8393L39.5004 47.1763ZM29.451 49.9544C29.451 50.4415 29.8854 50.8437 30.4214 50.8437C30.9531 50.8437 31.3892 50.4415 31.3892 49.9544C31.3892 49.4636 30.9531 49.0631 30.4214 49.0631C29.8854 49.0631 29.451 49.4636 29.451 49.9544ZM33.83 48.7569L35.0137 46.6054L30.6994 44.819L29.708 46.6219L33.83 48.7569ZM30.4078 52.5666C29.8772 52.5666 29.4412 52.9675 29.4412 53.4562C29.4412 53.9507 29.8772 54.3508 30.4078 54.3508C30.9449 54.3508 31.3792 53.9507 31.3792 53.4562C31.3792 52.9675 30.9449 52.5666 30.4078 52.5666ZM42.8646 49.5536L42.8777 49.4835L42.8727 49.4143L42.856 49.3467L42.8244 49.2855L42.7812 49.2287L42.7302 49.1777L42.6625 49.1396L42.5872 49.1126L42.5145 49.1016L42.4386 49.1048L42.3635 49.1195L42.2961 49.1483L42.2364 49.1841L42.1778 49.237L42.135 49.2999L40.4171 52.4322L40.3874 52.5018L40.3759 52.57L40.3791 52.6409L40.3922 52.7086L40.4222 52.7704L40.4652 52.8277L40.5212 52.8776L40.5865 52.9156L40.6622 52.9429L40.7366 52.9542L40.8101 52.9506L40.8827 52.9359L40.9524 52.9096L41.0158 52.87L41.0685 52.817L41.1097 52.7541L42.8331 49.6239L42.8646 49.5536ZM44.1644 50.1697L44.1777 50.102L44.1741 50.0309L44.1562 49.964L44.1265 49.903L44.081 49.8436L44.0265 49.7937L43.9619 49.756L43.8875 49.7311L43.814 49.7194L43.7382 49.7225L43.6631 49.7358L43.5957 49.764L43.5326 49.802L43.4809 49.8519L43.436 49.9176L41.7182 53.0466L41.687 53.1177L41.6754 53.1881V53.2581L41.6921 53.3256L41.7217 53.3868L41.7643 53.4434L41.8231 53.4954L41.8861 53.5324L41.957 53.5594L42.0387 53.5704L42.11 53.5689L42.1825 53.5533L42.2529 53.5272L42.3173 53.4875L42.3683 53.4347L42.4121 53.3699L44.1346 50.2395L44.1644 50.1697ZM42.9157 49.8897L41.4004 52.6475L41.6027 52.7503L43.1264 49.9764L42.9157 49.8897ZM32.4943 51.661C32.4943 51.2001 32.0907 50.8259 31.5916 50.8259C31.0926 50.8259 30.686 51.2001 30.686 51.661C30.686 52.1173 31.0926 52.4923 31.5916 52.4923C32.0907 52.4923 32.4943 52.1173 32.4943 51.661ZM46.7818 52.9244L46.7424 52.7704L46.6797 52.6305L46.5796 52.4999L46.4555 52.3882L46.303 52.3015L46.1405 52.2437L45.968 52.2168L45.7994 52.2228L45.6315 52.2583L45.4772 52.3183L45.3395 52.4056L45.2205 52.5219L45.1238 52.6585L45.0596 52.8101L45.0298 52.9693L45.038 53.1264L45.0725 53.2771L45.1402 53.42L45.2371 53.5487L45.3594 53.658L45.5121 53.7475L45.6746 53.8037L45.8488 53.8301L46.0213 53.8271L46.1833 53.7923L46.3393 53.7323L46.4807 53.6397L46.5963 53.5291L46.6961 53.3895L46.7606 53.236L46.7856 53.0816L46.7818 52.9244ZM45.1155 52.136L45.1453 51.9822L45.1681 51.8333L45.1717 51.6853L45.1575 51.5424L45.1402 51.4052L45.1056 51.2715L45.0547 51.1485L44.9999 51.0312L44.9251 50.9215L44.8455 50.8241L44.7506 50.7377L44.6463 50.6601L44.5295 50.5973L44.2254 50.4697L42.6573 53.3256L42.9487 53.4736L43.0752 53.5236L43.2041 53.5575L43.3336 53.573L43.4664 53.5767L43.6051 53.5654L43.7412 53.5406L43.8785 53.5022L44.0168 53.4456L44.1529 53.3817L44.2799 53.3035L44.4097 53.211L44.5295 53.1117L44.6417 52.9959L44.7506 52.8726L44.8488 52.7358L44.9331 52.5913L45.0082 52.4419L45.0693 52.2881L45.1155 52.136ZM34.3416 49.6543L34.4065 49.6135L34.4582 49.5622L34.5014 49.4991L36.0716 46.642L36.105 46.5721L36.1165 46.5026L36.1131 46.4315L36.0944 46.3647L36.0677 46.3015L36.025 46.2439L35.9702 46.1944L35.9011 46.1561L35.8273 46.1318L35.7549 46.12L35.6771 46.1213L35.6037 46.1364L35.5362 46.1628L35.4749 46.2032L35.4179 46.2575L35.3754 46.3192L33.8086 49.1746L33.7788 49.2489L33.7648 49.3147V49.3849L33.7835 49.4539L33.8136 49.5157L33.8561 49.5724L33.9109 49.6202L33.977 49.6627L34.0537 49.6874L34.1263 49.6992L34.2015 49.6973L34.2742 49.6809L34.3416 49.6543ZM37.6283 47.6873L36.3402 50.0277L40.3296 52.1126L41.8019 49.4338L37.6283 47.6873ZM32.6111 52.643C32.0734 52.643 31.6386 53.0424 31.6386 53.5332C31.6386 54.0242 32.0734 54.4235 32.6111 54.4235C33.1425 54.4235 33.5766 54.0242 33.5766 53.5332C33.5766 53.0424 33.1425 52.643 32.6111 52.643ZM37.5316 52.4223L37.4379 52.3251L37.356 52.2533L37.2749 52.203L37.2023 52.1657L37.1241 52.1425L37.0415 52.1309L36.9536 52.1259L36.8606 52.1309L36.7765 52.1425L36.6962 52.164L36.6204 52.2L36.543 52.2514L36.4557 52.3196L36.3666 52.4092L36.2703 52.527L34.9161 54.2329H38.9744L37.6318 52.5397L37.5316 52.4223ZM39.5136 53.4889L37.6318 51.1153L37.5316 50.9981L37.4379 50.9022L37.356 50.831L37.2749 50.7807L37.2023 50.7464L37.1241 50.7245L37.0415 50.7083L36.9536 50.7037L36.8606 50.7083L36.7765 50.7226L36.6962 50.7445L36.6204 50.7789L36.543 50.8291L36.4557 50.8991L36.3666 50.9898L36.2703 51.1043L34.4284 53.4265L34.3072 53.6184L34.2611 53.7807L34.2692 53.9159L34.3207 54.0261L34.4065 54.1167L34.5146 54.1826L34.636 54.2211L34.7222 54.2297L36.1429 52.4419L36.2434 52.3183L36.3454 52.2185L36.4424 52.136L36.543 52.0748L36.6419 52.0332L36.7415 52.0031L36.8439 51.989L36.9536 51.9804L37.0547 51.989L37.1596 52.0048L37.262 52.0332L37.356 52.0781L37.4559 52.1416L37.5505 52.2228L37.6533 52.326L37.7554 52.4524L39.1687 54.2329H39.277L39.3759 54.2243L39.4804 54.1945L39.5778 54.1467L39.6506 54.0754L39.6994 53.9864L39.7092 53.8623L39.6506 53.7004L39.5136 53.4889Z" fill="white"/>
<path fill-rule="evenodd" clip-rule="evenodd" d="M13.5569 52.6101L6.81055 53.4789L8.36394 43.7483C10.306 42.324 11.8179 42.0254 13.5617 43.5324L13.5569 52.6101ZM14.2286 52.6101V43.5324C15.9329 42.0757 17.3554 42.3935 19.3266 43.7483L20.8814 53.4789L14.2286 52.6101Z" fill="white"/>
<path fill-rule="evenodd" clip-rule="evenodd" d="M20.6511 44.3355C18.569 42.2723 16.0717 41.3515 13.8581 43.2739C11.6402 41.3515 9.14306 42.2723 7.0589 44.3355L5.08789 54.9864L12.1872 53.9046C12.5154 54.4305 13.0758 54.6955 13.8581 54.7055C14.6427 54.6955 15.1984 54.4305 15.5295 53.9046L22.6291 54.9864L20.6511 44.3355ZM13.5566 52.61L6.81022 53.4788L8.36361 43.7482C10.3057 42.324 11.8176 42.0253 13.5614 43.5324L13.5566 52.61ZM14.2283 52.61V43.5324C15.9326 42.0756 17.3551 42.3934 19.3262 43.7482L20.8811 53.4788L14.2283 52.61Z" fill="#2062AF"/>
<path d="M33.0836 29.7316C32.9367 29.5517 32.8459 29.3421 32.8459 29.1316C32.8459 28.8631 32.9367 28.6829 33.1131 28.5028C33.2623 28.3523 33.4706 28.2631 33.7083 28.2631C33.9461 28.2631 34.1543 28.3523 34.3332 28.5325C34.4832 28.6829 34.5712 28.8931 34.5712 29.1316C34.5712 29.3715 34.4832 29.5811 34.3036 29.7612C34.1251 29.9117 33.9168 30.0007 33.7083 30.0007C33.4415 30.0007 33.2623 29.9117 33.0836 29.7316ZM39.5293 33.4358C40.5485 35.3213 40.7868 36.4691 40.2557 36.936C40.1036 37.0717 39.9186 37.1436 39.6924 37.1436C39.1041 37.1436 38.2433 36.668 36.9839 35.6737C36.0101 34.8952 34.9872 33.9413 33.9421 32.8325L33.9246 32.8169C33.894 32.7891 33.8648 32.7613 33.8373 32.7334C33.7736 32.8061 33.7072 32.8825 33.6449 32.953C32.5607 34.1762 31.5485 35.1983 30.5507 36.0773C29.2302 37.1758 28.314 37.7006 27.692 37.7006C27.488 37.7006 27.3152 37.6449 27.17 37.5346C26.5619 37.0566 26.7503 35.9257 27.7789 33.8623C28.2965 32.8101 28.9417 31.7 29.7522 30.471C29.7684 30.447 29.7832 30.4264 29.7984 30.4039C29.5999 30.3625 29.4025 30.3268 29.2104 30.2919L29.071 30.2683C27.5934 29.9555 26.9521 29.5765 26.9846 29.0418C26.9936 28.527 27.666 28.1583 29.0939 27.8827C29.3211 27.8378 29.5586 27.8027 29.8005 27.7708C29.0132 26.6287 28.4183 25.6764 27.9454 24.7942C26.9238 22.9048 26.6895 21.7943 27.2082 21.2976C27.2125 21.2936 27.2172 21.2897 27.222 21.2861C27.7811 20.8193 28.8508 21.2341 30.4906 22.5535C31.4725 23.333 32.4003 24.1935 33.3279 25.1826C33.4207 25.2797 33.5099 25.3764 33.6026 25.4748C33.6218 25.4547 33.6449 25.4335 33.6722 25.414C34.7987 24.1228 35.8689 23.0543 36.8529 22.2371C38.5482 20.775 39.6134 20.3048 40.2034 20.7583C40.7965 21.2484 40.6144 22.3768 39.6209 24.425C39.074 25.5083 38.3864 26.6579 37.5821 27.8559C37.8534 27.8998 38.1002 27.945 38.3626 28.0095C39.7932 28.3193 40.4334 28.6947 40.4334 29.2224C40.4334 29.7356 39.7939 30.0763 38.2957 30.3678C38.1049 30.404 37.8974 30.4402 37.6873 30.477C38.4317 31.5125 39.0504 32.5067 39.5293 33.4358ZM37.2569 28.3298C37.1722 28.4549 37.0853 28.5773 36.9976 28.7031C36.8976 28.8505 36.7957 28.9938 36.6915 29.1376C36.8683 29.3681 37.0411 29.5983 37.2088 29.8237L37.2243 29.8448C37.2648 29.9011 37.3029 29.9537 37.3437 30.0071C37.3584 30.0053 37.3739 30.004 37.3879 30.0024L37.4877 29.9852C37.7332 29.9426 37.9766 29.9003 38.1989 29.8554C39.8698 29.5337 39.9183 29.2254 39.9183 29.2224C39.9183 29.2082 39.8995 28.8748 38.2501 28.5154C37.9505 28.4454 37.6771 28.3977 37.3562 28.3446C37.3553 28.3446 37.3546 28.3444 37.3537 28.3441C37.3196 28.3389 37.289 28.3348 37.2569 28.3298ZM34.7512 30.8433L34.8523 30.7084C34.4734 30.715 34.0846 30.7156 33.6805 30.7156C33.4328 30.7034 33.2052 30.6974 32.9802 30.6914C32.8876 30.6891 32.7992 30.6843 32.7088 30.6821C33.0877 31.1229 33.4642 31.5403 33.8309 31.9466C34.1363 31.588 34.4476 31.2127 34.7512 30.8433ZM33.5767 26.3041C33.255 26.6647 32.9183 27.0713 32.5349 27.5596C32.9334 27.5478 33.3323 27.5434 33.7467 27.5587H33.7531C34.094 27.5587 34.4348 27.5678 34.7625 27.5839C34.397 27.1341 34.0129 26.6895 33.6162 26.2502C33.6109 26.2603 33.6055 26.2673 33.5998 26.2749C33.5965 26.2799 33.5929 26.2845 33.5892 26.2892C33.5852 26.2943 33.5814 26.2996 33.5767 26.3041ZM36.576 28.4045C36.6123 28.3513 36.6462 28.3007 36.6819 28.2494C36.4351 28.2201 36.1921 28.1951 35.9507 28.1784C36.0747 28.3316 36.1995 28.4927 36.3197 28.6596C36.3339 28.6775 36.347 28.695 36.3609 28.7129C36.4314 28.6137 36.5025 28.5112 36.5714 28.4108C36.5727 28.4091 36.574 28.4067 36.5754 28.405C36.5754 28.405 36.5757 28.4047 36.576 28.4045ZM31.4435 28.1271C31.201 28.1435 30.9688 28.1629 30.7391 28.1874C30.8459 28.3266 30.9529 28.4711 31.0667 28.6198C31.1862 28.4549 31.3133 28.2903 31.4435 28.1271ZM31.0766 29.4933C30.9553 29.6477 30.8285 29.82 30.6922 30.0077C30.9734 30.0397 31.2615 30.0674 31.5511 30.0943C31.387 29.8907 31.2292 29.6909 31.0766 29.4933ZM32.2569 30.1453C32.2741 30.1468 32.2899 30.1478 32.3069 30.1487C32.5345 30.1611 32.7624 30.1668 32.9938 30.173C33.2225 30.1787 33.4547 30.1851 33.6937 30.1972C34.234 30.1968 34.7545 30.1959 35.2571 30.1794C35.4161 29.98 35.5864 29.7592 35.768 29.5116C35.7688 29.5103 35.7701 29.5089 35.7713 29.5073V29.507C35.7716 29.5066 35.772 29.5062 35.7725 29.5057C35.8577 29.3918 35.9507 29.2723 36.0422 29.147C35.9999 29.0928 35.9591 29.0384 35.916 28.9824C35.9138 28.9802 35.9121 28.9777 35.9097 28.9751C35.9077 28.9723 35.9058 28.9695 35.9039 28.9666C35.6948 28.6751 35.4638 28.3949 35.2449 28.1335C34.7744 28.0973 34.2608 28.0769 33.7368 28.0769C33.1803 28.0566 32.6497 28.0712 32.1182 28.0927C32.0979 28.1208 32.077 28.1487 32.0571 28.177C32.0199 28.2289 31.9854 28.2775 31.9507 28.3221C31.9507 28.3221 31.95 28.3225 31.95 28.3229H31.9499L31.9496 28.3234C31.9485 28.3248 31.9472 28.326 31.9459 28.3279C31.7498 28.5666 31.5645 28.8111 31.3893 29.0535C31.6282 29.3661 31.8871 29.6853 32.1545 30.016L32.2569 30.1453ZM35.9471 30.1373C36.2162 30.1172 36.4832 30.0954 36.7469 30.0687C36.6234 29.9057 36.5001 29.7384 36.3734 29.5704C36.3088 29.6559 36.2432 29.7409 36.1825 29.82C36.1023 29.9321 36.0226 30.0352 35.9471 30.1373ZM33.955 25.8564C34.3873 26.3296 34.8048 26.8122 35.201 27.3002C35.2956 27.3891 35.3838 27.4951 35.4716 27.601C35.4805 27.6112 35.4898 27.6225 35.4987 27.633C36.0044 27.651 36.4969 27.6946 37.0163 27.7695C37.871 26.5166 38.5908 25.315 39.1599 24.1932C40.2907 21.858 40.0419 21.2964 39.8828 21.1653C39.7652 21.0742 39.201 20.8949 37.1861 22.6328C36.2113 23.444 35.1524 24.5034 34.0349 25.7843C34.0167 25.8055 33.9949 25.8235 33.97 25.8399C33.9659 25.8443 33.9627 25.8481 33.9596 25.8518C33.9576 25.8537 33.9567 25.8547 33.955 25.8564ZM28.3989 24.5442C28.8943 25.4697 29.5243 26.4742 30.3806 27.6991C30.8383 27.6531 31.3258 27.6079 31.8576 27.5843C32.3588 26.9379 32.7833 26.4178 33.1838 25.9653C33.2087 25.9304 33.2332 25.8972 33.2578 25.8652C33.159 25.7571 33.0582 25.6512 32.9579 25.5445C32.9569 25.5436 32.9561 25.5427 32.9547 25.5415C32.0422 24.5702 31.1325 23.7259 30.1697 22.961C28.6279 21.7191 27.8112 21.4854 27.5571 21.6813C27.4445 21.8011 27.2075 22.3402 28.3989 24.5442ZM29.2957 29.7803C29.5471 29.8225 29.8047 29.8663 30.0702 29.9302C30.083 29.9321 30.0958 29.9334 30.109 29.9353C30.3321 29.6175 30.5414 29.3337 30.731 29.0924C30.7372 29.0825 30.7444 29.0727 30.7513 29.063C30.7391 29.0465 30.7269 29.0307 30.7149 29.0118C30.5118 28.7465 30.3253 28.4968 30.142 28.2501C29.8124 28.2897 29.4908 28.3329 29.1947 28.3945C27.5737 28.706 27.5019 29.0485 27.5019 29.0519C27.5019 29.0583 27.5018 29.0649 27.5015 29.0716C27.5009 29.0746 27.4959 29.4023 29.1695 29.7588L29.2957 29.7803ZM33.2607 32.6041C33.3368 32.521 33.4142 32.4322 33.49 32.3429L33.4691 32.32C32.9945 31.795 32.5037 31.2487 32.0043 30.6549C32.0033 30.6539 32.0023 30.6527 32.0017 30.6517V30.6514C32.001 30.6508 32.0007 30.6502 32 30.6498L31.9984 30.6477C31.4348 30.6098 30.8941 30.5586 30.3615 30.4905C30.3408 30.523 30.3205 30.554 30.2999 30.5838C30.2627 30.637 30.2252 30.6906 30.1877 30.7527C30.1873 30.7535 30.1867 30.7536 30.1867 30.7542V30.7545C30.1855 30.7562 30.1845 30.7573 30.1837 30.7589C29.384 31.9677 28.7492 33.0598 28.2407 34.0946C27.1125 36.3597 27.284 36.9634 27.4866 37.1226C27.6409 37.2406 28.219 37.3428 30.2176 35.6811C31.1916 34.8212 32.1895 33.8129 33.2593 32.606C33.2601 32.6055 33.2604 32.6047 33.2607 32.6041ZM39.074 33.6792C38.5685 32.7022 37.9078 31.6538 37.1058 30.5575C36.5952 30.6104 36.0461 30.6508 35.512 30.6887L35.1614 31.1602C35.1596 31.1625 35.1579 31.1646 35.1564 31.1669H35.156V31.1672C35.1547 31.1693 35.1529 31.1712 35.1513 31.1729C34.831 31.5604 34.502 31.9563 34.1781 32.3379C34.2102 32.3698 34.2396 32.4024 34.274 32.4359L34.3058 32.4651C35.3454 33.565 36.3504 34.5029 37.3028 35.2655C39.1714 36.7433 39.7419 36.703 39.9149 36.5459C40.1367 36.3505 40.0464 35.4838 39.074 33.6792Z" fill="white"/>
</g>
<defs>
<clipPath id="clip0_20_1220">
<rect width="325" height="86" fill="white"/>
</clipPath>
</defs>
</svg>
